{"glyphs":{"0":{"ha":503,"x_min":25,"x_max":494,"o":"m 465 315 q 376 106 440 200 q 188 -15 293 -15 q 50 106 81 -15 q 50 315 25 199 q 149 553 79 456 q 332 665 229 665 q 468 553 435 665 q 465 315 494 456 m 410 317 q 418 521 435 438 q 322 618 397 618 q 183 521 246 618 q 106 317 132 439 q 100 136 85 217 q 197 32 119 32 q 338 136 274 32 q 410 317 389 217 z "},"1":{"ha":503,"x_min":75,"x_max":375,"o":"m 339 0 l 75 0 l 85 50 l 189 50 l 301 579 l 178 489 l 156 524 l 344 664 q 364 611 375 664 l 244 50 l 349 50 l 339 0 z "},"2":{"ha":503,"x_min":-24,"x_max":508,"o":"m 417 54 l 394 0 l -24 0 q 13 79 -10 35 q 172 210 85 140 q 371 386 258 279 q 439 500 428 446 q 422 583 450 554 q 338 613 393 613 q 169 488 213 613 l 122 501 q 213 625 149 582 q 350 664 271 664 q 468 616 428 664 q 493 496 508 568 q 271 231 471 390 q 63 54 125 111 l 417 54 z "},"3":{"ha":503,"x_min":-4,"x_max":467,"o":"m 443 224 q 335 53 421 118 q 133 -15 249 -12 q -4 36 42 -18 l 28 79 q 154 40 71 40 q 303 94 235 40 q 386 221 371 149 q 373 311 399 275 q 296 347 347 347 q 196 315 236 347 l 179 360 q 301 442 240 400 q 403 546 394 508 q 322 614 417 614 q 146 510 218 614 l 111 531 q 208 628 146 592 q 338 664 269 664 q 431 633 396 664 q 454 547 467 601 q 308 397 440 483 l 317 397 q 424 348 390 397 q 443 224 458 299 z "},"4":{"ha":503,"x_min":17,"x_max":464,"o":"m 308 206 l 393 607 q 200 442 288 560 q 88 206 117 329 l 308 206 m 444 154 l 353 154 l 321 0 l 265 0 l 297 154 l 17 154 q 185 504 64 361 q 464 678 307 647 l 364 206 l 463 206 l 444 154 z "},"5":{"ha":503,"x_min":-17,"x_max":500,"o":"m 429 228 q 321 55 407 121 q 121 -11 235 -11 q -17 40 25 -11 l 14 83 q 51 60 31 71 q 143 42 86 42 q 286 90 218 42 q 372 226 354 139 q 346 339 389 301 q 244 372 311 372 q 142 326 186 372 l 113 324 l 204 660 l 500 660 l 479 607 l 246 607 l 192 411 q 274 425 232 425 q 400 375 354 425 q 429 228 449 319 z "},"6":{"ha":503,"x_min":19,"x_max":485,"o":"m 429 201 q 347 50 411 111 q 196 -11 283 -11 q 56 64 97 -11 q 42 232 19 131 q 201 517 75 392 q 485 672 326 643 l 481 632 q 290 533 382 606 q 132 342 188 453 q 182 386 142 363 q 290 414 232 414 q 410 351 372 414 q 429 201 449 289 m 374 201 q 362 319 389 271 q 269 368 335 368 q 158 319 210 368 q 90 201 106 271 q 108 85 76 133 q 199 36 139 36 q 313 85 265 36 q 374 201 360 133 z "},"7":{"ha":503,"x_min":114,"x_max":536,"o":"m 181 0 l 122 0 q 290 401 167 210 q 383 526 319 446 q 449 607 447 606 l 114 607 l 146 660 l 536 660 l 514 604 q 308 340 394 482 q 181 0 222 197 z "},"8":{"ha":503,"x_min":4,"x_max":496,"o":"m 376 174 q 360 277 388 228 q 260 331 333 326 q 137 277 185 326 q 78 174 89 228 q 99 74 65 111 q 199 38 133 38 q 313 74 263 38 q 376 174 364 111 m 425 501 q 408 582 436 550 q 321 614 379 614 q 220 582 261 614 q 168 501 179 550 q 271 383 150 415 q 425 501 407 415 m 433 178 q 348 39 414 89 q 188 -11 282 -11 q 49 39 94 -11 q 24 178 4 89 q 88 295 38 246 q 201 357 138 344 q 128 412 153 372 q 113 497 103 451 q 189 618 128 571 q 332 665 250 665 q 454 618 413 665 q 481 497 496 571 q 428 412 471 451 q 331 357 385 372 q 418 295 389 344 q 433 178 447 246 z "},"9":{"ha":503,"x_min":33,"x_max":499,"o":"m 476 424 q 317 138 443 264 q 33 -17 192 13 l 38 24 q 228 122 136 50 q 388 314 332 203 q 338 269 376 293 q 228 242 286 242 q 108 304 146 242 q 89 454 71 367 q 172 606 108 544 q 324 667 236 667 q 463 592 422 667 q 476 424 499 525 m 428 454 q 410 571 442 522 q 319 619 379 619 q 206 571 253 619 q 144 454 158 522 q 156 336 129 385 q 249 288 183 288 q 360 336 308 288 q 428 454 413 385 z "}," ":{"ha":300,"x_min":0,"x_max":0,"o":""},"!":{"ha":204,"x_min":-3,"x_max":213,"o":"m 97 167 l 53 167 l 147 660 l 213 660 l 97 167 m 96 39 q 74 6 92 19 q 38 -8 57 -8 q 8 6 18 -8 q 0 39 -3 19 q 22 73 4 58 q 58 88 39 88 q 89 73 78 88 q 96 39 100 58 z "},"\"":{"ha":289,"x_min":104,"x_max":325,"o":"m 263 469 l 225 469 l 260 693 l 325 693 l 263 469 m 142 469 l 104 469 l 139 693 l 204 693 l 142 469 z "},"#":{"ha":560,"x_min":21,"x_max":558,"o":"m 485 207 l 385 207 l 315 0 l 267 0 l 336 207 l 158 207 l 90 0 l 42 0 l 110 207 l 21 207 l 31 250 l 125 250 l 179 415 l 85 415 l 94 460 l 194 460 l 263 660 l 308 660 l 242 460 l 421 460 l 486 660 l 535 660 l 468 460 l 558 460 l 549 415 l 453 415 l 399 250 l 494 250 l 485 207 m 351 250 l 406 415 l 226 415 l 174 250 l 351 250 z "},"$":{"ha":501,"x_min":26,"x_max":476,"o":"m 407 185 q 347 85 394 129 q 217 22 294 36 l 194 -81 l 146 -81 l 168 22 q 26 71 79 22 l 61 114 q 190 67 107 67 q 298 99 253 67 q 353 182 343 132 q 260 314 371 263 q 129 486 107 383 q 191 588 142 546 q 310 639 240 629 l 332 744 l 379 744 l 357 639 q 476 599 425 635 l 442 554 q 325 594 403 594 q 224 560 264 594 q 182 493 190 532 q 197 424 174 451 q 285 365 219 397 q 388 294 360 329 q 407 185 421 250 z "},"%":{"ha":813,"x_min":43,"x_max":786,"o":"m 710 661 l 164 -12 l 117 -12 l 663 661 l 710 661 m 382 464 q 192 267 340 267 q 85 464 43 267 q 276 661 128 661 q 382 464 425 661 m 332 464 q 267 617 365 617 q 135 464 168 617 q 201 311 103 311 q 332 464 300 311 m 744 193 q 554 -4 703 -4 q 447 193 406 -4 q 638 390 489 390 q 744 193 786 390 m 694 193 q 628 346 726 346 q 497 193 529 346 q 564 40 465 40 q 694 193 663 40 z "},"&":{"ha":588,"x_min":-12,"x_max":589,"o":"m 589 356 q 444 111 518 179 q 538 0 485 58 l 468 0 q 406 74 446 25 q 164 -12 285 -12 q 34 42 81 -12 q 4 178 -12 97 q 188 379 32 310 q 157 521 144 458 q 226 636 171 588 q 356 685 281 685 q 448 647 417 685 q 465 549 479 608 q 257 361 442 438 q 418 140 318 272 q 538 356 479 204 l 589 356 m 417 543 q 408 611 425 583 q 342 643 389 643 q 256 608 293 643 q 210 526 219 574 q 240 396 199 472 q 417 543 400 465 m 381 107 q 207 344 281 233 q 58 185 79 283 q 80 74 43 117 q 185 32 117 32 q 381 107 289 32 z "},"'":{"ha":167,"x_min":104,"x_max":203,"o":"m 142 469 l 104 469 l 139 693 l 203 693 l 142 469 z "},"(":{"ha":264,"x_min":-12,"x_max":333,"o":"m 157 -81 l 104 -81 q 36 325 -12 88 q 278 739 85 550 l 333 739 q 89 325 139 561 q 157 -81 42 104 z "},")":{"ha":264,"x_min":-49,"x_max":294,"o":"m 244 329 q 3 -81 196 99 l -49 -81 q 192 329 146 113 q 125 739 238 549 l 178 739 q 244 329 294 565 z "},"*":{"ha":396,"x_min":69,"x_max":426,"o":"m 415 494 l 275 507 l 339 388 l 286 358 l 242 496 l 140 358 l 101 388 l 215 507 l 69 494 l 81 547 l 222 538 l 158 656 l 218 686 l 257 558 l 350 686 l 396 656 l 282 538 l 426 547 l 415 494 z "},"+":{"ha":571,"x_min":42,"x_max":517,"o":"m 507 229 l 299 229 l 250 0 l 201 0 l 250 229 l 42 229 l 51 275 l 260 275 l 306 496 l 354 496 l 308 275 l 517 275 l 507 229 z "},",":{"ha":225,"x_min":-44,"x_max":124,"o":"m 118 38 q 44 -94 100 -37 q -31 -151 7 -135 l -44 -131 q 60 -10 36 -82 q 25 6 38 -10 q 17 42 13 21 q 40 78 21 63 q 79 94 58 94 q 113 78 101 94 q 118 38 124 61 z "},"-":{"ha":300,"x_min":7,"x_max":268,"o":"m 249 229 l 7 229 l 26 275 l 268 275 l 249 229 z "},"­":{"ha":300,"x_min":7,"x_max":268,"o":"m 249 229 l 7 229 l 26 275 l 268 275 l 249 229 z "},".":{"ha":225,"x_min":7,"x_max":111,"o":"m 107 39 q 85 6 103 19 q 49 -8 68 -8 q 18 6 29 -8 q 11 39 7 19 q 33 73 15 58 q 69 88 50 88 q 100 73 89 88 q 107 39 111 58 z "},"/":{"ha":375,"x_min":-93,"x_max":471,"o":"m 471 685 l -40 -40 l -93 -40 l 414 685 l 471 685 z "},":":{"ha":225,"x_min":7,"x_max":188,"o":"m 107 39 q 85 6 103 19 q 49 -8 68 -8 q 18 6 29 -8 q 11 39 7 19 q 33 73 15 58 q 69 88 50 88 q 100 73 89 88 q 107 39 111 58 m 183 393 q 161 360 179 374 q 124 346 143 346 q 94 360 104 346 q 88 393 83 374 q 108 427 92 413 q 144 442 125 442 q 176 427 164 442 q 183 393 188 413 z "},";":{"ha":225,"x_min":-44,"x_max":188,"o":"m 118 38 q 44 -94 100 -37 q -31 -151 7 -135 l -44 -131 q 60 -10 36 -82 q 25 6 38 -10 q 17 42 13 21 q 40 78 21 63 q 79 94 58 94 q 113 78 101 94 q 118 38 124 61 m 183 393 q 161 360 179 374 q 124 346 143 346 q 94 360 104 346 q 88 393 83 374 q 108 427 92 413 q 144 442 125 442 q 176 427 164 442 q 183 393 188 413 z "},"<":{"ha":571,"x_min":51,"x_max":560,"o":"m 458 50 l 447 -3 l 51 242 l 60 279 l 560 524 l 549 472 l 111 260 l 458 50 z "},"=":{"ha":571,"x_min":46,"x_max":513,"o":"m 513 368 l 503 322 l 85 322 l 94 368 l 513 368 m 474 188 l 464 142 l 46 142 l 56 188 l 474 188 z "},">":{"ha":571,"x_min":0,"x_max":507,"o":"m 507 279 l 499 242 l 0 -3 l 11 50 l 447 261 l 101 472 l 113 524 l 507 279 z "},"?":{"ha":393,"x_min":61,"x_max":407,"o":"m 168 171 l 121 171 q 124 219 118 192 q 233 378 139 293 q 339 522 326 463 q 247 622 361 622 q 128 586 182 622 l 117 628 q 267 671 192 671 q 378 625 346 671 q 394 525 407 585 q 271 358 379 451 q 172 215 188 286 q 168 171 168 190 m 161 39 q 140 6 157 19 q 103 -8 122 -8 q 72 6 83 -8 q 65 39 61 19 q 87 73 69 58 q 124 88 104 88 q 154 73 143 88 q 161 39 165 58 z "},"@":{"ha":744,"x_min":-18,"x_max":728,"o":"m 700 244 q 607 83 679 150 q 465 13 535 17 l 422 10 l 422 72 q 260 1 351 1 q 233 3 243 1 q 166 42 190 10 q 150 115 142 74 q 461 271 183 271 l 463 278 q 375 396 488 396 q 264 363 314 396 l 256 397 q 386 438 318 438 q 507 261 544 438 l 476 113 q 469 56 469 82 q 580 113 524 58 q 651 240 636 167 q 620 431 676 356 q 440 507 564 507 q 206 421 310 507 q 64 185 94 329 q 97 -13 38 65 q 269 -92 157 -92 q 442 -50 365 -92 l 453 -90 q 257 -135 360 -135 q 54 -46 126 -135 q 10 181 -18 43 q 161 436 42 332 q 456 547 288 547 q 661 461 594 547 q 700 244 728 375 m 435 146 l 453 231 q 203 124 225 228 q 271 40 186 40 q 428 128 371 40 q 435 146 432 133 z "},"A":{"ha":556,"x_min":-60,"x_max":496,"o":"m 496 0 l 436 0 l 404 213 l 119 213 l 0 0 l -60 0 l 332 671 l 388 671 l 496 0 m 397 258 l 347 611 l 146 258 l 397 258 z "},"B":{"ha":525,"x_min":15,"x_max":536,"o":"m 460 185 q 139 -8 418 -8 q 15 6 78 -8 l 153 651 q 296 669 226 669 q 500 503 536 669 q 451 412 490 453 q 358 353 413 371 q 440 297 407 340 q 460 185 474 253 m 446 501 q 286 624 472 624 q 199 614 243 624 l 147 372 l 260 372 q 386 411 333 372 q 446 501 435 447 m 407 183 q 372 292 422 257 q 235 328 322 328 l 139 328 l 78 44 q 160 36 114 36 q 313 68 249 36 q 407 183 390 107 z "},"C":{"ha":564,"x_min":11,"x_max":601,"o":"m 464 69 l 471 25 q 283 -10 390 -10 q 80 87 149 -10 q 42 332 11 183 q 183 576 74 481 q 428 671 293 671 q 601 636 535 671 l 575 592 q 421 624 507 624 q 222 544 314 624 q 97 331 125 461 q 131 117 69 200 q 296 38 189 38 q 464 69 382 38 z "},"D":{"ha":599,"x_min":17,"x_max":603,"o":"m 571 344 q 183 -6 497 -6 q 17 7 142 -6 l 153 651 q 354 668 285 668 q 542 583 481 668 q 571 344 603 494 m 517 344 q 492 551 544 476 q 340 621 443 621 q 199 610 297 621 l 79 50 q 210 42 147 42 q 404 122 322 42 q 517 344 486 201 z "},"E":{"ha":488,"x_min":15,"x_max":515,"o":"m 375 0 l 15 0 l 156 661 l 515 661 l 506 615 l 200 615 l 147 372 l 419 372 l 410 326 l 138 326 l 79 46 l 385 46 l 375 0 z "},"F":{"ha":488,"x_min":15,"x_max":529,"o":"m 435 318 l 136 318 l 69 0 l 15 0 l 156 661 l 529 661 l 519 615 l 200 615 l 146 364 l 444 364 l 435 318 z "},"G":{"ha":590,"x_min":10,"x_max":588,"o":"m 542 331 l 475 14 q 447 22 465 22 q 362 8 447 22 q 249 -7 276 -7 q 66 85 122 -7 q 42 332 10 178 q 172 571 74 479 q 417 668 275 668 q 588 635 518 668 l 561 590 q 404 622 485 622 q 213 540 300 622 q 97 331 125 458 q 112 116 68 194 q 267 38 156 38 q 435 72 354 38 l 479 286 l 311 286 l 321 331 l 542 331 z "},"H":{"ha":613,"x_min":15,"x_max":618,"o":"m 478 0 l 424 0 l 493 329 l 139 329 l 69 0 l 15 0 l 156 661 l 210 661 l 149 375 l 503 375 l 564 661 l 618 661 l 478 0 z "},"I":{"ha":204,"x_min":15,"x_max":210,"o":"m 69 0 l 15 0 l 156 661 l 210 661 l 69 0 z "},"J":{"ha":367,"x_min":-58,"x_max":372,"o":"m 278 217 q 35 -12 229 -12 q -58 8 -18 -12 l -36 51 q 44 35 -7 35 q 160 77 117 35 q 226 231 203 119 l 318 661 l 372 661 l 278 217 z "},"K":{"ha":522,"x_min":15,"x_max":592,"o":"m 483 13 l 431 -7 l 213 344 l 126 274 l 69 0 l 15 0 l 156 661 l 210 661 l 142 343 l 540 669 l 592 654 l 258 379 l 483 13 z "},"L":{"ha":490,"x_min":15,"x_max":404,"o":"m 394 0 l 15 0 l 156 661 l 210 661 l 79 46 l 404 46 l 394 0 z "},"M":{"ha":761,"x_min":-4,"x_max":740,"o":"m 646 0 l 594 0 l 676 583 l 339 0 l 303 0 l 213 583 l 47 0 l -4 0 l 182 661 l 246 661 l 335 68 l 676 661 l 740 661 l 646 0 z "},"N":{"ha":613,"x_min":15,"x_max":618,"o":"m 478 0 l 421 0 l 194 585 l 71 0 l 15 0 l 156 661 l 218 661 l 442 85 l 565 661 l 618 661 l 478 0 z "},"O":{"ha":675,"x_min":8,"x_max":686,"o":"m 654 329 q 516 83 622 181 q 274 -14 410 -14 q 73 83 138 -14 q 40 329 8 181 q 178 575 72 478 q 419 672 283 672 q 621 575 556 672 q 654 329 686 478 m 600 329 q 574 538 626 451 q 410 625 521 625 q 210 538 299 625 q 94 329 121 451 q 121 120 68 207 q 285 33 174 33 q 485 120 396 33 q 600 329 574 207 z "},"P":{"ha":525,"x_min":15,"x_max":540,"o":"m 521 478 q 403 317 499 374 q 213 269 321 268 q 128 278 168 269 l 69 0 l 15 0 l 154 654 q 317 668 240 668 q 475 622 417 668 q 521 478 540 569 m 468 474 q 306 621 500 621 q 199 614 236 621 l 138 325 q 233 315 174 315 q 468 474 436 326 z "},"Q":{"ha":676,"x_min":8,"x_max":686,"o":"m 654 329 q 551 119 629 210 q 358 -1 469 25 q 539 -42 433 -36 l 508 -93 q 274 -14 378 -61 q 73 83 138 -14 q 40 329 8 181 q 178 575 72 478 q 419 672 283 672 q 621 575 556 672 q 654 329 686 478 m 600 329 q 574 538 626 451 q 410 625 521 625 q 210 538 299 625 q 94 329 121 451 q 121 120 68 207 q 285 33 174 33 q 485 120 396 33 q 600 329 574 207 z "},"R":{"ha":526,"x_min":15,"x_max":542,"o":"m 438 0 l 385 0 q 261 301 411 301 l 133 301 l 69 0 l 15 0 l 153 653 q 319 668 235 668 q 479 626 426 667 q 524 490 542 579 q 358 319 497 367 q 438 169 424 279 q 438 0 444 113 m 469 483 q 310 621 500 621 q 199 611 233 621 l 142 344 l 265 344 q 401 381 347 344 q 469 483 456 418 z "},"S":{"ha":489,"x_min":-14,"x_max":492,"o":"m 421 172 q 340 47 404 97 q 157 -12 267 -12 q -14 38 49 -12 l 17 85 q 172 33 75 33 q 302 70 250 33 q 367 168 354 107 q 352 258 379 224 q 251 317 325 292 q 106 503 79 376 q 190 625 122 576 q 349 674 257 674 q 492 639 442 674 q 460 596 475 615 q 338 628 407 628 q 208 588 260 628 q 160 510 168 554 q 276 368 139 418 q 399 296 365 335 q 421 172 438 250 z "},"T":{"ha":526,"x_min":64,"x_max":614,"o":"m 604 615 l 361 615 l 231 0 l 178 0 l 308 615 l 64 615 l 74 661 l 614 661 l 604 615 z "},"U":{"ha":647,"x_min":13,"x_max":653,"o":"m 571 279 q 261 -12 510 -12 q 74 279 13 -12 l 156 661 l 210 661 l 128 281 q 142 92 100 150 q 271 33 183 33 q 425 92 360 33 q 517 281 490 150 l 599 661 l 653 661 l 571 279 z "},"V":{"ha":542,"x_min":81,"x_max":622,"o":"m 622 661 l 240 0 l 182 0 l 81 661 l 142 661 l 224 63 l 561 661 l 622 661 z "},"W":{"ha":817,"x_min":81,"x_max":897,"o":"m 897 661 l 557 0 l 499 0 l 475 600 l 199 0 l 140 0 l 81 661 l 142 661 l 182 63 l 458 661 l 519 661 l 540 63 l 836 661 l 897 661 z "},"X":{"ha":581,"x_min":-36,"x_max":628,"o":"m 497 0 l 433 0 l 293 299 l 28 0 l -36 0 l 269 339 l 114 661 l 179 661 l 308 372 l 563 661 l 628 661 l 333 339 l 497 0 z "},"Y":{"ha":508,"x_min":81,"x_max":589,"o":"m 589 661 l 282 292 l 221 0 l 168 0 l 229 290 l 81 661 l 143 661 l 265 338 l 526 661 l 589 661 z "},"Z":{"ha":589,"x_min":-29,"x_max":629,"o":"m 517 46 l 496 0 l -29 0 l -21 36 l 550 615 l 129 615 l 147 661 l 629 661 l 621 624 l 51 46 l 517 46 z "},"[":{"ha":272,"x_min":-10,"x_max":346,"o":"m 182 -67 l 174 -108 l -10 -108 l 161 703 l 346 703 l 338 661 l 201 661 l 46 -67 l 182 -67 z "},"\\":{"ha":364,"x_min":69,"x_max":319,"o":"m 319 -39 l 264 -39 l 69 671 l 124 671 l 319 -39 z "},"]":{"ha":272,"x_min":-67,"x_max":290,"o":"m 118 -108 l -67 -108 l -58 -67 l 76 -67 l 232 661 l 96 661 l 104 703 l 290 703 l 118 -108 z "},"^":{"ha":572,"x_min":46,"x_max":496,"o":"m 392 667 l 496 221 l 444 221 l 354 614 l 97 221 l 46 221 l 342 667 l 392 667 z "},"_":{"ha":489,"x_min":-112,"x_max":383,"o":"m 383 -211 l 375 -254 l -112 -254 l -104 -211 l 383 -211 z "},"`":{"ha":283,"x_min":161,"x_max":260,"o":"m 260 542 l 217 542 l 161 654 l 218 668 l 260 542 z "},"a":{"ha":553,"x_min":22,"x_max":514,"o":"m 444 96 q 449 1 432 40 l 394 -10 q 388 86 379 40 q 192 -14 311 -14 q 67 33 111 -14 q 22 157 22 79 q 101 376 22 279 q 304 481 185 481 q 514 411 428 482 l 444 96 m 411 199 l 454 388 q 311 436 383 436 q 139 346 210 435 q 75 164 75 263 q 110 66 75 103 q 210 29 146 29 q 338 80 281 29 q 411 199 396 131 z "},"b":{"ha":557,"x_min":47,"x_max":531,"o":"m 508 242 q 410 58 485 128 q 235 -12 336 -12 q 94 33 140 -12 q 47 151 47 79 q 53 197 47 175 l 161 701 l 215 701 l 147 382 q 347 482 229 482 q 488 414 446 482 q 508 242 531 346 m 456 240 q 442 383 475 328 q 329 439 410 439 q 204 393 263 439 q 124 269 139 344 l 104 179 q 129 73 90 113 q 238 33 168 33 q 456 240 413 33 z "},"c":{"ha":460,"x_min":3,"x_max":468,"o":"m 367 65 l 378 21 q 225 -12 311 -12 q 56 55 108 -12 q 26 235 3 122 q 132 415 51 347 q 329 482 213 482 q 468 449 415 482 l 439 404 q 317 438 394 438 q 166 383 232 438 q 79 235 100 329 q 103 86 60 140 q 231 32 146 32 q 367 65 308 32 z "},"d":{"ha":557,"x_min":6,"x_max":574,"o":"m 449 115 q 449 1 438 64 l 394 -10 q 392 82 388 38 q 197 -12 308 -12 q 51 58 96 -12 q 29 242 6 128 q 123 414 51 346 q 293 482 194 482 q 451 382 411 482 l 519 701 l 574 701 l 449 115 m 410 189 l 428 268 q 400 393 443 344 q 294 439 361 439 q 158 383 214 439 q 82 240 101 328 q 214 33 39 33 q 340 78 283 33 q 410 189 396 122 z "},"e":{"ha":519,"x_min":18,"x_max":478,"o":"m 478 351 q 196 186 478 186 q 75 192 144 186 q 74 171 74 181 q 232 35 74 35 q 404 67 313 35 l 399 21 q 217 -12 311 -12 q 72 36 126 -12 q 18 167 18 85 q 111 393 18 299 q 315 482 200 482 q 478 351 478 482 m 429 353 q 315 439 429 439 q 175 382 244 439 q 78 236 101 321 q 179 232 135 232 q 429 353 429 232 z "},"f":{"ha":286,"x_min":-208,"x_max":421,"o":"m 307 429 l 171 429 l 82 6 q -135 -217 33 -217 q -208 -194 -187 -217 l -185 -156 q -121 -171 -158 -171 q 28 6 -10 -171 l 117 429 l 38 429 l 47 472 l 128 472 l 132 490 q 347 713 179 713 q 421 690 400 713 l 397 651 q 333 667 371 667 q 185 490 222 667 l 181 472 l 317 472 l 307 429 z "},"g":{"ha":432,"x_min":-22,"x_max":433,"o":"m 389 317 q 315 193 372 239 q 186 147 257 147 q 115 163 143 147 q 99 122 103 142 q 197 54 92 86 q 301 -82 322 17 q 238 -180 289 -142 q 103 -218 186 -218 q -22 -181 29 -218 l 6 -136 q 117 -171 57 -171 q 207 -147 168 -171 q 253 -86 246 -124 q 165 17 268 -19 q 82 54 103 38 q 53 122 44 81 q 81 189 58 147 q 54 307 42 244 q 128 428 71 382 q 249 474 185 474 l 433 474 l 424 429 l 357 436 q 389 317 403 381 m 340 310 q 328 390 350 356 q 247 432 304 432 q 153 395 192 432 q 104 308 114 358 q 122 219 92 253 q 194 189 150 189 q 286 221 244 189 q 340 310 328 253 z "},"h":{"ha":542,"x_min":13,"x_max":511,"o":"m 433 1 l 379 -10 q 374 83 364 38 l 413 268 q 306 438 447 438 q 194 390 249 438 q 126 286 139 342 l 67 0 l 13 0 l 161 701 l 215 701 l 149 388 q 326 482 225 482 q 467 268 511 482 l 429 96 q 433 1 418 38 z "},"i":{"ha":199,"x_min":13,"x_max":217,"o":"m 67 0 l 13 0 l 113 472 l 167 472 l 67 0 m 213 615 q 193 584 208 596 q 158 572 178 572 q 130 584 139 572 q 125 615 121 596 q 143 647 129 635 q 176 660 157 660 q 206 647 196 660 q 213 615 217 635 z "},"j":{"ha":215,"x_min":-156,"x_max":233,"o":"m 85 10 q -156 -206 38 -201 l -151 -162 q -11 -96 -54 -154 q 33 25 17 -56 l 129 472 l 183 472 l 85 10 m 229 615 q 210 584 225 596 q 175 572 194 572 q 147 584 156 572 q 142 615 138 596 q 160 647 146 635 q 193 660 174 660 q 223 647 213 660 q 229 615 233 635 z "},"k":{"ha":439,"x_min":13,"x_max":456,"o":"m 394 1 l 336 -14 l 167 246 l 108 199 l 67 0 l 13 0 l 161 701 l 215 701 l 121 260 l 403 479 l 456 468 l 213 276 l 394 1 z "},"l":{"ha":278,"x_min":11,"x_max":215,"o":"m 200 38 l 185 -10 q 63 238 11 -1 l 161 701 l 215 701 l 121 258 q 108 111 100 157 q 200 38 119 39 z "},"m":{"ha":835,"x_min":13,"x_max":779,"o":"m 722 96 q 726 1 711 38 l 672 -10 q 667 83 657 38 l 703 261 q 698 390 721 342 q 613 438 675 438 q 508 395 558 438 q 447 300 458 353 l 385 0 l 331 0 l 390 286 q 303 438 422 438 q 193 390 247 438 q 126 286 139 342 l 67 0 l 13 0 l 92 375 q 88 469 103 433 l 142 481 q 147 388 157 433 q 325 482 221 482 q 446 376 421 482 q 638 482 524 482 q 747 423 715 482 q 758 263 779 364 l 722 96 z "},"n":{"ha":542,"x_min":13,"x_max":511,"o":"m 431 96 q 435 1 419 38 l 381 -10 q 375 83 365 38 l 413 268 q 306 438 447 438 q 194 390 249 438 q 126 286 139 342 l 67 0 l 13 0 l 92 375 q 88 469 103 433 l 142 481 q 147 388 157 433 q 326 482 221 482 q 467 268 511 482 l 431 96 z "},"o":{"ha":553,"x_min":6,"x_max":525,"o":"m 503 235 q 400 58 481 131 q 213 -14 319 -14 q 56 58 106 -14 q 28 235 6 131 q 131 410 50 339 q 318 482 211 482 q 475 410 425 482 q 503 235 525 339 m 450 235 q 429 378 469 321 q 308 436 389 436 q 164 378 228 436 q 81 235 100 321 q 102 90 63 149 q 222 32 142 32 q 367 90 303 32 q 450 235 432 149 z "},"p":{"ha":557,"x_min":-36,"x_max":531,"o":"m 456 229 q 442 381 475 326 q 322 436 408 436 q 197 392 253 436 q 125 281 140 347 l 108 201 q 136 76 93 125 q 242 31 175 31 q 382 88 322 31 q 456 229 436 142 m 506 228 q 414 58 483 124 q 243 -12 342 -12 q 85 88 125 -12 l 17 -232 l -36 -232 l 92 374 q 88 468 103 432 l 142 479 q 143 386 157 432 q 339 482 228 482 q 485 412 440 482 q 506 228 531 342 z "},"q":{"ha":557,"x_min":22,"x_max":518,"o":"m 518 411 l 378 -233 l 324 -233 l 392 86 q 192 -14 311 -14 q 67 33 111 -14 q 22 157 22 79 q 101 376 22 279 q 304 481 185 481 q 518 411 432 482 m 415 199 l 458 388 q 311 436 388 436 q 139 346 210 435 q 75 164 75 263 q 110 66 75 103 q 210 29 146 29 q 340 80 281 29 q 415 199 400 131 z "},"r":{"ha":301,"x_min":13,"x_max":331,"o":"m 321 433 q 304 435 317 435 q 135 301 197 435 q 119 254 126 286 l 67 0 l 13 0 l 90 375 q 86 469 101 433 l 140 481 q 139 378 156 433 q 304 482 206 482 q 331 479 317 482 l 321 433 z "},"s":{"ha":392,"x_min":-14,"x_max":365,"o":"m 311 125 q 244 26 297 65 q 111 -12 192 -12 q -14 25 42 -12 l 15 69 q 125 33 75 33 q 260 121 242 33 q 172 222 274 189 q 72 350 53 261 q 133 443 83 404 q 256 482 182 482 q 365 450 329 482 l 335 406 q 238 439 300 439 q 163 415 193 439 q 125 357 132 392 q 214 264 114 301 q 311 125 331 221 z "},"t":{"ha":331,"x_min":39,"x_max":349,"o":"m 240 43 l 238 0 q 161 -12 207 -12 q 78 35 100 -12 q 72 139 58 76 l 133 429 l 39 429 l 49 472 l 143 472 l 172 613 l 232 638 l 197 472 l 349 472 l 339 429 l 188 429 l 126 140 q 175 35 104 35 q 240 43 218 35 z "},"u":{"ha":542,"x_min":10,"x_max":510,"o":"m 433 1 l 379 -10 q 376 82 372 38 q 179 -12 296 -12 q 56 207 10 -12 l 92 375 q 88 469 103 433 l 142 481 q 149 388 157 433 l 113 217 q 201 35 74 35 q 318 74 261 35 q 394 186 381 118 l 456 472 l 510 472 l 433 115 q 433 1 422 64 z "},"v":{"ha":474,"x_min":44,"x_max":510,"o":"m 510 472 l 197 0 l 149 0 l 44 472 l 100 472 l 186 58 l 454 472 l 510 472 z "},"w":{"ha":704,"x_min":44,"x_max":744,"o":"m 744 472 l 475 0 l 428 0 l 379 417 l 149 0 l 99 0 l 44 472 l 101 472 l 139 64 l 368 472 l 419 472 l 465 64 l 690 472 l 744 472 z "},"x":{"ha":442,"x_min":-60,"x_max":472,"o":"m 382 0 l 318 0 l 203 204 l 3 0 l -60 0 l 182 240 l 53 472 l 114 472 l 222 281 l 413 472 l 472 472 l 242 242 l 382 0 z "},"y":{"ha":468,"x_min":-71,"x_max":504,"o":"m 196 0 q -68 -217 74 -185 l -71 -174 q 147 15 51 -147 q 146 32 147 19 l 44 472 l 103 472 l 194 72 l 444 472 l 504 472 l 196 0 z "},"z":{"ha":446,"x_min":-39,"x_max":463,"o":"m 358 0 l -39 0 l -31 33 l 385 428 l 68 428 l 86 472 l 463 472 l 453 435 l 38 44 l 378 44 l 358 0 z "},"{":{"ha":289,"x_min":1,"x_max":332,"o":"m 176 -65 l 167 -107 l 151 -107 q 29 25 1 -107 q 56 106 35 51 q 83 189 78 161 q 13 261 99 258 l 22 303 q 124 375 108 306 q 131 458 129 403 q 139 539 133 513 q 317 671 167 671 l 332 671 l 324 629 l 303 629 q 186 533 207 629 q 174 379 176 393 q 97 282 158 308 q 132 185 147 256 q 79 31 129 171 q 156 -65 60 -65 l 176 -65 z "},"|":{"ha":213,"x_min":-26,"x_max":225,"o":"m 225 733 l 18 -242 l -26 -242 l 179 733 l 225 733 z "},"}":{"ha":289,"x_min":-43,"x_max":286,"o":"m -43 -107 l -33 -65 l -12 -65 q 101 31 82 -65 q 115 185 113 171 q 192 282 131 256 q 157 379 142 308 q 208 533 160 393 q 133 629 229 629 l 113 629 l 121 671 l 136 671 q 258 539 286 671 q 231 458 253 513 q 204 375 210 403 q 275 303 189 306 l 265 261 q 164 189 179 258 q 156 106 158 161 q 149 25 154 51 q -28 -107 121 -107 l -43 -107 z "},"~":{"ha":578,"x_min":21,"x_max":553,"o":"m 553 346 l 551 338 q 496 239 538 274 q 417 210 461 210 q 281 255 363 210 q 150 300 199 300 q 64 210 85 300 l 21 210 l 22 221 q 74 313 35 279 q 160 346 114 346 q 296 302 213 346 q 429 258 379 258 q 510 346 489 258 l 553 346 z "},"¡":{"ha":210,"x_min":-35,"x_max":189,"o":"m 40 -194 l -35 -194 l 81 289 l 129 289 l 40 -194 m 185 422 q 162 386 181 401 q 122 371 143 371 q 90 386 101 371 q 82 422 78 401 q 105 458 86 443 q 144 474 124 474 q 177 458 165 474 q 185 422 189 443 z "},"¢":{"ha":571,"x_min":25,"x_max":589,"o":"m 479 67 q 289 31 404 31 l 282 31 l 258 -82 l 213 -82 l 238 33 q 83 118 135 49 q 54 331 25 194 q 156 522 79 446 q 363 626 240 606 l 390 753 l 436 753 l 410 632 q 439 633 419 633 q 589 607 522 633 l 568 557 q 433 589 513 589 q 220 522 306 589 q 108 328 135 454 q 135 146 82 208 q 317 79 190 79 q 471 107 404 79 l 479 67 z "},"£":{"ha":571,"x_min":19,"x_max":538,"o":"m 431 0 l 19 0 l 26 35 q 183 219 160 107 q 193 300 190 251 l 83 300 l 93 343 l 199 343 q 211 456 201 410 q 428 640 250 640 q 538 613 485 640 l 513 572 q 415 594 461 594 q 260 454 289 594 q 249 343 249 403 l 406 343 l 396 300 l 244 300 q 236 229 244 268 q 122 46 211 113 l 440 46 l 431 0 z "},"¤":{"ha":571,"x_min":-7,"x_max":592,"o":"m 543 313 q 458 158 524 221 l 501 101 l 453 60 l 407 118 q 236 60 331 60 q 92 118 146 60 l 24 60 l -7 101 l 58 158 q 36 313 18 225 q 125 471 56 401 l 82 526 l 132 569 l 175 511 q 343 568 258 568 q 490 511 432 568 l 563 569 l 592 526 l 525 471 q 543 313 564 410 m 488 313 q 461 458 506 396 q 333 519 417 519 q 181 458 253 519 q 90 313 108 397 q 119 169 72 228 q 246 110 165 110 q 400 170 329 110 q 488 313 471 231 z "},"¥":{"ha":571,"x_min":61,"x_max":599,"o":"m 447 132 l 279 132 l 257 26 l 206 26 l 228 132 l 61 132 l 69 172 l 236 172 l 253 251 l 86 251 l 94 292 l 261 292 l 122 638 l 186 638 l 297 344 l 533 638 l 599 638 l 313 293 l 481 293 l 472 251 l 304 251 l 288 172 l 456 172 l 447 132 z "},"¦":{"ha":213,"x_min":-12,"x_max":208,"o":"m 136 315 l 90 315 l 163 660 l 208 660 l 136 315 m 32 -171 l -12 -171 l 60 175 l 106 175 l 32 -171 z "},"§":{"ha":519,"x_min":38,"x_max":482,"o":"m 376 90 q 304 -15 363 24 q 171 -54 246 -54 q 38 -8 83 -54 l 68 31 q 183 -12 106 -12 q 280 14 240 -12 q 328 83 319 40 q 272 178 340 143 q 142 235 207 206 q 89 346 74 274 q 175 457 103 407 q 160 532 150 489 q 226 628 172 592 q 354 665 281 665 q 482 629 428 665 l 450 589 q 339 625 408 625 q 256 601 292 625 q 211 540 219 576 q 239 478 203 503 q 328 436 261 461 q 444 293 465 386 q 361 174 432 229 q 376 90 388 140 m 392 286 q 375 342 399 314 q 308 388 351 371 q 203 435 231 415 q 138 349 147 394 q 171 281 129 310 q 263 238 197 263 q 338 200 322 214 q 392 286 383 243 z "},"¨":{"ha":294,"x_min":119,"x_max":385,"o":"m 208 586 q 190 556 204 568 q 157 544 175 544 q 129 556 139 544 q 124 586 119 568 q 142 617 128 604 q 175 629 157 629 q 203 617 193 629 q 208 586 213 604 m 381 586 q 362 556 376 568 q 329 544 347 544 q 301 556 311 544 q 296 586 292 568 q 315 617 300 604 q 347 629 329 629 q 375 617 365 629 q 381 586 385 604 z "},"©":{"ha":744,"x_min":56,"x_max":731,"o":"m 535 163 q 389 122 482 122 q 244 181 299 122 q 190 324 190 239 q 247 477 190 421 q 396 533 304 533 q 528 500 483 533 l 511 458 q 396 489 458 489 q 246 331 246 481 q 397 171 246 179 q 517 206 468 171 l 535 163 m 731 333 q 631 95 731 194 q 393 -4 532 -4 q 155 95 254 -4 q 56 333 56 194 q 155 572 56 472 q 393 671 254 671 q 631 572 532 671 q 731 333 731 472 m 681 333 q 597 537 681 453 q 393 621 513 621 q 190 537 274 621 q 106 333 106 453 q 190 130 106 214 q 393 46 274 46 q 597 130 513 46 q 681 333 681 214 z "},"ª":{"ha":378,"x_min":44,"x_max":381,"o":"m 381 615 l 335 408 q 332 381 332 396 q 339 346 332 358 l 292 335 q 286 368 286 350 q 288 392 286 382 q 161 335 228 335 q 76 367 107 335 q 44 450 44 399 q 99 598 44 532 q 235 664 153 664 q 381 615 321 664 m 300 476 l 328 600 q 239 628 285 628 q 135 573 176 628 q 93 454 93 518 q 174 371 93 371 q 253 403 215 371 q 300 476 290 435 z "},"«":{"ha":414,"x_min":7,"x_max":411,"o":"m 278 67 l 161 246 l 353 429 l 411 429 l 219 246 l 336 67 l 278 67 m 124 67 l 7 246 l 199 429 l 257 429 l 65 246 l 182 67 l 124 67 z "},"¬":{"ha":583,"x_min":60,"x_max":565,"o":"m 565 126 l 511 126 l 511 332 l 60 332 l 60 378 l 565 378 l 565 126 z "},"®":{"ha":744,"x_min":56,"x_max":731,"o":"m 547 138 l 493 138 q 403 301 468 301 l 318 301 l 318 138 l 263 138 l 263 529 q 378 540 313 539 q 492 509 451 540 q 533 424 533 478 q 476 321 533 351 q 547 138 531 272 m 479 417 q 383 492 479 492 q 318 488 346 492 l 318 353 l 393 353 q 456 369 432 353 q 479 417 479 386 m 731 333 q 631 95 731 194 q 393 -4 532 -4 q 155 95 254 -4 q 56 333 56 194 q 155 572 56 472 q 393 671 254 671 q 631 572 532 671 q 731 333 731 472 m 681 333 q 597 537 681 453 q 393 621 513 621 q 190 537 274 621 q 106 333 106 453 q 190 130 106 214 q 393 46 274 46 q 597 130 513 46 q 681 333 681 214 z "},"¯":{"ha":489,"x_min":96,"x_max":593,"o":"m 593 776 l 585 733 l 96 733 l 104 776 l 593 776 z "},"°":{"ha":294,"x_min":74,"x_max":332,"o":"m 322 551 q 269 468 311 503 q 178 433 226 433 q 101 468 129 433 q 85 551 74 503 q 137 635 94 600 q 228 671 179 671 q 304 635 276 671 q 322 551 332 600 m 281 551 q 269 607 288 583 q 219 631 251 631 q 160 607 188 631 q 126 551 133 583 q 137 497 119 519 q 186 474 154 474 q 246 497 218 474 q 281 551 274 519 z "},"±":{"ha":571,"x_min":-7,"x_max":526,"o":"m 517 279 l 308 279 l 269 94 l 221 94 l 260 279 l 51 279 l 61 324 l 269 324 l 306 496 l 354 496 l 318 324 l 526 324 l 517 279 m 458 0 l -7 0 l 1 44 l 467 44 l 458 0 z "},"²":{"ha":353,"x_min":32,"x_max":356,"o":"m 299 315 l 283 272 l 32 272 q 158 418 47 329 q 247 490 204 453 q 299 565 290 528 q 251 625 311 625 q 161 549 185 625 l 117 557 q 172 639 133 610 q 257 668 210 668 q 331 640 306 668 q 346 565 356 613 q 242 431 333 508 q 106 315 174 372 l 299 315 z "},"³":{"ha":353,"x_min":51,"x_max":351,"o":"m 326 414 q 263 312 313 350 q 144 272 213 274 q 51 300 83 271 l 82 344 q 150 318 108 318 q 236 344 201 318 q 281 413 271 371 q 235 474 293 474 q 169 454 196 474 l 157 489 q 247 544 238 538 q 290 596 285 571 q 250 624 296 624 q 157 563 193 624 l 121 583 q 264 669 176 669 q 336 597 351 669 q 306 546 331 572 q 256 510 281 519 q 326 414 346 504 z "},"´":{"ha":294,"x_min":171,"x_max":336,"o":"m 214 733 l 171 733 l 267 860 l 336 860 l 214 733 z "},"µ":{"ha":564,"x_min":-21,"x_max":528,"o":"m 451 115 q 453 1 442 64 l 399 -10 q 397 88 392 38 q 199 -12 297 -12 q 83 58 118 -12 l 31 -194 l -21 -194 l 119 472 l 172 472 l 115 203 q 221 35 79 35 q 342 81 282 35 q 414 185 401 128 l 475 472 l 528 472 l 451 115 z "},"¶":{"ha":519,"x_min":78,"x_max":524,"o":"m 367 -87 l 319 -87 l 469 615 l 403 615 l 253 -87 l 204 -87 l 276 250 l 271 250 q 136 299 188 250 q 97 446 78 354 q 417 660 142 660 q 524 653 490 660 l 367 -87 z "},"·":{"ha":225,"x_min":53,"x_max":157,"o":"m 153 251 q 131 218 149 232 q 94 204 114 204 q 64 218 75 204 q 57 251 53 232 q 78 285 61 271 q 114 300 94 300 q 145 285 133 300 q 153 251 157 271 z "},"¸":{"ha":294,"x_min":-47,"x_max":139,"o":"m 128 -112 q 14 -193 111 -193 q -47 -175 -18 -193 l -28 -144 q 22 -158 -1 -158 q 83 -119 75 -158 q 6 -78 92 -85 l 76 6 l 121 6 l 72 -47 q 128 -112 139 -64 z "},"¹":{"ha":353,"x_min":99,"x_max":292,"o":"m 268 279 l 99 279 l 106 313 l 167 313 l 228 597 l 165 551 l 146 585 l 263 672 q 283 633 292 669 l 215 313 l 275 313 l 268 279 z "},"º":{"ha":396,"x_min":58,"x_max":428,"o":"m 413 500 q 336 381 399 431 q 206 331 274 331 q 97 381 136 331 q 72 500 58 431 q 149 619 88 568 q 279 671 210 671 q 388 619 347 671 q 413 500 428 568 m 364 500 q 347 586 375 550 q 268 622 318 622 q 175 586 218 622 q 121 500 132 550 q 139 415 111 450 q 217 379 167 379 q 310 415 267 379 q 364 500 354 450 z "},"»":{"ha":408,"x_min":-18,"x_max":385,"o":"m 39 67 l -18 67 l 172 246 l 58 429 l 117 429 l 231 246 l 39 67 m 193 67 l 135 67 l 326 246 l 213 429 l 271 429 l 385 246 l 193 67 z "},"¼":{"ha":744,"x_min":54,"x_max":675,"o":"m 140 -12 l 94 -12 l 629 649 l 675 649 l 140 -12 m 224 258 l 54 258 l 61 292 l 122 292 l 182 571 l 119 525 l 100 558 l 217 646 q 238 607 246 643 l 171 292 l 231 292 l 224 258 m 556 132 l 599 338 q 507 238 553 304 q 451 132 464 176 l 556 132 m 653 86 l 594 86 l 576 0 l 528 0 l 546 86 l 390 86 q 483 276 411 179 q 661 397 569 394 l 604 132 l 665 132 l 653 86 z "},"½":{"ha":744,"x_min":54,"x_max":717,"o":"m 140 -12 l 94 -12 l 629 649 l 675 649 l 140 -12 m 224 258 l 54 258 l 61 292 l 122 292 l 182 571 l 119 525 l 100 558 l 217 646 q 238 607 246 643 l 171 292 l 231 292 l 224 258 m 643 0 l 392 0 q 518 146 406 57 q 606 218 563 181 q 657 293 650 256 q 610 353 669 353 q 521 276 543 353 l 475 285 q 530 367 492 338 q 615 396 568 396 q 691 369 665 396 q 706 293 717 342 q 603 158 694 236 q 469 43 533 100 l 657 43 l 643 0 z "},"¾":{"ha":744,"x_min":49,"x_max":675,"o":"m 140 -12 l 94 -12 l 629 649 l 675 649 l 140 -12 m 322 397 q 260 295 310 333 q 142 256 210 257 q 49 283 79 254 l 79 328 q 147 301 106 301 q 233 328 199 301 q 276 396 268 354 q 231 457 289 457 q 165 438 192 457 l 154 472 q 243 528 233 521 q 286 579 281 554 q 246 607 292 607 q 153 546 183 607 l 117 567 q 260 653 172 653 q 332 581 347 653 q 302 529 328 556 q 251 493 276 503 q 322 397 340 479 m 556 132 l 599 338 q 507 238 553 304 q 451 132 464 176 l 556 132 m 653 86 l 594 86 l 576 0 l 528 0 l 546 86 l 390 86 q 483 276 411 179 q 661 397 569 394 l 604 132 l 665 132 l 653 86 z "},"¿":{"ha":401,"x_min":-39,"x_max":308,"o":"m 251 -169 q 100 -212 175 -212 q -10 -167 21 -212 q -26 -67 -39 -126 q 96 100 -10 7 q 194 243 179 172 q 199 288 200 268 l 246 288 q 243 239 249 267 q 134 81 228 165 q 28 -64 40 -4 q 119 -164 6 -164 q 239 -128 185 -164 l 251 -169 m 304 422 q 281 386 300 401 q 242 371 263 371 q 209 386 221 371 q 201 422 197 401 q 224 458 206 443 q 264 474 243 474 q 297 458 285 474 q 304 422 308 443 z "},"À":{"ha":556,"x_min":-60,"x_max":496,"o":"m 496 0 l 436 0 l 404 213 l 119 213 l 0 0 l -60 0 l 332 671 l 388 671 l 496 0 m 397 258 l 347 611 l 146 258 l 397 258 m 433 731 l 390 731 l 335 843 l 392 857 l 433 731 z "},"Á":{"ha":556,"x_min":-60,"x_max":496,"o":"m 496 0 l 436 0 l 404 213 l 119 213 l 0 0 l -60 0 l 332 671 l 388 671 l 496 0 m 397 258 l 347 611 l 146 258 l 397 258 m 353 731 l 310 731 l 407 857 l 458 843 l 353 731 z "},"Â":{"ha":556,"x_min":-60,"x_max":496,"o":"m 496 0 l 436 0 l 404 213 l 119 213 l 0 0 l -60 0 l 332 671 l 388 671 l 496 0 m 397 258 l 347 611 l 146 258 l 397 258 m 415 842 l 489 733 l 438 733 l 389 806 l 310 733 l 258 733 l 376 842 l 415 842 z "},"Ã":{"ha":556,"x_min":-60,"x_max":508,"o":"m 496 0 l 436 0 l 404 213 l 119 213 l 0 0 l -60 0 l 332 671 l 388 671 l 496 0 m 397 258 l 347 611 l 146 258 l 397 258 m 469 819 l 508 819 q 424 733 488 733 q 372 753 406 733 q 325 772 338 772 q 289 728 301 772 l 253 728 q 333 817 275 817 q 383 796 351 817 q 436 775 415 775 q 469 819 460 775 z "},"Ä":{"ha":556,"x_min":-60,"x_max":514,"o":"m 496 0 l 436 0 l 404 213 l 119 213 l 0 0 l -60 0 l 332 671 l 388 671 l 496 0 m 397 258 l 347 611 l 146 258 l 397 258 m 338 775 q 319 745 333 757 q 286 733 304 733 q 258 745 268 733 q 253 775 249 757 q 272 806 257 793 q 304 818 286 818 q 332 806 322 818 q 338 775 342 793 m 510 775 q 491 745 506 757 q 458 733 476 733 q 431 745 440 733 q 425 775 421 757 q 444 806 429 793 q 476 818 458 818 q 504 806 494 818 q 510 775 514 793 z "},"Å":{"ha":556,"x_min":-60,"x_max":499,"o":"m 496 0 l 436 0 l 404 213 l 119 213 l 0 0 l -60 0 l 332 671 l 388 671 l 496 0 m 397 258 l 347 611 l 146 258 l 397 258 m 489 800 q 444 730 481 760 q 365 700 408 700 q 301 730 325 700 q 286 800 278 760 q 332 874 296 843 q 408 904 368 904 q 475 874 451 904 q 489 800 499 843 m 449 799 q 440 842 454 825 q 400 860 426 860 q 355 842 375 860 q 329 799 335 825 q 337 758 324 775 q 375 742 350 742 q 422 758 401 742 q 449 799 443 775 z "},"Æ":{"ha":808,"x_min":-69,"x_max":819,"o":"m 696 0 l 399 0 l 417 272 l 189 272 l -12 0 l -69 0 l 425 661 l 819 661 l 810 615 l 493 615 l 474 371 l 742 371 l 732 325 l 471 325 l 454 46 l 706 46 l 696 0 m 419 317 l 447 622 l 221 317 l 419 317 z "},"Ç":{"ha":564,"x_min":11,"x_max":601,"o":"m 464 69 l 471 25 q 283 -10 390 -10 q 80 87 149 -10 q 42 332 11 183 q 183 576 74 481 q 428 671 293 671 q 601 636 535 671 l 575 592 q 421 624 507 624 q 222 544 314 624 q 97 331 125 461 q 131 117 69 200 q 296 38 189 38 q 464 69 382 38 m 279 -112 q 165 -193 263 -193 q 104 -175 133 -193 l 124 -144 q 174 -158 150 -158 q 235 -119 226 -158 q 157 -78 243 -85 l 228 6 l 272 6 l 224 -47 q 279 -112 290 -64 z "},"È":{"ha":488,"x_min":15,"x_max":515,"o":"m 375 0 l 15 0 l 156 661 l 515 661 l 506 615 l 200 615 l 147 372 l 419 372 l 410 326 l 138 326 l 79 46 l 385 46 l 375 0 m 400 731 l 357 731 l 301 843 l 358 857 l 400 731 z "},"É":{"ha":488,"x_min":15,"x_max":515,"o":"m 375 0 l 15 0 l 156 661 l 515 661 l 506 615 l 200 615 l 147 372 l 419 372 l 410 326 l 138 326 l 79 46 l 385 46 l 375 0 m 319 731 l 276 731 l 374 857 l 425 843 l 319 731 z "},"Ê":{"ha":488,"x_min":15,"x_max":515,"o":"m 375 0 l 15 0 l 156 661 l 515 661 l 506 615 l 200 615 l 147 372 l 419 372 l 410 326 l 138 326 l 79 46 l 385 46 l 375 0 m 381 842 l 454 733 l 403 733 l 354 806 l 275 733 l 224 733 l 342 842 l 381 842 z "},"Ë":{"ha":488,"x_min":15,"x_max":515,"o":"m 375 0 l 15 0 l 156 661 l 515 661 l 506 615 l 200 615 l 147 372 l 419 372 l 410 326 l 138 326 l 79 46 l 385 46 l 375 0 m 304 775 q 285 745 300 757 q 253 733 271 733 q 225 745 235 733 q 219 775 215 757 q 238 806 224 793 q 271 818 253 818 q 299 806 289 818 q 304 775 308 793 m 476 775 q 458 745 472 757 q 425 733 443 733 q 397 745 407 733 q 392 775 388 757 q 410 806 396 793 q 443 818 425 818 q 471 806 461 818 q 476 775 481 793 z "},"Ì":{"ha":204,"x_min":15,"x_max":258,"o":"m 69 0 l 15 0 l 156 661 l 210 661 l 69 0 m 258 731 l 215 731 l 160 843 l 217 857 l 258 731 z "},"Í":{"ha":204,"x_min":15,"x_max":283,"o":"m 69 0 l 15 0 l 156 661 l 210 661 l 69 0 m 178 731 l 135 731 l 232 857 l 283 843 l 178 731 z "},"Î":{"ha":204,"x_min":15,"x_max":322,"o":"m 69 0 l 15 0 l 156 661 l 210 661 l 69 0 m 249 842 l 322 733 l 271 733 l 222 806 l 143 733 l 92 733 l 210 842 l 249 842 z "},"Ï":{"ha":204,"x_min":15,"x_max":347,"o":"m 69 0 l 15 0 l 156 661 l 210 661 l 69 0 m 171 775 q 152 745 167 757 q 119 733 138 733 q 92 745 101 733 q 86 775 82 757 q 105 806 90 793 q 138 818 119 818 q 165 806 156 818 q 171 775 175 793 m 343 775 q 324 745 339 757 q 292 733 310 733 q 264 745 274 733 q 258 775 254 757 q 277 806 263 793 q 310 818 292 818 q 338 806 328 818 q 343 775 347 793 z "},"Ð":{"ha":599,"x_min":10,"x_max":603,"o":"m 571 344 q 183 -6 497 -6 q 17 7 142 -6 l 78 296 l 10 296 l 19 342 l 88 342 l 153 651 q 354 668 285 668 q 542 583 481 668 q 571 344 603 494 m 517 344 q 492 551 544 476 q 340 621 443 621 q 199 610 297 621 l 142 342 l 375 342 l 365 296 l 132 296 l 79 50 q 210 42 147 42 q 404 122 322 42 q 517 344 486 201 z "},"Ñ":{"ha":613,"x_min":15,"x_max":618,"o":"m 478 0 l 421 0 l 194 585 l 71 0 l 15 0 l 156 661 l 218 661 l 442 85 l 565 661 l 618 661 l 478 0 m 499 819 l 538 819 q 453 733 517 733 q 401 753 435 733 q 354 772 367 772 q 318 728 331 772 l 282 728 q 363 817 304 817 q 413 796 381 817 q 465 775 444 775 q 499 819 489 775 z "},"Ò":{"ha":675,"x_min":8,"x_max":686,"o":"m 654 329 q 516 83 622 181 q 274 -14 410 -14 q 73 83 138 -14 q 40 329 8 181 q 178 575 72 478 q 419 672 283 672 q 621 575 556 672 q 654 329 686 478 m 600 329 q 574 538 626 451 q 410 625 521 625 q 210 538 299 625 q 94 329 121 451 q 121 120 68 207 q 285 33 174 33 q 485 120 396 33 q 600 329 574 207 m 493 731 l 450 731 l 394 843 l 451 857 l 493 731 z "},"Ó":{"ha":675,"x_min":8,"x_max":686,"o":"m 654 329 q 516 83 622 181 q 274 -14 410 -14 q 73 83 138 -14 q 40 329 8 181 q 178 575 72 478 q 419 672 283 672 q 621 575 556 672 q 654 329 686 478 m 600 329 q 574 538 626 451 q 410 625 521 625 q 210 538 299 625 q 94 329 121 451 q 121 120 68 207 q 285 33 174 33 q 485 120 396 33 q 600 329 574 207 m 413 731 l 369 731 l 467 857 l 518 843 l 413 731 z "},"Ô":{"ha":675,"x_min":8,"x_max":686,"o":"m 654 329 q 516 83 622 181 q 274 -14 410 -14 q 73 83 138 -14 q 40 329 8 181 q 178 575 72 478 q 419 672 283 672 q 621 575 556 672 q 654 329 686 478 m 600 329 q 574 538 626 451 q 410 625 521 625 q 210 538 299 625 q 94 329 121 451 q 121 120 68 207 q 285 33 174 33 q 485 120 396 33 q 600 329 574 207 m 475 842 l 549 733 l 497 733 l 449 806 l 369 733 l 318 733 l 436 842 l 475 842 z "},"Õ":{"ha":675,"x_min":8,"x_max":686,"o":"m 654 329 q 516 83 622 181 q 274 -14 410 -14 q 73 83 138 -14 q 40 329 8 181 q 178 575 72 478 q 419 672 283 672 q 621 575 556 672 q 654 329 686 478 m 600 329 q 574 538 626 451 q 410 625 521 625 q 210 538 299 625 q 94 329 121 451 q 121 120 68 207 q 285 33 174 33 q 485 120 396 33 q 600 329 574 207 m 529 819 l 568 819 q 483 733 547 733 q 431 753 465 733 q 385 772 397 772 q 349 728 361 772 l 313 728 q 393 817 335 817 q 443 796 411 817 q 496 775 475 775 q 529 819 519 775 z "},"Ö":{"ha":675,"x_min":8,"x_max":686,"o":"m 654 329 q 516 83 622 181 q 274 -14 410 -14 q 73 83 138 -14 q 40 329 8 181 q 178 575 72 478 q 419 672 283 672 q 621 575 556 672 q 654 329 686 478 m 600 329 q 574 538 626 451 q 410 625 521 625 q 210 538 299 625 q 94 329 121 451 q 121 120 68 207 q 285 33 174 33 q 485 120 396 33 q 600 329 574 207 m 397 775 q 378 745 393 757 q 346 733 364 733 q 318 745 328 733 q 313 775 308 757 q 331 806 317 793 q 364 818 346 818 q 392 806 382 818 q 397 775 401 793 m 569 775 q 551 745 565 757 q 518 733 536 733 q 490 745 500 733 q 485 775 481 757 q 503 806 489 793 q 536 818 518 818 q 564 806 554 818 q 569 775 574 793 z "},"×":{"ha":571,"x_min":15,"x_max":536,"o":"m 411 15 l 268 207 l 44 15 l 15 49 l 239 242 l 97 435 l 140 468 l 283 276 l 507 468 l 536 435 l 311 242 l 454 49 l 411 15 z "},"Ø":{"ha":675,"x_min":8,"x_max":686,"o":"m 654 329 q 516 83 622 181 q 274 -14 410 -14 q 151 11 203 -14 l 115 -40 l 63 -40 l 115 35 q 72 83 92 56 q 40 329 8 181 q 178 575 72 478 q 419 672 283 672 q 543 644 490 672 l 571 685 l 628 685 l 581 619 q 619 575 603 600 q 654 329 686 478 m 511 600 q 410 625 468 625 q 210 538 299 625 q 94 329 121 451 q 121 119 68 207 q 149 83 133 99 l 511 600 m 600 329 q 574 538 626 451 q 547 571 563 557 l 183 57 q 285 33 226 33 q 485 120 396 33 q 600 329 574 207 z "},"Ù":{"ha":647,"x_min":13,"x_max":653,"o":"m 571 279 q 261 -12 510 -12 q 74 279 13 -12 l 156 661 l 210 661 l 128 281 q 142 92 100 150 q 271 33 183 33 q 425 92 360 33 q 517 281 490 150 l 599 661 l 653 661 l 571 279 m 456 731 l 413 731 l 357 843 l 414 857 l 456 731 z "},"Ú":{"ha":647,"x_min":13,"x_max":653,"o":"m 571 279 q 261 -12 510 -12 q 74 279 13 -12 l 156 661 l 210 661 l 128 281 q 142 92 100 150 q 271 33 183 33 q 425 92 360 33 q 517 281 490 150 l 599 661 l 653 661 l 571 279 m 413 731 l 369 731 l 467 857 l 518 843 l 413 731 z "},"Û":{"ha":647,"x_min":13,"x_max":653,"o":"m 571 279 q 261 -12 510 -12 q 74 279 13 -12 l 156 661 l 210 661 l 128 281 q 142 92 100 150 q 271 33 183 33 q 425 92 360 33 q 517 281 490 150 l 599 661 l 653 661 l 571 279 m 461 842 l 535 733 l 483 733 l 435 806 l 356 733 l 304 733 l 422 842 l 461 842 z "},"Ü":{"ha":647,"x_min":13,"x_max":653,"o":"m 571 279 q 261 -12 510 -12 q 74 279 13 -12 l 156 661 l 210 661 l 128 281 q 142 92 100 150 q 271 33 183 33 q 425 92 360 33 q 517 281 490 150 l 599 661 l 653 661 l 571 279 m 383 775 q 365 745 379 757 q 332 733 350 733 q 304 745 314 733 q 299 775 294 757 q 317 806 303 793 q 350 818 332 818 q 378 806 368 818 q 383 775 388 793 m 556 775 q 537 745 551 757 q 504 733 522 733 q 476 745 486 733 q 471 775 467 757 q 490 806 475 793 q 522 818 504 818 q 550 806 540 818 q 556 775 560 793 z "},"Ý":{"ha":508,"x_min":81,"x_max":589,"o":"m 589 661 l 282 292 l 221 0 l 168 0 l 229 290 l 81 661 l 143 661 l 265 338 l 526 661 l 589 661 m 350 731 l 307 731 l 404 857 l 456 843 l 350 731 z "},"Þ":{"ha":528,"x_min":24,"x_max":522,"o":"m 504 364 q 401 206 482 260 q 199 153 319 153 q 111 164 164 153 l 76 0 l 24 0 l 164 661 l 217 661 l 189 531 q 306 546 250 546 q 457 501 399 546 q 504 364 522 450 m 451 357 q 418 469 467 431 q 296 501 376 501 q 178 482 244 501 l 121 213 q 211 197 168 197 q 374 240 311 197 q 451 357 436 282 z "},"ß":{"ha":544,"x_min":-43,"x_max":514,"o":"m 464 142 q 399 32 450 74 q 264 -12 344 -12 q 151 15 196 -12 l 178 61 q 275 33 225 33 q 367 62 331 33 q 413 133 403 90 q 365 242 422 181 q 318 357 307 304 q 383 440 326 394 q 446 513 440 485 q 349 626 469 626 q 163 399 210 626 l 61 -75 q 3 -206 46 -150 l -43 -192 q 7 -75 -6 -137 l 113 422 q 369 676 167 676 q 476 633 439 676 q 497 515 514 589 q 432 422 486 460 q 371 353 378 385 q 404 289 367 329 q 447 235 442 249 q 464 142 474 186 z "},"à":{"ha":553,"x_min":22,"x_max":514,"o":"m 444 96 q 449 1 432 40 l 394 -10 q 388 86 379 40 q 192 -14 311 -14 q 67 33 111 -14 q 22 157 22 79 q 101 376 22 279 q 304 481 185 481 q 514 411 428 482 l 444 96 m 411 199 l 454 388 q 311 436 383 436 q 139 346 210 435 q 75 164 75 263 q 110 66 75 103 q 210 29 146 29 q 338 80 281 29 q 411 199 396 131 m 390 542 l 347 542 l 292 654 l 349 668 l 390 542 z "},"á":{"ha":553,"x_min":22,"x_max":514,"o":"m 444 96 q 449 1 432 40 l 394 -10 q 388 86 379 40 q 192 -14 311 -14 q 67 33 111 -14 q 22 157 22 79 q 101 376 22 279 q 304 481 185 481 q 514 411 428 482 l 444 96 m 411 199 l 454 388 q 311 436 383 436 q 139 346 210 435 q 75 164 75 263 q 110 66 75 103 q 210 29 146 29 q 338 80 281 29 q 411 199 396 131 m 364 542 l 321 542 l 418 668 l 469 654 l 364 542 z "},"â":{"ha":553,"x_min":22,"x_max":514,"o":"m 444 96 q 449 1 432 40 l 394 -10 q 388 86 379 40 q 192 -14 311 -14 q 67 33 111 -14 q 22 157 22 79 q 101 376 22 279 q 304 481 185 481 q 514 411 428 482 l 444 96 m 411 199 l 454 388 q 311 436 383 436 q 139 346 210 435 q 75 164 75 263 q 110 66 75 103 q 210 29 146 29 q 338 80 281 29 q 411 199 396 131 m 413 653 l 486 544 l 435 544 l 386 617 l 307 544 l 256 544 l 374 653 l 413 653 z "},"ã":{"ha":553,"x_min":22,"x_max":514,"o":"m 444 96 q 449 1 432 40 l 394 -10 q 388 86 379 40 q 192 -14 311 -14 q 67 33 111 -14 q 22 157 22 79 q 101 376 22 279 q 304 481 185 481 q 514 411 428 482 l 444 96 m 411 199 l 454 388 q 311 436 383 436 q 139 346 210 435 q 75 164 75 263 q 110 66 75 103 q 210 29 146 29 q 338 80 281 29 q 411 199 396 131 m 464 631 l 503 631 q 418 544 482 544 q 366 564 400 544 q 319 583 332 583 q 283 539 296 583 l 247 539 q 328 628 269 628 q 378 607 346 628 q 431 586 410 586 q 464 631 454 586 z "},"ä":{"ha":553,"x_min":22,"x_max":515,"o":"m 444 96 q 449 1 432 40 l 394 -10 q 388 86 379 40 q 192 -14 311 -14 q 67 33 111 -14 q 22 157 22 79 q 101 376 22 279 q 304 481 185 481 q 514 411 428 482 l 444 96 m 411 199 l 454 388 q 311 436 383 436 q 139 346 210 435 q 75 164 75 263 q 110 66 75 103 q 210 29 146 29 q 338 80 281 29 q 411 199 396 131 m 339 586 q 320 556 335 568 q 288 544 306 544 q 260 556 269 544 q 254 586 250 568 q 273 617 258 604 q 306 629 288 629 q 333 617 324 629 q 339 586 343 604 m 511 586 q 492 556 507 568 q 460 544 478 544 q 432 556 442 544 q 426 586 422 568 q 445 617 431 604 q 478 629 460 629 q 506 617 496 629 q 511 586 515 604 z "},"å":{"ha":553,"x_min":22,"x_max":514,"o":"m 444 96 q 449 1 432 40 l 394 -10 q 388 86 379 40 q 192 -14 311 -14 q 67 33 111 -14 q 22 157 22 79 q 101 376 22 279 q 304 481 185 481 q 514 411 428 482 l 444 96 m 411 199 l 454 388 q 311 436 383 436 q 139 346 210 435 q 75 164 75 263 q 110 66 75 103 q 210 29 146 29 q 338 80 281 29 q 411 199 396 131 m 501 611 q 457 541 493 571 q 378 511 421 511 q 314 541 338 511 q 299 611 290 571 q 344 685 308 654 q 421 715 381 715 q 488 685 464 715 q 501 611 511 654 m 461 610 q 453 653 467 636 q 413 671 439 671 q 367 653 388 671 q 342 610 347 636 q 349 569 336 586 q 388 553 363 553 q 435 569 414 553 q 461 610 456 586 z "},"æ":{"ha":844,"x_min":-11,"x_max":828,"o":"m 718 67 l 713 21 q 531 -12 625 -12 q 344 108 388 -12 q 124 -12 281 -12 q 26 22 63 -12 q 1 118 -11 57 q 346 294 39 294 l 354 294 l 356 303 q 351 383 365 349 q 256 439 332 439 q 99 407 207 439 l 101 457 q 268 482 185 482 q 411 376 396 482 q 629 482 500 482 q 779 233 828 482 l 393 233 q 419 87 376 139 q 546 35 461 35 q 718 67 629 35 m 333 199 l 343 247 q 60 128 85 247 q 73 58 50 82 q 138 33 96 33 q 247 65 199 33 q 333 199 314 108 m 406 276 l 738 276 q 726 378 749 333 q 614 439 699 439 q 476 383 538 439 q 406 276 428 339 z "},"ç":{"ha":460,"x_min":3,"x_max":468,"o":"m 367 65 l 378 21 q 225 -12 311 -12 q 56 55 108 -12 q 26 235 3 122 q 132 415 51 347 q 329 482 213 482 q 468 449 415 482 l 439 404 q 317 438 394 438 q 166 383 232 438 q 79 235 100 329 q 103 86 60 140 q 231 32 146 32 q 367 65 308 32 m 228 -101 q 125 -174 213 -174 q 70 -158 96 -174 l 87 -130 q 133 -143 111 -143 q 188 -108 180 -143 q 118 -70 195 -76 l 181 5 l 221 5 l 178 -43 q 228 -101 238 -58 z "},"è":{"ha":519,"x_min":18,"x_max":478,"o":"m 478 351 q 196 186 478 186 q 75 192 144 186 q 74 171 74 181 q 232 35 74 35 q 404 67 313 35 l 399 21 q 217 -12 311 -12 q 72 36 126 -12 q 18 167 18 85 q 111 393 18 299 q 315 482 200 482 q 478 351 478 482 m 429 353 q 315 439 429 439 q 175 382 244 439 q 78 236 101 321 q 179 232 135 232 q 429 353 429 232 m 375 542 l 332 542 l 276 654 l 333 668 l 375 542 z "},"é":{"ha":519,"x_min":18,"x_max":478,"o":"m 478 351 q 196 186 478 186 q 75 192 144 186 q 74 171 74 181 q 232 35 74 35 q 404 67 313 35 l 399 21 q 217 -12 311 -12 q 72 36 126 -12 q 18 167 18 85 q 111 393 18 299 q 315 482 200 482 q 478 351 478 482 m 429 353 q 315 439 429 439 q 175 382 244 439 q 78 236 101 321 q 179 232 135 232 q 429 353 429 232 m 294 542 l 251 542 l 349 668 l 400 654 l 294 542 z "},"ê":{"ha":519,"x_min":18,"x_max":478,"o":"m 478 351 q 196 186 478 186 q 75 192 144 186 q 74 171 74 181 q 232 35 74 35 q 404 67 313 35 l 399 21 q 217 -12 311 -12 q 72 36 126 -12 q 18 167 18 85 q 111 393 18 299 q 315 482 200 482 q 478 351 478 482 m 429 353 q 315 439 429 439 q 175 382 244 439 q 78 236 101 321 q 179 232 135 232 q 429 353 429 232 m 357 653 l 431 544 l 379 544 l 331 617 l 251 544 l 200 544 l 318 653 l 357 653 z "},"ë":{"ha":519,"x_min":18,"x_max":478,"o":"m 478 351 q 196 186 478 186 q 75 192 144 186 q 74 171 74 181 q 232 35 74 35 q 404 67 313 35 l 399 21 q 217 -12 311 -12 q 72 36 126 -12 q 18 167 18 85 q 111 393 18 299 q 315 482 200 482 q 478 351 478 482 m 429 353 q 315 439 429 439 q 175 382 244 439 q 78 236 101 321 q 179 232 135 232 q 429 353 429 232 m 279 586 q 260 556 275 568 q 228 544 246 544 q 200 556 210 544 q 194 586 190 568 q 213 617 199 604 q 246 629 228 629 q 274 617 264 629 q 279 586 283 604 m 451 586 q 433 556 447 568 q 400 544 418 544 q 372 556 382 544 q 367 586 363 568 q 385 617 371 604 q 418 629 400 629 q 446 617 436 629 q 451 586 456 604 z "},"ì":{"ha":199,"x_min":13,"x_max":215,"o":"m 65 0 l 13 0 l 113 472 l 165 472 l 65 0 m 215 542 l 172 542 l 117 654 l 174 668 l 215 542 z "},"í":{"ha":199,"x_min":13,"x_max":240,"o":"m 65 0 l 13 0 l 113 472 l 165 472 l 65 0 m 135 542 l 92 542 l 189 668 l 240 654 l 135 542 z "},"î":{"ha":199,"x_min":13,"x_max":279,"o":"m 65 0 l 13 0 l 113 472 l 165 472 l 65 0 m 206 653 l 279 544 l 228 544 l 179 617 l 100 544 l 49 544 l 167 653 l 206 653 z "},"ï":{"ha":199,"x_min":13,"x_max":304,"o":"m 65 0 l 13 0 l 113 472 l 165 472 l 65 0 m 128 586 q 109 556 124 568 q 76 544 94 544 q 49 556 58 544 q 43 586 39 568 q 62 617 47 604 q 94 629 76 629 q 122 617 113 629 q 128 586 132 604 m 300 586 q 281 556 296 568 q 249 544 267 544 q 221 556 231 544 q 215 586 211 568 q 234 617 219 604 q 267 629 249 629 q 294 617 285 629 q 300 586 304 604 z "},"ð":{"ha":503,"x_min":15,"x_max":471,"o":"m 435 226 q 349 58 414 125 q 178 -17 276 -17 q 53 44 90 -17 q 33 196 15 106 q 117 346 53 283 q 264 408 182 408 q 361 381 322 408 q 390 339 388 358 q 314 528 382 447 l 178 451 l 161 489 l 285 558 q 165 626 232 606 l 179 667 q 336 588 274 647 l 456 656 l 471 618 l 365 557 q 397 511 383 536 q 435 226 469 386 m 372 196 q 356 314 388 265 q 265 363 325 363 q 152 314 200 363 q 89 196 104 265 q 101 79 75 128 q 194 31 128 31 q 306 79 254 31 q 372 196 358 128 z "},"ñ":{"ha":542,"x_min":13,"x_max":511,"o":"m 431 96 q 435 1 419 38 l 381 -10 q 375 83 365 38 l 413 268 q 306 438 447 438 q 194 390 249 438 q 126 286 139 342 l 67 0 l 13 0 l 92 375 q 88 469 103 433 l 142 481 q 147 388 157 433 q 326 482 221 482 q 467 268 511 482 l 431 96 m 422 631 l 461 631 q 376 544 440 544 q 324 564 358 544 q 278 583 290 583 q 242 539 254 583 l 206 539 q 286 628 228 628 q 336 607 304 628 q 389 586 368 586 q 422 631 413 586 z "},"ò":{"ha":553,"x_min":6,"x_max":525,"o":"m 503 235 q 400 58 481 131 q 213 -14 319 -14 q 56 58 106 -14 q 28 235 6 131 q 131 410 50 339 q 318 482 211 482 q 475 410 425 482 q 503 235 525 339 m 450 235 q 429 378 469 321 q 308 436 389 436 q 164 378 228 436 q 81 235 100 321 q 102 90 63 149 q 222 32 142 32 q 367 90 303 32 q 450 235 432 149 m 393 542 l 350 542 l 294 654 l 351 668 l 393 542 z "},"ó":{"ha":553,"x_min":6,"x_max":525,"o":"m 503 235 q 400 58 481 131 q 213 -14 319 -14 q 56 58 106 -14 q 28 235 6 131 q 131 410 50 339 q 318 482 211 482 q 475 410 425 482 q 503 235 525 339 m 450 235 q 429 378 469 321 q 308 436 389 436 q 164 378 228 436 q 81 235 100 321 q 102 90 63 149 q 222 32 142 32 q 367 90 303 32 q 450 235 432 149 m 311 542 l 268 542 l 365 668 l 417 654 l 311 542 z "},"ô":{"ha":553,"x_min":6,"x_max":525,"o":"m 503 235 q 400 58 481 131 q 213 -14 319 -14 q 56 58 106 -14 q 28 235 6 131 q 131 410 50 339 q 318 482 211 482 q 475 410 425 482 q 503 235 525 339 m 450 235 q 429 378 469 321 q 308 436 389 436 q 164 378 228 436 q 81 235 100 321 q 102 90 63 149 q 222 32 142 32 q 367 90 303 32 q 450 235 432 149 m 374 653 l 447 544 l 396 544 l 347 617 l 268 544 l 217 544 l 335 653 l 374 653 z "},"õ":{"ha":553,"x_min":6,"x_max":525,"o":"m 503 235 q 400 58 481 131 q 213 -14 319 -14 q 56 58 106 -14 q 28 235 6 131 q 131 410 50 339 q 318 482 211 482 q 475 410 425 482 q 503 235 525 339 m 450 235 q 429 378 469 321 q 308 436 389 436 q 164 378 228 436 q 81 235 100 321 q 102 90 63 149 q 222 32 142 32 q 367 90 303 32 q 450 235 432 149 m 428 631 l 467 631 q 382 544 446 544 q 330 564 364 544 q 283 583 296 583 q 247 539 260 583 l 211 539 q 292 628 233 628 q 342 607 310 628 q 394 586 374 586 q 428 631 418 586 z "},"ö":{"ha":553,"x_min":6,"x_max":525,"o":"m 503 235 q 400 58 481 131 q 213 -14 319 -14 q 56 58 106 -14 q 28 235 6 131 q 131 410 50 339 q 318 482 211 482 q 475 410 425 482 q 503 235 525 339 m 450 235 q 429 378 469 321 q 308 436 389 436 q 164 378 228 436 q 81 235 100 321 q 102 90 63 149 q 222 32 142 32 q 367 90 303 32 q 450 235 432 149 m 296 586 q 277 556 292 568 q 244 544 263 544 q 217 556 226 544 q 211 586 207 568 q 230 617 215 604 q 263 629 244 629 q 290 617 281 629 q 296 586 300 604 m 468 586 q 449 556 464 568 q 417 544 435 544 q 389 556 399 544 q 383 586 379 568 q 402 617 388 604 q 435 629 417 629 q 463 617 453 629 q 468 586 472 604 z "},"÷":{"ha":571,"x_min":42,"x_max":517,"o":"m 361 419 q 341 385 357 400 q 306 371 325 371 q 276 385 285 371 q 271 419 267 400 q 292 453 276 439 q 326 467 307 467 q 356 453 346 467 q 361 419 365 439 m 288 82 q 268 49 283 63 q 233 35 253 35 q 203 49 213 35 q 199 82 194 63 q 218 116 203 101 q 254 131 233 131 q 283 116 274 131 q 288 82 292 101 m 507 229 l 42 229 l 51 275 l 517 275 l 507 229 z "},"ø":{"ha":553,"x_min":1,"x_max":533,"o":"m 503 235 q 400 58 481 131 q 213 -14 319 -14 q 103 14 151 -14 l 57 -40 l 1 -40 l 69 42 q 28 235 3 113 q 131 410 50 339 q 318 482 211 482 q 415 461 368 482 l 474 532 l 533 532 l 453 436 q 503 235 531 365 m 450 235 q 418 393 472 333 l 138 56 q 222 32 172 32 q 367 90 303 32 q 450 235 432 149 m 104 85 l 382 419 q 308 436 350 436 q 164 378 228 436 q 81 235 100 321 q 104 85 63 144 z "},"ù":{"ha":542,"x_min":10,"x_max":510,"o":"m 433 1 l 379 -10 q 376 82 372 38 q 179 -12 296 -12 q 56 207 10 -12 l 92 375 q 88 469 103 433 l 142 481 q 149 388 157 433 l 113 217 q 201 35 74 35 q 318 74 261 35 q 394 186 381 118 l 456 472 l 510 472 l 433 115 q 433 1 422 64 m 363 542 l 319 542 l 264 654 l 321 668 l 363 542 z "},"ú":{"ha":542,"x_min":10,"x_max":510,"o":"m 433 1 l 379 -10 q 376 82 372 38 q 179 -12 296 -12 q 56 207 10 -12 l 92 375 q 88 469 103 433 l 142 481 q 149 388 157 433 l 113 217 q 201 35 74 35 q 318 74 261 35 q 394 186 381 118 l 456 472 l 510 472 l 433 115 q 433 1 422 64 m 306 542 l 263 542 l 360 668 l 411 654 l 306 542 z "},"û":{"ha":542,"x_min":10,"x_max":510,"o":"m 433 1 l 379 -10 q 376 82 372 38 q 179 -12 296 -12 q 56 207 10 -12 l 92 375 q 88 469 103 433 l 142 481 q 149 388 157 433 l 113 217 q 201 35 74 35 q 318 74 261 35 q 394 186 381 118 l 456 472 l 510 472 l 433 115 q 433 1 422 64 m 368 653 l 442 544 l 390 544 l 342 617 l 263 544 l 211 544 l 329 653 l 368 653 z "},"ü":{"ha":542,"x_min":10,"x_max":510,"o":"m 433 1 l 379 -10 q 376 82 372 38 q 179 -12 296 -12 q 56 207 10 -12 l 92 375 q 88 469 103 433 l 142 481 q 149 388 157 433 l 113 217 q 201 35 74 35 q 318 74 261 35 q 394 186 381 118 l 456 472 l 510 472 l 433 115 q 433 1 422 64 m 290 586 q 272 556 286 568 q 239 544 257 544 q 211 556 221 544 q 206 586 201 568 q 224 617 210 604 q 257 629 239 629 q 285 617 275 629 q 290 586 294 604 m 463 586 q 444 556 458 568 q 411 544 429 544 q 383 556 393 544 q 378 586 374 568 q 397 617 382 604 q 429 629 411 629 q 457 617 447 629 q 463 586 467 604 z "},"ý":{"ha":468,"x_min":-71,"x_max":504,"o":"m 196 0 q -68 -217 74 -185 l -71 -174 q 147 15 51 -147 q 146 32 147 19 l 44 472 l 103 472 l 194 72 l 444 472 l 504 472 l 196 0 m 269 542 l 226 542 l 324 668 l 375 654 l 269 542 z "},"þ":{"ha":600,"x_min":-15,"x_max":569,"o":"m 549 244 q 436 53 522 124 q 253 -12 356 -12 q 93 74 139 -12 l 36 -194 l -15 -194 l 163 653 l 215 653 l 160 386 q 372 482 250 482 q 522 411 472 482 q 549 244 569 344 m 497 243 q 476 383 515 328 q 354 439 438 439 q 157 324 228 439 q 135 268 140 296 l 117 186 q 115 144 114 172 q 165 65 125 97 q 267 33 206 33 q 413 89 349 33 q 497 243 476 144 z "},"ÿ":{"ha":468,"x_min":-71,"x_max":504,"o":"m 196 0 q -68 -217 74 -185 l -71 -174 q 147 15 51 -147 q 146 32 147 19 l 44 472 l 103 472 l 194 72 l 444 472 l 504 472 l 196 0 m 254 586 q 235 556 250 568 q 203 544 221 544 q 175 556 185 544 q 169 586 165 568 q 188 617 174 604 q 221 629 203 629 q 249 617 239 629 q 254 586 258 604 m 426 586 q 408 556 422 568 q 375 544 393 544 q 347 556 357 544 q 342 586 338 568 q 360 617 346 604 q 393 629 375 629 q 421 617 411 629 q 426 586 431 604 z "},"ı":{"ha":199,"x_min":13,"x_max":165,"o":"m 65 0 l 13 0 l 113 472 l 165 472 l 65 0 z "},"Ł":{"ha":501,"x_min":24,"x_max":469,"o":"m 403 0 l 24 0 l 81 269 l 32 256 l 28 299 l 90 317 l 164 661 l 218 661 l 149 335 l 469 431 l 460 379 l 138 288 l 88 46 l 413 46 l 403 0 z "},"ł":{"ha":290,"x_min":22,"x_max":269,"o":"m 269 372 l 260 324 l 138 286 l 132 258 q 119 111 110 156 q 211 38 131 40 l 196 -10 q 74 238 22 -1 l 81 269 l 32 256 l 28 299 l 90 317 l 172 701 l 226 701 l 149 335 l 269 372 z "},"Œ":{"ha":988,"x_min":8,"x_max":1015,"o":"m 885 46 l 875 0 l 515 0 l 536 103 q 274 -14 424 -14 q 73 83 138 -14 q 40 329 8 181 q 178 575 72 478 q 419 672 283 672 q 633 556 569 672 l 656 661 l 1015 661 l 1006 615 l 700 615 l 647 372 l 919 372 l 910 326 l 638 326 l 579 46 l 885 46 m 557 201 l 610 444 q 556 568 614 513 q 410 625 494 625 q 210 538 299 625 q 94 329 121 451 q 121 120 68 207 q 285 33 174 33 q 437 79 364 33 q 557 201 510 125 z "},"œ":{"ha":943,"x_min":6,"x_max":938,"o":"m 828 67 l 822 21 q 640 -12 735 -12 q 449 113 488 -12 q 213 -14 358 -14 q 56 58 106 -14 q 28 235 6 131 q 131 410 50 339 q 318 482 211 482 q 501 353 468 482 q 739 482 589 482 q 889 233 938 482 l 503 233 q 526 85 482 135 q 656 35 569 35 q 828 67 738 35 m 450 235 q 430 378 469 319 q 308 436 390 436 q 164 378 228 436 q 81 235 100 321 q 102 90 63 149 q 222 32 142 32 q 366 90 301 32 q 450 235 431 147 m 847 276 q 827 393 860 347 q 724 439 794 439 q 599 394 656 439 q 515 276 542 349 l 847 276 z "},"Š":{"ha":489,"x_min":-14,"x_max":492,"o":"m 421 172 q 340 47 404 97 q 157 -12 267 -12 q -14 38 49 -12 l 17 85 q 172 33 75 33 q 302 70 250 33 q 367 168 354 107 q 352 258 379 224 q 251 317 325 292 q 106 503 79 376 q 190 625 122 576 q 349 674 257 674 q 492 639 442 674 q 460 596 475 615 q 338 628 407 628 q 208 588 260 628 q 160 510 168 554 q 276 368 139 418 q 399 296 365 335 q 421 172 438 250 m 357 722 l 318 722 l 246 831 l 297 831 l 346 758 l 425 831 l 476 831 l 357 722 z "},"š":{"ha":392,"x_min":-14,"x_max":388,"o":"m 311 125 q 244 26 297 65 q 111 -12 192 -12 q -14 25 42 -12 l 15 69 q 125 33 75 33 q 260 121 242 33 q 172 222 274 189 q 72 350 53 261 q 133 443 83 404 q 256 482 182 482 q 365 450 329 482 l 335 406 q 238 439 300 439 q 163 415 193 439 q 125 357 132 392 q 214 264 114 301 q 311 125 331 221 m 268 533 l 229 533 l 157 642 l 208 642 l 257 569 l 336 642 l 388 642 l 268 533 z "},"Ÿ":{"ha":531,"x_min":90,"x_max":599,"o":"m 599 661 l 292 292 l 231 0 l 178 0 l 239 290 l 90 661 l 153 661 l 275 338 l 536 661 l 599 661 m 325 771 q 306 741 321 753 q 274 729 292 729 q 246 741 256 729 q 240 771 236 753 q 259 801 244 789 q 292 814 274 814 q 319 801 310 814 q 325 771 329 789 m 497 771 q 478 741 493 753 q 446 729 464 729 q 418 741 428 729 q 413 771 408 753 q 431 801 417 789 q 464 814 446 814 q 492 801 482 814 q 497 771 501 789 z "},"Ž":{"ha":589,"x_min":-29,"x_max":629,"o":"m 517 46 l 496 0 l -29 0 l -21 36 l 550 615 l 129 615 l 147 661 l 629 661 l 621 624 l 51 46 l 517 46 m 407 722 l 368 722 l 296 831 l 347 831 l 396 758 l 475 831 l 526 831 l 407 722 z "},"ž":{"ha":446,"x_min":-39,"x_max":463,"o":"m 358 0 l -39 0 l -31 33 l 385 428 l 68 428 l 86 472 l 463 472 l 453 435 l 38 44 l 378 44 l 358 0 m 294 533 l 256 533 l 183 642 l 235 642 l 283 569 l 363 642 l 414 642 l 294 533 z "},"ƒ":{"ha":553,"x_min":-99,"x_max":639,"o":"m 639 619 l 607 581 q 546 596 585 596 q 360 419 438 596 l 343 383 l 479 383 l 463 340 l 326 340 l 232 122 q -29 -100 136 -100 q -99 -78 -82 -100 l -67 -39 q -6 -54 -44 -54 q 178 122 101 -54 l 272 340 l 193 340 l 210 383 l 290 383 l 307 419 q 569 642 406 642 q 639 619 622 642 z "},"ˆ":{"ha":294,"x_min":128,"x_max":358,"o":"m 285 653 l 358 544 l 307 544 l 258 617 l 179 544 l 128 544 l 246 653 l 285 653 z "},"ˇ":{"ha":294,"x_min":108,"x_max":339,"o":"m 219 533 l 181 533 l 108 642 l 160 642 l 208 569 l 288 642 l 339 642 l 219 533 z "},"˘":{"ha":419,"x_min":197,"x_max":446,"o":"m 446 629 q 399 568 431 592 q 301 535 356 535 q 217 568 247 535 q 197 629 197 592 l 246 629 q 256 603 247 614 q 311 578 272 578 q 376 603 350 578 q 399 629 389 614 l 446 629 z "},"˙":{"ha":419,"x_min":257,"x_max":360,"o":"m 356 750 q 335 717 351 731 q 297 704 318 704 q 267 717 278 704 q 261 750 257 731 q 282 784 265 769 q 318 799 299 799 q 349 784 339 799 q 356 750 360 769 z "},"˚":{"ha":419,"x_min":215,"x_max":436,"o":"m 426 611 q 382 541 418 571 q 303 511 346 511 q 239 541 263 511 q 224 611 215 571 q 269 685 233 654 q 346 715 306 715 q 413 685 389 715 q 426 611 436 654 m 386 610 q 378 653 392 636 q 338 671 364 671 q 292 653 313 671 q 267 610 272 636 q 274 569 261 586 q 313 553 288 553 q 360 569 339 553 q 386 610 381 586 z "},"˛":{"ha":419,"x_min":17,"x_max":210,"o":"m 200 -199 q 148 -215 171 -210 q 101 -219 125 -219 q 34 -190 51 -219 q 25 -119 17 -160 q 44 -62 31 -94 q 76 6 58 -31 l 132 6 q 82 -106 92 -62 q 124 -169 69 -165 q 210 -149 165 -169 l 200 -199 z "},"˜":{"ha":294,"x_min":88,"x_max":343,"o":"m 343 635 q 310 574 333 599 q 256 549 288 549 q 230 555 243 549 q 203 568 217 561 q 178 581 190 575 q 157 588 167 588 q 137 575 146 588 q 122 543 128 563 l 88 543 q 115 604 96 576 q 165 632 133 632 q 192 626 179 632 q 217 611 204 619 q 242 597 229 603 q 269 590 254 590 q 290 601 279 590 q 307 635 300 611 l 343 635 z "},"˝":{"ha":388,"x_min":96,"x_max":411,"o":"m 254 458 l 217 458 l 346 682 l 411 682 l 254 458 m 133 458 l 96 458 l 225 682 l 290 682 l 133 458 z "},"฀":{"ha":0,"x_min":0,"x_max":0,"o":""},"ก":{"ha":536,"x_min":24,"x_max":494,"o":"m 408 47 q 342 -51 392 -18 l 303 -26 q 363 65 350 10 l 425 363 q 406 471 439 431 q 306 511 372 511 q 208 485 258 511 q 132 417 158 458 q 232 356 213 410 q 166 319 197 349 q 126 253 135 289 l 74 0 l 24 0 l 76 251 q 172 363 94 333 q 69 378 131 385 q 167 506 97 456 q 318 556 238 556 q 451 506 408 556 q 476 368 494 456 l 408 47 z "},"ข":{"ha":525,"x_min":42,"x_max":525,"o":"m 179 401 q 174 433 183 421 q 144 446 164 446 q 110 433 125 446 q 90 401 94 421 q 96 369 86 382 q 125 357 106 357 q 160 369 144 357 q 179 401 175 382 m 411 115 q 257 -11 385 -11 q 158 115 132 -11 l 186 247 q 242 342 194 282 q 296 435 289 401 q 281 491 303 467 q 219 515 258 515 q 118 475 158 515 q 151 481 132 481 q 206 458 188 481 q 217 400 224 435 q 181 340 208 364 q 117 315 153 315 q 58 347 74 315 q 51 425 42 379 q 110 516 61 476 q 229 556 158 556 q 323 525 290 556 q 344 442 356 494 q 289 336 336 401 q 235 240 242 271 l 208 111 q 268 33 192 33 q 361 111 344 33 l 446 510 q 486 593 457 563 l 525 568 q 492 492 506 551 l 411 115 z "},"ฃ":{"ha":531,"x_min":31,"x_max":531,"o":"m 172 346 q 167 378 176 365 q 138 390 157 390 q 103 378 118 390 q 83 346 88 365 q 90 314 79 326 q 119 301 100 301 q 153 314 139 301 q 172 346 168 326 m 417 115 q 263 -11 390 -11 q 164 115 138 -11 l 183 203 q 248 315 192 247 q 314 425 304 382 q 278 508 329 497 l 217 450 l 179 507 q 103 426 128 476 q 149 435 124 435 q 207 409 189 435 q 217 344 225 383 q 177 279 208 304 q 108 254 146 254 q 44 293 61 254 q 40 378 31 328 q 97 489 53 438 q 206 557 146 546 l 229 508 l 278 557 q 350 510 326 551 q 358 421 369 471 q 294 308 349 378 q 232 199 240 239 l 214 111 q 274 33 197 33 q 367 111 350 33 l 451 510 q 492 593 463 563 l 531 568 q 497 492 511 551 l 417 115 z "},"ค":{"ha":546,"x_min":31,"x_max":507,"o":"m 418 47 q 351 -51 401 -18 l 313 -26 q 372 65 360 10 l 438 374 q 410 476 451 440 q 306 511 368 511 q 184 467 242 511 q 114 360 126 424 q 108 286 107 329 q 111 217 111 225 q 182 351 140 296 q 299 424 238 424 q 351 401 333 424 q 361 342 369 379 q 324 283 353 307 q 261 258 296 258 q 204 292 225 258 q 147 208 179 263 q 99 90 110 142 l 81 0 l 31 0 l 57 128 q 59 242 65 168 q 61 354 53 315 q 153 500 81 444 q 318 556 226 556 q 455 510 403 556 q 488 378 507 465 l 418 47 m 322 342 q 316 372 326 360 q 288 385 306 385 q 255 372 269 385 q 236 342 240 360 q 242 311 232 324 q 269 299 251 299 q 303 311 288 299 q 322 342 318 324 z "},"ฅ":{"ha":546,"x_min":33,"x_max":518,"o":"m 418 47 q 351 -51 401 -18 l 313 -26 q 372 65 360 10 l 440 389 q 372 507 460 485 l 290 432 l 232 508 q 149 436 183 485 q 117 368 124 400 q 108 203 107 321 q 289 392 185 392 q 343 369 325 392 q 353 311 361 347 q 318 253 346 276 q 257 229 290 229 q 190 261 213 229 q 140 188 168 242 q 99 75 110 128 l 83 0 l 33 0 l 57 111 q 59 235 65 154 q 61 357 53 315 q 256 558 96 517 l 301 488 l 372 558 q 490 392 518 528 l 418 47 m 315 311 q 310 342 319 329 q 282 354 300 354 q 249 342 264 354 q 229 311 233 329 q 235 281 225 293 q 264 268 246 268 q 297 281 282 268 q 315 311 311 293 z "},"ฆ":{"ha":567,"x_min":31,"x_max":567,"o":"m 200 85 q 193 119 204 104 q 163 133 182 133 q 125 119 143 133 q 103 85 107 104 q 110 51 99 65 q 142 36 122 36 q 178 51 161 36 q 200 85 196 65 m 172 346 q 167 378 176 365 q 138 390 157 390 q 103 378 118 390 q 83 346 88 365 q 90 314 79 326 q 119 301 100 301 q 153 314 139 301 q 172 346 168 326 m 429 0 l 379 0 q 239 138 343 114 q 246 85 253 115 q 205 17 238 44 q 132 -11 172 -11 q 69 17 90 -11 q 56 85 47 44 q 99 152 65 125 q 172 179 132 179 l 178 179 l 183 203 q 248 315 192 247 q 314 425 304 382 q 278 508 329 497 l 217 450 l 179 507 q 103 426 128 476 q 149 435 124 435 q 207 409 189 435 q 217 344 225 383 q 177 279 208 304 q 108 254 146 254 q 44 293 61 254 q 40 378 31 328 q 97 489 53 438 q 206 557 146 546 l 229 508 l 278 557 q 348 513 326 551 q 358 421 369 475 q 294 308 349 378 q 232 199 240 239 l 228 178 q 394 75 349 164 l 488 510 q 528 593 499 563 l 567 568 q 533 492 547 551 l 429 0 z "},"ง":{"ha":408,"x_min":32,"x_max":376,"o":"m 324 465 q 317 499 328 485 q 286 513 306 513 q 250 499 267 513 q 229 465 233 485 q 235 432 225 446 q 265 418 246 418 q 302 432 285 418 q 324 465 319 446 m 271 0 l 221 0 l 54 244 q 32 304 38 271 l 65 344 q 97 267 74 304 l 235 71 l 301 382 q 256 372 279 372 q 197 399 218 372 q 183 463 176 426 q 224 529 192 503 q 296 556 257 556 q 360 526 340 556 q 368 463 376 500 l 271 0 z "},"จ":{"ha":510,"x_min":60,"x_max":490,"o":"m 390 90 q 271 -12 369 -12 q 197 65 193 -12 l 207 221 q 157 208 183 208 q 104 232 122 208 q 93 290 86 256 q 129 351 100 326 q 193 375 158 375 q 243 355 224 375 q 261 304 263 335 l 251 68 q 283 33 250 33 q 339 83 329 33 l 408 410 q 382 487 419 464 q 288 510 344 510 q 178 483 225 510 q 111 411 131 457 l 60 411 q 135 508 79 469 q 296 556 203 556 q 458 410 490 556 l 390 90 m 219 290 q 214 321 224 308 q 186 333 204 333 q 153 321 168 333 q 135 290 139 308 q 140 260 131 272 q 168 249 150 249 q 201 260 186 249 q 219 290 215 272 z "},"ฉ":{"ha":524,"x_min":26,"x_max":488,"o":"m 426 76 q 390 15 419 40 q 321 -10 361 -10 q 265 15 285 -10 q 253 76 246 40 q 258 94 256 89 q 118 0 172 61 l 56 0 l 82 129 q 106 190 90 169 l 100 190 q 46 215 65 190 q 33 274 26 239 q 71 334 42 310 q 135 358 100 358 q 190 334 171 358 q 201 274 210 310 q 168 208 196 247 q 135 138 140 168 l 115 49 q 288 147 175 115 q 392 267 375 183 l 422 406 q 389 485 432 454 q 294 510 351 510 q 192 485 242 510 q 114 408 135 456 l 63 408 q 139 508 79 467 q 301 556 208 556 q 438 519 392 556 q 471 404 488 479 l 442 264 q 382 160 428 197 q 426 76 440 140 m 386 76 q 380 109 390 96 q 350 122 369 122 q 315 109 332 122 q 294 76 299 96 q 301 44 290 58 q 331 31 313 31 q 366 44 350 31 q 386 76 382 58 m 160 274 q 155 303 164 292 q 128 315 146 315 q 95 303 110 315 q 76 274 81 292 q 83 244 74 256 q 110 232 92 232 q 142 244 128 232 q 160 274 157 256 z "},"ช":{"ha":528,"x_min":42,"x_max":582,"o":"m 414 115 q 258 -11 388 -11 q 158 115 132 -11 l 186 247 q 242 342 194 282 q 296 435 289 401 q 281 491 303 467 q 219 515 258 515 q 118 475 158 515 q 151 481 132 481 q 206 458 188 481 q 217 400 224 435 q 181 340 208 364 q 117 315 153 315 q 58 347 74 315 q 51 425 42 379 q 110 516 61 476 q 229 556 158 556 q 323 525 290 556 q 344 442 356 494 q 289 336 336 401 q 235 240 242 271 l 208 111 q 269 33 192 33 q 364 111 347 33 l 411 335 q 368 417 424 396 q 439 530 390 481 q 557 593 488 579 l 582 558 q 421 435 472 539 q 463 340 478 413 l 414 115 m 179 401 q 174 433 183 421 q 144 446 164 446 q 110 433 125 446 q 90 401 94 421 q 96 369 86 382 q 125 357 106 357 q 160 369 144 357 q 179 401 175 382 z "},"ซ":{"ha":533,"x_min":31,"x_max":588,"o":"m 172 346 q 167 378 176 365 q 138 390 157 390 q 103 378 118 390 q 83 346 88 365 q 90 314 79 326 q 119 301 100 301 q 153 314 139 301 q 172 346 168 326 m 419 115 q 264 -11 393 -11 q 164 115 138 -11 l 183 203 q 248 315 192 247 q 314 425 304 382 q 278 508 329 497 l 217 450 l 179 507 q 103 426 128 476 q 149 435 124 435 q 207 409 189 435 q 217 344 225 383 q 177 279 208 304 q 108 254 146 254 q 44 293 61 254 q 40 378 31 328 q 97 489 53 438 q 206 557 146 546 l 229 508 l 278 557 q 350 510 326 551 q 358 421 369 471 q 294 308 349 378 q 232 199 240 239 l 214 113 q 275 33 197 33 q 369 111 353 33 l 417 335 q 374 417 429 396 q 444 530 396 481 q 563 593 493 579 l 588 558 q 426 435 478 539 q 468 340 483 413 l 419 115 z "},"ฌ":{"ha":721,"x_min":18,"x_max":721,"o":"m 583 0 l 532 0 q 440 97 508 51 q 440 79 442 86 q 402 15 432 42 q 329 -12 372 -12 q 270 15 292 -12 q 257 79 249 42 q 294 142 264 115 q 360 171 324 168 l 401 368 q 289 511 432 511 q 199 484 244 511 q 129 415 153 457 q 228 354 206 410 q 162 318 193 347 q 122 253 131 289 l 104 165 q 138 171 118 171 q 196 144 175 171 q 210 79 217 117 q 170 15 201 42 q 99 -12 139 -12 q 38 15 58 -12 q 26 79 18 42 q 44 119 31 101 l 72 251 q 168 361 88 326 q 61 376 119 382 q 158 505 90 454 q 301 556 225 556 q 430 508 389 556 q 453 374 471 460 l 408 165 q 546 65 514 126 l 642 510 q 682 593 653 563 l 721 568 q 688 492 701 551 l 583 0 m 394 79 q 388 113 399 99 q 357 126 376 126 q 322 113 338 126 q 301 79 306 99 q 308 47 297 60 q 338 33 318 33 q 374 47 357 33 q 394 79 390 60 m 165 79 q 158 113 169 99 q 128 126 147 126 q 92 113 108 126 q 72 79 76 99 q 78 47 68 60 q 108 33 89 33 q 144 47 128 33 q 165 79 161 60 z "},"ญ":{"ha":721,"x_min":26,"x_max":721,"o":"m 593 -47 q 521 -184 574 -131 q 381 -237 468 -237 q 288 -203 325 -237 q 263 -117 251 -168 q 295 -64 268 -86 q 353 -42 322 -42 q 402 -64 385 -42 q 414 -117 419 -86 q 350 -187 403 -168 q 388 -197 364 -197 q 542 -47 507 -197 l 593 -47 m 376 -117 q 370 -90 379 -101 q 346 -79 361 -79 q 317 -90 331 -79 q 301 -117 304 -101 q 306 -143 297 -132 q 331 -154 315 -154 q 359 -143 346 -154 q 376 -117 372 -132 m 175 79 q 168 113 179 99 q 138 126 157 126 q 102 113 118 126 q 82 79 86 99 q 88 47 78 60 q 118 33 99 33 q 154 47 138 33 q 175 79 171 60 m 607 114 q 444 -11 581 -11 q 336 115 310 -11 l 390 368 q 286 511 421 511 q 198 485 242 511 q 129 415 154 458 q 228 354 206 410 q 162 318 193 347 q 122 253 131 289 l 103 163 q 147 171 124 171 q 207 144 186 171 q 219 81 228 118 q 184 15 211 43 q 108 -12 157 -12 q 47 13 68 -12 q 36 82 26 39 l 72 251 q 168 361 88 326 q 61 376 119 382 q 156 505 90 454 q 299 556 222 556 q 422 508 385 556 q 442 374 460 461 l 386 111 q 456 33 369 33 q 557 111 540 33 l 642 510 q 682 593 653 563 l 721 568 q 688 492 701 551 l 607 114 z "},"ฎ":{"ha":590,"x_min":-17,"x_max":549,"o":"m 389 -299 l 333 -299 q 284 -232 329 -265 q 200 -187 239 -199 l 197 -197 q 156 -273 189 -242 q 78 -304 122 -304 q 18 -280 36 -304 q 7 -219 0 -256 q 52 -151 17 -176 q 131 -126 88 -126 q 167 -131 138 -126 q 233 -53 182 -79 l 267 -75 q 210 -142 219 -101 q 353 -235 313 -181 l 479 361 q 460 470 493 429 q 360 511 426 511 q 263 484 313 511 q 188 415 213 457 q 288 354 260 408 q 190 253 207 329 q 179 142 179 199 q 172 83 179 117 q 131 16 164 43 q 61 -11 99 -11 q 3 15 24 -11 q -8 79 -17 42 q 31 144 -1 117 q 100 171 63 171 q 132 164 115 171 q 143 261 136 228 q 221 361 157 325 q 150 378 186 378 q 124 376 132 378 q 219 505 147 454 q 371 556 290 556 q 504 505 460 556 q 531 367 549 454 l 389 -299 m 153 -176 q 124 -172 140 -172 q 51 -217 61 -172 q 89 -260 43 -260 q 150 -197 138 -260 q 153 -176 153 -187 m 128 79 q 121 113 132 99 q 90 126 110 126 q 55 113 71 126 q 35 79 39 99 q 41 47 31 60 q 71 33 51 33 q 107 47 90 33 q 128 79 124 60 z "},"ฏ":{"ha":590,"x_min":-47,"x_max":549,"o":"m 104 -186 q 65 -174 94 -174 q 1 -221 11 -174 q 36 -262 -7 -262 q 104 -186 88 -262 m 389 -299 l 333 -299 l 276 -214 l 197 -297 l 139 -214 q 97 -281 128 -257 q 31 -306 65 -306 q -29 -281 -11 -306 q -39 -219 -47 -256 q 1 -155 -31 -179 q 71 -131 32 -131 q 114 -140 97 -131 q 188 -60 126 -92 l 221 -82 q 154 -160 167 -111 l 207 -232 l 290 -144 l 353 -235 l 479 361 q 460 470 493 429 q 360 511 426 511 q 263 484 313 511 q 188 415 213 457 q 288 354 260 408 q 190 253 207 329 q 179 142 179 199 q 172 83 179 117 q 131 16 164 43 q 61 -11 99 -11 q 3 15 24 -11 q -8 79 -17 42 q 31 144 -1 117 q 100 171 63 171 q 132 164 115 171 q 143 261 136 228 q 221 361 157 325 q 150 378 186 378 q 124 376 132 378 q 219 505 147 454 q 371 556 290 556 q 504 505 460 556 q 531 367 549 454 l 389 -299 m 128 79 q 121 113 132 99 q 90 126 110 126 q 55 113 71 126 q 35 79 39 99 q 41 47 31 60 q 71 33 51 33 q 107 47 90 33 q 128 79 124 60 z "},"ฐ":{"ha":476,"x_min":-143,"x_max":518,"o":"m 356 110 q 219 -12 331 -12 q 135 110 110 -12 l 150 181 q 114 175 133 175 q 60 198 79 175 q 50 256 42 221 q 86 316 57 292 q 150 340 115 340 q 206 319 186 340 q 217 258 225 297 l 185 106 q 229 33 169 33 q 306 106 290 33 l 347 307 q 228 374 356 340 q 63 407 151 394 q 134 513 81 471 q 261 556 188 556 q 336 540 290 556 q 408 525 382 525 q 478 593 457 525 l 518 583 q 400 474 481 474 q 319 490 369 474 q 242 507 269 507 q 176 488 210 507 q 135 444 142 469 q 321 394 267 417 q 399 311 410 360 l 356 110 m 307 -139 l 274 -300 l 219 -300 l 167 -262 l 99 -299 l 51 -222 q 13 -283 43 -261 q -54 -306 -18 -306 q -126 -226 -143 -304 q -88 -175 -119 -193 q -19 -157 -57 -157 q 26 -164 11 -157 q 106 -79 47 -107 l 139 -100 q 64 -182 76 -128 l 110 -253 l 175 -222 l 233 -264 l 247 -201 q 224 -203 239 -203 q 178 -184 194 -203 q 167 -139 161 -165 q 197 -94 172 -112 q 251 -75 222 -75 q 297 -92 279 -75 q 307 -139 314 -110 m 13 -204 q -31 -194 1 -194 q -85 -231 -78 -197 q -49 -267 -92 -267 q 11 -222 3 -267 q 13 -204 14 -215 m 271 -139 q 244 -108 278 -108 q 204 -139 211 -108 q 231 -171 197 -171 q 271 -139 264 -171 m 169 257 q 164 283 172 272 q 140 294 156 294 q 112 283 125 294 q 96 257 99 272 q 100 231 92 242 q 124 221 108 221 q 152 231 139 221 q 169 257 165 242 z "},"ฑ":{"ha":640,"x_min":31,"x_max":621,"o":"m 513 47 q 446 -51 496 -18 l 407 -26 q 467 65 454 10 l 547 444 q 519 507 560 507 q 479 471 504 507 l 203 0 l 140 0 l 183 203 q 244 315 192 247 q 306 425 296 382 q 278 508 321 500 l 217 450 l 179 507 q 103 426 128 476 q 149 435 124 435 q 207 409 189 435 q 217 344 225 383 q 177 279 208 304 q 108 254 146 254 q 44 293 61 254 q 40 378 31 328 q 99 492 53 438 q 206 557 146 546 l 229 508 l 278 557 q 350 421 376 544 q 290 307 340 378 q 231 192 240 236 l 200 74 q 256 178 228 132 l 433 478 q 535 556 479 556 q 597 444 621 556 l 513 47 m 172 346 q 167 378 176 365 q 138 390 157 390 q 103 378 118 390 q 83 346 88 365 q 90 314 79 326 q 119 301 100 301 q 153 314 139 301 q 172 346 168 326 z "},"ฒ":{"ha":739,"x_min":43,"x_max":739,"o":"m 601 0 l 551 0 q 460 99 528 60 q 458 79 460 90 q 419 16 450 43 q 347 -11 389 -11 q 286 16 306 -11 q 275 81 267 43 q 312 143 282 117 q 378 172 342 169 l 418 361 q 383 503 439 461 l 278 422 l 214 504 q 148 442 176 483 q 110 358 119 400 q 114 242 101 318 q 118 119 126 167 q 171 174 133 143 q 231 225 214 207 q 182 252 197 229 q 172 307 167 275 q 209 365 181 342 q 272 389 238 389 q 326 365 307 389 q 336 307 346 340 q 215 153 321 243 q 93 0 110 64 l 43 0 l 69 126 q 65 241 78 168 q 58 353 51 314 q 117 476 74 421 q 232 554 167 538 l 290 475 l 383 556 q 463 489 442 544 q 469 367 483 433 l 426 165 q 567 72 532 126 l 660 510 q 700 593 671 563 l 739 568 q 706 492 719 551 l 601 0 m 299 308 q 292 340 303 328 q 263 353 282 353 q 229 340 243 353 q 211 308 215 328 q 216 277 207 289 q 244 265 225 265 q 279 277 264 265 q 299 308 294 289 m 413 79 q 406 113 417 99 q 375 126 394 126 q 340 113 356 126 q 319 79 324 99 q 326 47 315 60 q 356 33 336 33 q 392 47 375 33 q 413 79 408 60 z "},"ณ":{"ha":754,"x_min":28,"x_max":754,"o":"m 175 79 q 168 113 179 99 q 138 126 157 126 q 102 113 118 126 q 82 79 86 99 q 88 47 78 60 q 118 33 99 33 q 154 47 138 33 q 175 79 171 60 m 615 78 q 609 111 619 97 q 579 125 599 125 q 542 111 560 125 q 521 78 525 97 q 528 44 517 58 q 558 31 539 31 q 594 44 578 31 q 615 78 611 58 m 661 78 q 621 13 653 39 q 549 -14 589 -14 q 489 13 510 -14 q 476 78 468 39 l 479 86 q 372 0 425 67 l 313 0 l 390 368 q 286 511 421 511 q 198 485 242 511 q 129 415 154 458 q 228 354 206 410 q 162 318 193 347 q 122 253 131 289 l 103 163 q 147 171 124 171 q 207 144 186 171 q 219 81 228 118 q 180 14 211 40 q 108 -12 149 -12 q 48 15 68 -12 q 36 82 28 42 l 72 251 q 168 361 88 326 q 61 376 119 382 q 156 505 90 454 q 299 556 222 556 q 422 508 385 556 q 442 374 460 461 l 376 67 q 479 135 417 108 q 569 178 554 168 q 624 271 610 208 l 675 510 q 715 593 686 563 l 754 568 q 721 492 735 551 l 674 274 q 625 164 657 190 q 661 78 675 140 z "},"ด":{"ha":543,"x_min":31,"x_max":501,"o":"m 314 340 q 307 371 317 358 q 279 383 297 383 q 246 371 261 383 q 228 340 231 358 q 233 310 224 322 q 261 297 243 297 q 294 310 279 297 q 314 340 310 322 m 415 47 q 349 -51 399 -18 l 310 -26 q 369 65 357 10 l 432 361 q 304 511 464 511 q 182 467 240 511 q 111 360 124 424 q 109 251 101 319 q 110 144 117 182 q 99 107 103 117 q 172 188 122 143 q 253 258 213 222 q 199 282 218 258 q 189 340 181 306 q 224 399 196 375 q 288 422 253 422 q 341 399 322 422 q 353 340 360 375 q 218 171 338 274 q 81 0 99 68 l 31 0 l 57 125 q 58 240 65 165 q 58 353 51 314 q 153 501 79 447 q 321 556 228 556 q 459 505 417 556 q 483 368 501 454 l 415 47 z "},"ต":{"ha":543,"x_min":32,"x_max":497,"o":"m 415 47 q 349 -51 399 -18 l 310 -26 q 369 65 357 10 l 432 361 q 396 504 453 464 q 289 422 360 476 l 213 504 q 113 360 133 460 q 109 241 103 317 q 103 110 115 165 q 173 172 124 138 q 240 228 222 207 q 193 253 210 231 q 183 308 176 275 q 218 367 190 343 q 281 390 246 390 q 334 367 315 390 q 346 308 353 343 q 216 156 332 244 q 82 0 100 67 l 32 0 l 58 125 q 59 240 67 165 q 58 353 51 314 q 115 476 74 421 q 232 556 165 539 l 301 479 l 397 556 q 478 485 456 544 q 483 368 497 433 l 415 47 m 310 310 q 303 340 314 328 q 275 353 293 353 q 242 340 257 353 q 224 310 228 328 q 229 279 219 292 q 257 267 239 267 q 290 279 275 267 q 310 310 306 292 z "},"ถ":{"ha":525,"x_min":22,"x_max":483,"o":"m 171 79 q 164 113 175 99 q 133 126 153 126 q 98 113 114 126 q 78 79 82 99 q 84 47 74 60 q 114 33 94 33 q 150 47 133 33 q 171 79 167 60 m 397 47 q 331 -51 381 -18 l 292 -26 q 351 65 339 10 l 414 363 q 396 472 429 433 q 294 511 363 511 q 198 484 247 511 q 124 415 149 457 q 221 356 207 408 q 156 319 188 349 q 117 254 125 289 l 99 164 q 142 174 122 174 q 202 147 181 174 q 215 81 224 119 q 174 14 206 39 q 103 -11 143 -11 q 43 15 64 -11 q 31 81 22 42 l 67 253 q 161 363 83 328 q 56 378 126 378 q 156 505 83 454 q 307 556 228 556 q 440 506 396 556 q 465 368 483 456 l 397 47 z "},"ท":{"ha":597,"x_min":54,"x_max":578,"o":"m 469 47 q 403 -51 453 -18 l 364 -26 q 424 64 411 10 l 504 444 q 476 507 517 507 q 426 471 451 507 l 150 0 l 97 0 l 178 382 q 133 372 157 372 q 75 399 96 372 q 61 464 54 426 q 103 528 69 501 q 174 556 136 556 q 232 528 211 556 q 244 464 253 501 l 188 192 q 161 100 171 128 q 203 178 175 128 l 379 478 q 492 556 425 556 q 554 444 578 556 l 469 47 m 200 464 q 194 497 204 483 q 164 511 183 511 q 127 497 144 511 q 106 464 110 483 q 113 431 103 444 q 143 417 124 417 q 180 431 163 417 q 200 464 197 444 z "},"ธ":{"ha":465,"x_min":17,"x_max":489,"o":"m 347 106 q 169 -10 322 -10 q 42 106 17 -10 l 74 256 q 114 339 85 308 l 153 314 q 119 238 133 297 l 90 103 q 179 35 76 35 q 296 103 282 35 l 340 308 q 219 375 347 342 q 54 408 142 396 q 122 513 72 471 q 243 556 172 556 q 323 540 275 556 q 396 525 371 525 q 453 593 422 525 l 489 582 q 388 479 456 479 q 308 495 358 479 q 231 511 258 511 q 169 492 201 511 q 126 446 136 472 q 301 404 269 415 q 390 313 403 368 l 347 106 z "},"น":{"ha":583,"x_min":54,"x_max":583,"o":"m 200 464 q 194 497 204 483 q 164 511 183 511 q 127 497 144 511 q 106 464 110 483 q 113 431 103 444 q 143 417 124 417 q 180 431 163 417 q 200 464 197 444 m 446 81 q 439 114 450 100 q 408 128 428 128 q 372 114 389 128 q 351 81 356 100 q 358 47 347 61 q 389 33 369 33 q 425 47 408 33 q 446 81 442 61 m 490 79 q 449 15 482 42 q 379 -11 417 -11 q 321 15 342 -11 q 308 79 300 42 l 310 89 q 158 0 217 54 l 97 0 l 178 382 q 133 372 157 372 q 75 399 96 372 q 61 464 54 426 q 103 528 69 501 q 174 556 136 556 q 232 528 211 556 q 244 464 253 501 l 158 54 q 269 117 192 85 q 385 172 357 153 q 453 268 440 210 l 504 510 q 544 593 515 563 l 583 568 q 550 492 564 551 l 500 261 q 450 164 486 194 q 490 79 503 140 z "},"บ":{"ha":594,"x_min":54,"x_max":594,"o":"m 200 464 q 194 497 204 483 q 164 511 183 511 q 127 497 144 511 q 106 464 110 483 q 113 431 103 444 q 143 417 124 417 q 180 431 163 417 q 200 464 197 444 m 482 118 q 275 -11 454 -11 q 122 118 94 -11 l 178 382 q 133 372 157 372 q 75 399 96 372 q 61 464 54 426 q 103 528 69 501 q 174 556 136 556 q 232 528 211 556 q 244 464 253 501 l 172 122 q 285 35 154 35 q 432 122 414 35 l 515 510 q 556 593 526 563 l 594 568 q 561 492 575 551 l 482 118 z "},"ป":{"ha":594,"x_min":54,"x_max":638,"o":"m 482 118 q 275 -11 454 -11 q 122 118 94 -11 l 178 382 q 133 372 157 372 q 75 399 96 372 q 61 464 54 426 q 103 528 69 501 q 174 556 136 556 q 232 528 211 556 q 244 464 253 501 l 172 122 q 285 35 154 35 q 432 122 414 35 l 558 718 q 599 801 569 771 l 638 776 q 604 700 618 760 l 482 118 m 200 464 q 194 497 204 483 q 164 511 183 511 q 127 497 144 511 q 106 464 110 483 q 113 431 103 444 q 143 417 124 417 q 180 431 163 417 q 200 464 197 444 z "},"ผ":{"ha":529,"x_min":-4,"x_max":529,"o":"m 392 0 l 336 0 l 239 219 l 51 0 l -4 0 l 93 464 q 133 528 101 501 q 206 556 164 556 q 264 528 243 556 q 276 464 285 501 q 240 399 269 426 q 165 372 211 372 q 126 382 146 372 l 61 75 l 231 272 l 268 272 l 357 75 l 450 510 q 490 593 461 563 l 529 568 q 496 492 510 551 l 392 0 m 233 464 q 227 497 238 483 q 197 511 217 511 q 160 497 178 511 q 139 464 143 483 q 147 431 136 444 q 176 417 157 417 q 213 431 196 417 q 233 464 231 444 z "},"ฝ":{"ha":529,"x_min":-4,"x_max":572,"o":"m 392 0 l 336 0 l 239 219 l 51 0 l -4 0 l 93 464 q 133 528 101 501 q 206 556 164 556 q 264 528 243 556 q 276 464 285 501 q 240 399 269 426 q 165 372 211 372 q 126 382 146 372 l 61 75 l 231 272 l 268 272 l 357 75 l 493 718 q 533 801 504 771 l 572 776 q 539 700 553 760 l 392 0 m 233 464 q 227 497 238 483 q 197 511 217 511 q 160 497 178 511 q 139 464 143 483 q 147 431 136 444 q 176 417 157 417 q 213 431 196 417 q 233 464 231 444 z "},"พ":{"ha":621,"x_min":54,"x_max":621,"o":"m 200 464 q 194 497 204 483 q 164 511 183 511 q 127 497 144 511 q 106 464 110 483 q 113 431 103 444 q 143 417 124 417 q 180 431 163 417 q 200 464 197 444 m 483 0 l 422 0 l 392 482 l 158 0 l 97 0 l 178 382 q 133 372 157 372 q 75 399 96 372 q 61 464 54 426 q 103 528 69 501 q 174 556 136 556 q 232 528 211 556 q 244 464 253 501 l 183 174 q 156 76 176 139 q 203 178 175 122 l 382 544 l 429 544 l 453 178 q 456 76 456 122 q 469 174 463 139 l 542 510 q 582 593 553 563 l 621 568 q 588 492 601 551 l 483 0 z "},"ฟ":{"ha":621,"x_min":54,"x_max":664,"o":"m 483 0 l 422 0 l 392 482 l 158 0 l 97 0 l 178 382 q 133 372 157 372 q 75 399 96 372 q 61 464 54 426 q 103 528 69 501 q 174 556 136 556 q 232 528 211 556 q 244 464 253 501 l 183 174 q 156 76 176 139 q 203 178 175 122 l 382 544 l 429 544 l 453 178 q 456 76 456 122 q 469 174 463 139 l 585 719 q 625 801 596 771 l 664 776 q 631 700 644 760 l 483 0 m 200 464 q 194 497 204 483 q 164 511 183 511 q 127 497 144 511 q 106 464 110 483 q 113 431 103 444 q 143 417 124 417 q 180 431 163 417 q 200 464 197 444 z "},"ภ":{"ha":590,"x_min":-17,"x_max":549,"o":"m 128 79 q 121 113 132 99 q 90 126 110 126 q 55 113 71 126 q 35 79 39 99 q 41 47 31 60 q 71 33 51 33 q 107 47 90 33 q 128 79 124 60 m 463 46 q 396 -53 446 -19 l 357 -28 q 417 64 404 8 l 479 361 q 460 470 493 429 q 360 511 426 511 q 263 484 313 511 q 188 415 213 457 q 288 354 260 408 q 190 253 207 329 q 179 142 179 199 q 172 83 179 117 q 134 16 164 43 q 61 -11 104 -11 q 3 15 24 -11 q -8 79 -17 42 q 31 144 -1 117 q 100 171 63 171 q 132 164 115 171 q 143 261 136 228 q 221 361 157 325 q 150 378 186 378 q 124 376 132 378 q 219 505 147 454 q 371 556 290 556 q 504 505 460 556 q 531 367 549 454 l 463 46 z "},"ม":{"ha":556,"x_min":-18,"x_max":556,"o":"m 138 86 q 130 122 142 107 q 97 138 118 138 q 58 122 76 138 q 35 86 39 107 q 42 50 29 65 q 75 35 54 35 q 114 50 96 35 q 138 86 132 65 m 200 464 q 194 497 204 483 q 164 511 183 511 q 127 497 144 511 q 106 464 110 483 q 113 431 103 444 q 143 417 124 417 q 180 431 163 417 q 200 464 197 444 m 418 0 l 364 0 q 183 110 272 83 q 182 85 185 97 q 140 17 174 44 q 65 -11 106 -11 q 3 17 25 -11 q -10 85 -18 44 q 33 153 0 125 q 106 182 65 182 q 135 178 121 182 l 178 382 q 133 372 157 372 q 75 399 96 372 q 61 464 54 426 q 103 528 69 501 q 174 556 136 556 q 232 528 211 556 q 244 464 253 501 l 182 164 q 378 51 308 115 l 476 510 q 517 593 488 563 l 556 568 q 522 492 536 551 l 418 0 z "},"ย":{"ha":521,"x_min":4,"x_max":521,"o":"m 260 476 q 254 508 264 496 q 225 521 244 521 q 191 508 206 521 q 172 476 176 496 q 178 445 168 457 q 207 433 188 433 q 241 445 226 433 q 260 476 256 457 m 408 124 q 193 -11 381 -11 q 32 124 4 -11 l 47 194 q 79 256 54 226 q 135 296 104 285 q 90 433 68 328 q 140 522 101 488 q 235 556 179 556 q 286 532 269 556 q 296 476 303 508 q 265 422 290 444 q 201 399 239 399 q 139 444 150 399 q 132 422 135 435 q 141 351 124 383 q 197 319 158 319 l 276 319 l 267 272 l 186 272 q 130 250 156 272 q 97 192 104 228 l 83 128 q 203 35 64 35 q 360 128 340 35 l 442 510 q 482 593 453 563 l 521 568 q 488 492 501 551 l 408 124 z "},"ร":{"ha":447,"x_min":61,"x_max":474,"o":"m 310 81 q 271 16 301 43 q 199 -11 240 -11 q 140 16 161 -11 q 126 81 118 43 q 167 145 135 118 q 238 172 200 172 q 276 163 261 172 l 308 308 q 61 408 319 365 q 228 556 101 556 q 307 541 257 556 q 381 526 357 526 q 439 593 410 526 l 474 582 q 369 481 440 481 q 289 496 340 481 q 210 511 238 511 q 158 490 185 511 q 126 446 132 468 q 291 400 211 431 q 358 313 371 369 l 310 81 m 265 81 q 258 114 269 100 q 228 128 247 128 q 192 114 208 128 q 171 81 175 100 q 178 47 167 61 q 208 33 189 33 q 244 47 228 33 q 265 81 261 61 z "},"ฤ":{"ha":525,"x_min":22,"x_max":483,"o":"m 339 -225 q 272 -324 322 -290 l 233 -299 q 293 -207 281 -262 l 414 363 q 396 472 429 433 q 294 511 363 511 q 198 484 247 511 q 124 415 149 457 q 221 356 207 408 q 156 319 188 349 q 117 254 125 289 l 99 164 q 142 174 122 174 q 202 147 181 174 q 215 81 224 119 q 174 15 207 42 q 103 -11 142 -11 q 43 15 64 -11 q 31 81 22 42 l 67 253 q 161 363 83 328 q 56 378 126 378 q 156 505 83 454 q 307 556 228 556 q 440 506 396 556 q 465 368 483 456 l 339 -225 m 171 79 q 164 113 175 99 q 133 126 153 126 q 98 113 114 126 q 78 79 82 99 q 84 47 74 60 q 114 33 94 33 q 150 47 133 33 q 171 79 167 60 z "},"ล":{"ha":529,"x_min":24,"x_max":481,"o":"m 404 58 q 364 -25 393 7 l 325 0 q 361 75 344 17 q 368 139 368 104 q 329 279 365 214 q 261 357 301 328 q 172 302 236 357 q 90 163 108 247 q 139 172 111 172 q 193 151 172 172 q 214 100 214 131 q 178 23 214 57 q 100 -11 142 -11 q 24 82 24 -11 q 101 290 25 188 q 276 403 178 392 q 346 336 319 375 q 382 268 372 297 q 394 203 389 246 l 400 274 l 429 424 q 379 489 429 463 q 296 511 338 511 q 183 486 235 511 q 104 411 126 458 l 56 411 q 158 519 82 479 q 303 556 225 556 q 421 526 369 556 q 481 422 481 493 l 404 58 m 167 89 q 128 126 167 126 q 88 108 104 126 q 71 68 71 90 q 108 33 71 33 q 149 50 132 33 q 167 89 167 67 z "},"ฦ":{"ha":590,"x_min":-17,"x_max":549,"o":"m 404 -225 q 338 -324 388 -290 l 299 -299 q 358 -207 346 -262 l 479 361 q 460 470 493 429 q 360 511 426 511 q 263 484 313 511 q 188 415 213 457 q 288 354 260 408 q 190 253 207 329 q 179 142 179 199 q 172 83 179 117 q 131 16 164 43 q 61 -11 99 -11 q 3 15 24 -11 q -8 79 -17 42 q 31 144 -1 117 q 100 171 63 171 q 132 164 115 171 q 143 261 136 228 q 221 361 157 325 q 150 378 186 378 q 124 376 132 378 q 219 505 147 454 q 371 556 290 556 q 504 505 460 556 q 531 367 549 454 l 404 -225 m 128 79 q 121 113 132 99 q 90 126 110 126 q 55 113 71 126 q 35 79 39 99 q 41 47 31 60 q 71 33 51 33 q 107 47 90 33 q 128 79 124 60 z "},"ว":{"ha":465,"x_min":40,"x_max":428,"o":"m 344 81 q 303 16 336 43 q 233 -11 271 -11 q 174 16 196 -11 q 161 81 153 43 q 202 145 169 118 q 272 172 235 172 q 311 163 296 172 l 360 388 q 249 511 386 511 q 92 411 140 511 l 40 411 q 261 556 103 556 q 384 514 340 556 q 411 396 428 472 l 344 81 m 300 81 q 293 114 304 100 q 263 128 282 128 q 226 114 243 128 q 206 81 210 100 q 213 47 201 61 q 243 33 224 33 q 279 47 263 33 q 300 81 296 61 z "},"ศ":{"ha":546,"x_min":31,"x_max":582,"o":"m 322 342 q 316 372 326 360 q 288 385 306 385 q 255 372 269 385 q 236 342 240 360 q 242 311 232 324 q 269 299 251 299 q 303 311 288 299 q 322 342 318 324 m 418 47 q 351 -51 401 -18 l 313 -26 q 372 65 360 10 l 438 374 q 410 476 451 440 q 306 511 368 511 q 184 467 242 511 q 114 360 126 424 q 108 286 107 329 q 111 217 111 225 q 182 351 140 296 q 299 424 238 424 q 351 401 333 424 q 361 342 369 379 q 324 283 353 307 q 261 258 296 258 q 204 292 225 258 q 147 208 179 263 q 99 90 110 142 l 81 0 l 31 0 l 57 128 q 59 242 65 168 q 61 354 53 315 q 153 500 81 444 q 318 556 226 556 q 435 525 388 556 q 557 593 482 576 l 582 558 q 517 538 546 551 q 465 500 489 524 q 488 378 504 456 l 418 47 z "},"ษ":{"ha":608,"x_min":54,"x_max":625,"o":"m 625 332 q 522 243 599 294 l 496 118 q 282 -11 468 -11 q 122 118 94 -11 l 178 382 q 133 372 157 372 q 75 399 96 372 q 61 464 54 426 q 103 528 69 501 q 174 556 136 556 q 232 528 211 556 q 244 464 253 501 l 172 122 q 290 35 154 35 q 446 122 428 35 l 468 224 q 397 214 424 214 q 294 249 333 214 q 265 333 254 283 q 298 387 271 365 q 356 408 325 408 q 405 387 388 408 q 417 333 422 365 q 353 263 406 285 q 406 253 367 253 q 476 267 443 253 l 529 510 q 569 593 540 563 l 608 568 q 575 492 589 551 l 533 294 q 600 358 571 319 l 625 332 m 379 333 q 372 360 382 349 q 347 372 363 372 q 319 360 332 372 q 303 333 306 349 q 308 307 299 318 q 332 296 317 296 q 361 307 347 296 q 379 333 375 318 m 200 464 q 194 497 204 483 q 164 511 183 511 q 127 497 144 511 q 106 464 110 483 q 113 431 103 444 q 143 417 124 417 q 180 431 163 417 q 200 464 197 444 z "},"ส":{"ha":529,"x_min":24,"x_max":582,"o":"m 404 58 q 364 -25 393 7 l 325 0 q 361 75 344 17 q 368 139 368 104 q 329 279 365 214 q 261 357 301 328 q 172 302 236 357 q 90 163 108 247 q 139 172 111 172 q 193 151 172 172 q 214 100 214 131 q 178 23 214 57 q 100 -11 142 -11 q 24 82 24 -11 q 101 290 25 188 q 276 403 178 392 q 346 336 319 375 q 382 268 372 297 q 394 203 389 246 l 400 274 l 429 424 q 379 489 429 463 q 296 511 338 511 q 183 486 235 511 q 104 411 126 458 l 56 411 q 158 519 82 479 q 303 556 225 556 q 429 519 378 556 q 557 593 481 576 l 582 558 q 457 490 504 543 q 479 415 482 460 l 404 58 m 167 89 q 128 126 167 126 q 88 108 104 126 q 71 68 71 90 q 108 33 71 33 q 149 50 132 33 q 167 89 167 67 z "},"ห":{"ha":593,"x_min":54,"x_max":585,"o":"m 465 47 q 399 -51 449 -18 l 360 -26 q 419 65 407 10 l 468 300 q 449 364 482 364 q 389 315 428 364 l 143 0 l 97 0 l 178 382 q 133 372 157 372 q 75 399 96 372 q 61 464 54 426 q 103 528 69 501 q 174 556 136 556 q 232 528 211 556 q 244 464 253 501 l 181 163 q 156 76 178 150 q 200 138 181 111 l 356 344 q 413 393 383 379 q 393 464 385 419 q 435 528 401 501 q 506 556 468 556 q 564 528 543 556 q 576 464 585 501 q 514 385 565 411 q 518 300 532 361 l 465 47 m 200 464 q 194 497 204 483 q 164 511 183 511 q 127 497 144 511 q 106 464 110 483 q 113 431 103 444 q 143 417 124 417 q 180 431 163 417 q 200 464 197 444 m 531 464 q 524 497 535 483 q 494 511 514 511 q 458 497 475 511 q 436 464 440 483 q 444 431 433 444 q 474 417 454 417 q 510 431 493 417 q 531 464 528 444 z "},"ฬ":{"ha":631,"x_min":54,"x_max":697,"o":"m 200 464 q 194 497 204 483 q 164 511 183 511 q 127 497 144 511 q 106 464 110 483 q 113 431 103 444 q 143 417 124 417 q 180 431 163 417 q 200 464 197 444 m 546 464 q 540 497 550 483 q 510 511 529 511 q 473 497 490 511 q 451 464 456 483 q 459 431 449 444 q 489 417 469 417 q 526 431 508 417 q 546 464 543 444 m 493 0 l 432 0 l 350 271 l 154 0 l 97 0 l 178 382 q 133 372 157 372 q 75 399 96 372 q 61 464 54 426 q 103 528 69 501 q 174 556 136 556 q 232 528 211 556 q 244 464 253 501 l 175 136 q 157 68 171 114 q 193 128 171 92 l 338 322 l 385 322 l 446 128 q 460 68 449 118 q 471 136 467 113 l 524 382 q 479 372 503 372 q 421 399 442 372 q 407 464 400 426 q 449 528 415 501 q 519 556 482 556 q 561 539 549 556 q 672 593 596 576 l 697 558 q 589 510 619 543 q 590 464 596 485 l 493 0 z "},"อ":{"ha":538,"x_min":28,"x_max":500,"o":"m 231 289 q 224 322 235 308 q 193 336 213 336 q 157 322 174 336 q 136 289 140 308 q 142 256 132 269 q 172 242 153 242 q 209 256 192 242 q 231 289 226 269 m 425 118 q 211 -11 394 -11 q 56 118 28 -11 l 92 289 q 132 353 99 326 q 203 381 165 381 q 261 353 240 381 q 275 289 282 326 q 236 224 267 251 q 164 197 206 197 q 124 207 140 197 l 107 129 q 224 35 88 35 q 376 129 357 35 l 432 388 q 403 481 444 446 q 300 511 365 511 q 190 485 243 511 q 113 411 132 456 l 63 411 q 158 516 90 476 q 313 556 226 556 q 443 517 394 556 q 483 396 500 472 l 425 118 z "},"ฮ":{"ha":517,"x_min":4,"x_max":561,"o":"m 404 124 q 192 -11 376 -11 q 32 124 4 -11 l 60 253 q 101 317 68 290 q 171 344 133 344 q 230 317 208 344 q 243 253 251 290 q 206 188 235 215 q 132 161 176 161 q 93 171 108 161 l 83 129 q 201 35 64 35 q 356 131 336 35 l 417 413 q 413 444 421 431 q 224 372 347 372 q 88 456 69 372 q 175 536 99 508 q 299 557 232 557 q 426 517 381 557 q 536 593 464 572 l 561 558 q 451 485 488 539 q 463 393 472 442 l 404 124 m 392 482 q 288 514 356 514 q 196 500 239 514 q 138 456 143 483 q 236 417 129 417 q 392 482 340 417 m 199 253 q 192 286 203 272 q 161 300 181 300 q 125 286 142 300 q 104 253 108 272 q 111 219 100 233 q 142 206 122 206 q 178 219 161 206 q 199 253 194 233 z "},"ฯ":{"ha":543,"x_min":104,"x_max":518,"o":"m 413 47 q 346 -51 396 -18 l 307 -26 q 367 65 354 10 l 449 454 q 415 500 458 497 q 225 364 338 364 q 132 392 160 364 q 114 467 104 421 q 153 529 121 503 q 222 556 186 556 q 278 529 258 556 q 292 467 299 503 q 261 413 285 436 q 385 544 343 439 l 435 544 q 500 458 518 544 l 413 47 m 243 468 q 238 498 247 486 q 211 510 229 510 q 179 498 193 510 q 161 468 165 486 q 166 439 157 450 q 193 428 175 428 q 225 439 211 428 q 243 468 239 450 z "},"ะ":{"ha":496,"x_min":0,"x_max":474,"o":"m 474 531 q 383 376 450 436 q 231 315 317 315 q 117 342 160 315 q 75 438 63 374 q 115 500 83 474 q 183 526 147 526 q 240 500 219 526 q 253 438 261 474 q 197 364 243 390 q 231 358 218 358 q 356 408 307 361 q 424 531 404 454 l 474 531 m 206 438 q 200 469 210 457 q 171 482 190 482 q 137 469 151 482 q 118 438 122 457 q 124 406 114 418 q 153 394 133 394 q 187 406 172 394 q 206 438 201 418 m 411 236 q 321 81 388 142 q 168 21 254 21 q 54 47 97 21 q 13 143 0 79 q 53 206 21 179 q 121 232 85 232 q 178 206 157 232 q 190 143 199 179 q 135 69 181 96 q 168 64 156 64 q 293 113 244 67 q 361 236 342 160 l 411 236 m 143 143 q 138 175 147 163 q 108 188 128 188 q 74 175 89 188 q 56 143 60 163 q 61 112 51 124 q 90 100 71 100 q 124 112 110 100 q 143 143 139 124 z "},"ั":{"ha":0,"x_min":-235,"x_max":190,"o":"m 190 860 q 95 705 169 765 q -71 644 21 644 q -193 678 -151 644 q -222 765 -235 711 q -183 828 -215 801 q -115 854 -151 854 q -58 828 -79 854 q -44 767 -37 803 q -103 692 -54 719 q -51 688 -83 688 q 71 742 15 689 q 138 860 119 790 l 190 860 m -89 768 q -95 801 -85 788 q -124 814 -106 814 q -158 801 -142 814 q -179 768 -175 788 q -172 736 -183 749 q -143 724 -161 724 q -109 736 -125 724 q -89 768 -93 749 z "},"า":{"ha":439,"x_min":60,"x_max":403,"o":"m 311 47 q 244 -51 294 -18 l 206 -26 q 265 65 253 10 l 339 415 q 322 484 347 457 q 243 511 297 511 q 158 478 194 511 q 111 408 122 446 l 60 408 q 128 511 74 467 q 254 556 183 556 q 369 517 335 556 q 389 414 403 478 l 311 47 z "},"ำ":{"ha":439,"x_min":-135,"x_max":403,"o":"m 86 747 q 40 672 76 703 q -40 642 3 642 q -110 672 -85 642 q -125 747 -135 703 q -78 823 -115 792 q 3 854 -40 854 q 72 823 47 854 q 86 747 96 792 m 40 747 q 31 790 46 772 q -6 808 17 808 q -52 790 -31 808 q -79 747 -74 772 q -70 705 -85 722 q -31 688 -56 688 q 14 705 -7 688 q 40 747 35 722 m 311 47 q 244 -51 294 -18 l 206 -26 q 265 65 253 10 l 339 415 q 322 484 347 457 q 243 511 297 511 q 158 478 194 511 q 111 408 122 446 l 60 408 q 128 511 74 467 q 254 556 183 556 q 369 517 335 556 q 389 414 403 478 l 311 47 z "},"ิ":{"ha":0,"x_min":-393,"x_max":13,"o":"m 4 632 q -282 689 -142 689 q -393 681 -332 689 q -308 797 -376 753 q -174 838 -247 838 q 4 632 13 838 m -37 685 q -181 797 -74 797 q -328 724 -278 797 q -261 728 -297 728 q -37 685 -128 728 z "},"ี":{"ha":0,"x_min":-393,"x_max":53,"o":"m 4 632 q -282 689 -142 689 q -393 681 -332 689 q -308 797 -376 753 q -174 838 -247 838 q -21 764 -62 838 l 7 899 l 53 899 l 4 669 q 4 632 6 651 m -37 685 q -181 797 -74 797 q -328 724 -278 797 q -261 728 -297 728 q -37 685 -128 728 z "},"ึ":{"ha":0,"x_min":-393,"x_max":89,"o":"m 4 632 q -282 689 -142 689 q -393 681 -332 689 q -308 797 -376 753 q -174 838 -247 838 q -53 801 -99 838 q -51 824 -54 813 q -22 872 -46 851 q 29 892 1 892 q 73 872 57 892 q 83 824 89 851 q 52 776 76 796 q 0 756 28 756 q -15 758 -6 756 q 4 632 7 710 m -37 685 q -181 797 -74 797 q -328 724 -278 797 q -261 728 -297 728 q -37 685 -128 728 m 51 824 q 46 849 54 839 q 22 860 38 860 q -5 849 7 860 q -19 824 -17 839 q -15 798 -24 808 q 7 788 -7 788 q 35 798 22 788 q 51 824 47 808 z "},"ื":{"ha":0,"x_min":-393,"x_max":53,"o":"m -37 685 q -181 797 -74 797 q -328 724 -278 797 q -261 728 -297 728 q -37 685 -128 728 m 4 632 q -282 689 -142 689 q -393 681 -332 689 q -308 797 -376 753 q -174 838 -247 838 q -117 832 -142 838 l -103 899 l -57 899 l -75 815 q -21 764 -39 797 l 7 899 l 53 899 l 4 669 q 4 632 6 651 z "},"ุ":{"ha":0,"x_min":-324,"x_max":-162,"o":"m -207 -153 q -211 -127 -203 -137 q -235 -117 -219 -117 q -262 -127 -250 -117 q -279 -153 -275 -137 q -274 -178 -282 -168 q -250 -189 -265 -189 q -222 -178 -235 -189 q -207 -153 -210 -168 m -196 -278 q -236 -361 -207 -331 l -275 -336 q -242 -265 -253 -315 l -233 -224 q -258 -228 -244 -228 q -306 -206 -289 -228 q -317 -154 -324 -185 q -284 -102 -310 -124 q -228 -81 -258 -81 q -180 -102 -197 -81 q -169 -154 -162 -124 l -196 -278 z "},"ู":{"ha":0,"x_min":-469,"x_max":-142,"o":"m -353 -153 q -357 -127 -349 -137 q -381 -117 -365 -117 q -408 -127 -396 -117 q -425 -153 -421 -137 q -419 -178 -428 -168 q -396 -189 -411 -189 q -368 -178 -381 -189 q -353 -153 -356 -168 m -175 -176 l -193 -268 q -312 -354 -212 -354 q -389 -271 -407 -354 l -379 -224 q -404 -228 -390 -228 q -452 -206 -435 -228 q -462 -154 -469 -185 q -430 -102 -456 -124 q -374 -81 -404 -81 q -326 -102 -343 -81 q -315 -154 -308 -124 l -342 -279 q -300 -311 -349 -311 q -246 -279 -253 -311 l -221 -158 q -181 -75 -210 -106 l -142 -100 q -175 -176 -161 -117 z "},"ฺ":{"ha":0,"x_min":-253,"x_max":-172,"o":"m -175 -133 q -192 -160 -179 -149 q -219 -171 -204 -171 q -244 -160 -235 -171 q -249 -133 -253 -149 q -233 -108 -246 -118 q -204 -97 -219 -97 q -181 -108 -189 -97 q -175 -133 -172 -118 z "},"฿":{"ha":571,"x_min":53,"x_max":510,"o":"m 449 203 q 233 35 417 57 l 208 -82 l 163 -82 l 186 31 l 164 31 q 53 43 113 31 l 174 613 q 304 631 256 631 l 314 631 l 335 726 l 381 726 l 360 628 q 483 481 510 607 q 367 349 464 388 q 431 299 407 333 q 449 203 460 257 m 397 201 q 365 297 411 264 q 247 325 324 325 l 165 325 l 114 82 q 185 75 139 75 q 315 103 260 75 q 397 201 383 136 m 432 479 q 397 564 444 536 q 294 586 358 586 q 219 576 267 586 l 175 371 l 272 371 q 379 402 336 371 q 432 479 422 433 z "},"เ":{"ha":282,"x_min":24,"x_max":228,"o":"m 174 86 q 167 119 178 106 q 136 133 156 133 q 100 119 117 133 q 79 86 83 106 q 85 53 75 67 q 115 39 96 39 q 152 53 135 39 q 174 86 169 67 m 219 86 q 178 19 211 47 q 106 -8 144 -8 q 42 22 63 -8 q 32 86 24 49 l 122 510 q 163 593 133 563 l 201 568 q 169 497 182 551 l 99 168 q 146 179 121 179 q 206 152 185 179 q 219 86 228 125 z "},"แ":{"ha":524,"x_min":24,"x_max":468,"o":"m 174 86 q 167 119 178 106 q 136 133 156 133 q 100 119 117 133 q 79 86 83 106 q 85 53 75 67 q 115 39 96 39 q 152 53 135 39 q 174 86 169 67 m 219 86 q 178 19 211 47 q 106 -8 144 -8 q 42 22 63 -8 q 32 86 24 49 l 122 510 q 163 593 133 563 l 201 568 q 169 497 182 551 l 99 168 q 146 179 121 179 q 206 152 185 179 q 219 86 228 125 m 414 86 q 407 119 418 106 q 376 133 396 133 q 340 119 357 133 q 319 86 324 106 q 326 53 315 67 q 356 39 336 39 q 392 53 375 39 q 414 86 410 67 m 460 86 q 418 19 451 47 q 346 -8 385 -8 q 282 22 303 -8 q 272 86 264 49 l 363 510 q 403 593 374 563 l 442 568 q 410 497 422 551 l 339 168 q 386 179 361 179 q 447 152 425 179 q 460 86 468 125 z "},"โ":{"ha":329,"x_min":50,"x_max":413,"o":"m 219 83 q 212 117 224 103 q 181 131 200 131 q 146 117 163 131 q 125 83 129 103 q 131 50 121 64 q 161 36 142 36 q 198 50 181 36 q 219 83 215 64 m 265 83 q 224 17 257 44 q 151 -11 190 -11 q 86 19 107 -11 q 76 83 69 46 l 200 661 q 156 736 208 700 q 50 774 104 772 q 206 904 85 904 q 273 883 228 904 q 335 861 318 861 q 374 896 360 861 l 413 885 q 332 815 378 815 q 263 838 310 815 q 192 861 215 861 q 115 810 131 861 q 249 656 271 761 l 144 165 q 190 176 165 176 q 251 149 229 176 q 265 83 274 122 z "},"ใ":{"ha":336,"x_min":38,"x_max":340,"o":"m 272 83 q 231 17 264 44 q 160 -11 197 -11 q 93 19 115 -11 q 83 83 76 46 l 204 651 q 228 706 210 675 q 276 793 272 776 q 265 850 283 828 q 211 872 246 872 q 125 840 160 872 q 184 824 164 846 q 197 765 204 801 q 163 711 190 733 q 106 689 136 689 q 56 711 75 689 q 47 778 38 733 q 107 874 58 835 q 224 913 156 913 q 307 881 274 913 q 329 801 340 850 q 291 721 324 772 q 253 642 258 669 l 151 165 q 199 176 172 176 q 258 149 236 176 q 272 83 281 122 m 226 83 q 219 117 231 103 q 188 131 207 131 q 153 117 169 131 q 132 83 136 103 q 138 50 128 64 q 168 36 149 36 q 205 50 188 36 q 226 83 222 64 m 160 765 q 155 792 163 781 q 129 804 147 804 q 98 792 111 804 q 82 765 85 781 q 86 738 78 750 q 113 726 94 726 q 143 738 131 726 q 160 765 156 750 z "},"ไ":{"ha":339,"x_min":74,"x_max":306,"o":"m 275 83 q 233 17 267 44 q 163 -11 200 -11 q 96 19 118 -11 q 86 83 79 46 l 246 835 l 115 690 l 74 707 q 88 924 86 800 l 131 924 q 118 742 126 803 l 268 910 q 296 893 286 908 q 301 861 306 878 l 154 165 q 201 176 175 176 q 261 149 239 176 q 275 83 283 122 m 228 83 q 221 117 232 103 q 190 131 210 131 q 154 117 171 131 q 133 83 138 103 q 140 50 129 64 q 171 36 151 36 q 207 50 190 36 q 228 83 224 64 z "},"ๅ":{"ha":285,"x_min":-93,"x_max":249,"o":"m 99 -225 q 32 -324 82 -290 l -7 -299 q 53 -207 40 -262 l 185 415 q 168 484 193 457 q 89 511 143 511 q 5 478 40 511 q -42 408 -31 446 l -93 408 q -25 511 -79 467 q 100 556 29 556 q 215 517 181 556 q 235 414 249 478 l 99 -225 z "},"ๆ":{"ha":554,"x_min":100,"x_max":515,"o":"m 363 -190 q 296 -289 346 -256 l 257 -264 q 314 -178 304 -228 l 440 417 q 400 526 456 488 l 324 476 l 258 528 q 174 442 194 503 q 219 456 197 456 q 276 431 256 456 q 288 369 296 406 q 250 309 281 333 q 183 285 219 285 q 120 317 140 285 q 107 392 100 349 q 274 574 133 533 l 332 528 l 406 574 q 492 417 515 528 l 363 -190 m 243 369 q 238 399 247 388 q 210 411 228 411 q 178 399 192 411 q 161 369 165 388 q 166 340 157 351 q 193 329 175 329 q 225 340 211 329 q 243 369 239 351 z "},"็":{"ha":0,"x_min":-321,"x_max":67,"o":"m 15 710 q -17 660 8 679 q -69 640 -42 640 q -189 700 -128 640 q -274 639 -229 688 q -306 747 -321 674 q -165 856 -283 856 l -74 856 q 19 956 -6 856 l 67 956 q 15 856 54 896 q -83 815 -24 815 l -179 815 q -260 751 -246 815 q -256 697 -265 721 q -175 742 -212 736 q -118 692 -156 721 q -115 710 -117 703 q -87 756 -110 738 q -36 775 -64 775 q 6 756 -8 775 q 15 710 21 736 m -19 710 q -24 731 -17 722 q -43 740 -31 740 q -67 731 -56 740 q -81 710 -78 722 q -76 688 -83 697 q -57 679 -69 679 q -33 688 -44 679 q -19 710 -22 697 z "},"่":{"ha":0,"x_min":17,"x_max":96,"o":"m 63 944 l 17 944 l 50 1099 l 96 1099 l 63 944 z "},"้":{"ha":0,"x_min":-114,"x_max":242,"o":"m 242 1147 q 103 979 197 1028 q -89 940 28 940 l -114 940 l -108 967 q -31 1021 -58 986 q -72 1037 -56 1021 q -87 1076 -87 1053 q -59 1137 -87 1113 q 0 1161 -31 1161 q 39 1145 24 1161 q 54 1104 54 1129 q 53 1090 54 1096 q -32 976 39 1021 q 190 1147 135 990 l 242 1147 m 14 1090 q 10 1114 17 1104 q -10 1124 3 1124 q -35 1114 -24 1124 q -50 1090 -47 1104 q -45 1067 -53 1076 q -24 1058 -37 1058 q 1 1067 -10 1058 q 14 1090 11 1076 z "},"๊":{"ha":0,"x_min":-267,"x_max":138,"o":"m -154 1007 q -158 1031 -151 1021 q -179 1040 -165 1040 q -205 1031 -193 1040 q -219 1007 -217 1021 q -215 984 -224 993 q -193 975 -207 975 q -169 984 -179 975 q -154 1007 -158 993 m 138 1144 q -106 938 89 938 l -99 968 q -25 1057 -37 996 q -57 1118 -15 1104 l -106 1075 l -135 1118 q -172 1103 -150 1117 q -199 1074 -189 1092 q -185 1078 -192 1076 q -171 1079 -178 1079 q -126 1058 -142 1079 q -117 1008 -111 1038 q -148 959 -124 979 q -201 939 -172 939 q -252 963 -237 939 q -257 1026 -267 986 q -206 1117 -247 1078 q -119 1157 -164 1157 l -96 1115 l -56 1157 q 3 1128 -15 1156 q 13 1060 21 1101 q -35 978 1 1010 q 31 1018 -1 981 q 93 1144 76 1065 l 138 1144 z "},"๋":{"ha":0,"x_min":-43,"x_max":154,"o":"m 146 999 l 72 999 l 61 944 l 18 944 l 29 999 l -43 999 l -35 1038 l 38 1038 l 50 1097 l 93 1097 l 81 1038 l 154 1038 l 146 999 z "},"์":{"ha":0,"x_min":-111,"x_max":163,"o":"m 163 1121 q 104 1057 149 1076 q 38 1036 79 1044 q -14 1018 -1 1029 q 29 995 14 1015 q 38 946 44 975 q 7 895 32 915 q -47 875 -18 875 q -94 895 -78 875 q -106 946 -111 915 q 13 1064 -86 1038 l 78 1082 q 119 1121 114 1093 l 163 1121 m 3 944 q -1 969 6 958 q -22 981 -8 981 q -51 969 -37 981 q -67 944 -64 958 q -61 919 -69 931 q -37 908 -53 908 q -12 919 -24 908 q 3 944 0 931 z "},"ํ":{"ha":0,"x_min":-135,"x_max":96,"o":"m 86 747 q 40 672 76 703 q -40 642 3 642 q -110 672 -85 642 q -125 747 -135 703 q -78 823 -115 792 q 3 854 -40 854 q 72 823 47 854 q 86 747 96 792 m 40 747 q 31 790 46 772 q -6 808 17 808 q -52 790 -31 808 q -79 747 -74 772 q -70 705 -85 722 q -31 688 -56 688 q 14 705 -7 688 q 40 747 35 722 z "},"๎":{"ha":0,"x_min":-189,"x_max":93,"o":"m 93 922 l 72 888 q 22 894 50 894 q -49 851 -40 894 q 8 797 -58 806 l -10 765 q -43 771 -26 771 q -110 753 -82 771 q -142 715 -137 736 q -87 678 -150 678 q -40 689 -69 678 l -46 654 q -112 643 -75 643 q -168 663 -147 643 q -182 717 -189 683 q -142 775 -175 751 q -74 799 -108 799 q -90 851 -99 817 q 32 932 -74 932 q 93 922 69 932 z "},"๏":{"ha":625,"x_min":44,"x_max":556,"o":"m 389 226 q 377 289 397 263 q 319 315 357 315 q 251 289 282 315 q 211 226 219 263 q 224 163 203 189 q 282 138 244 138 q 350 163 319 138 q 389 226 381 189 m 438 226 q 376 128 425 169 q 271 88 328 88 q 182 128 214 88 q 163 226 150 169 q 224 324 175 283 q 329 364 272 364 q 418 324 386 364 q 438 226 450 283 m 486 226 q 460 358 503 304 q 340 413 418 413 q 197 358 263 413 q 114 226 131 304 q 139 93 97 147 q 260 39 181 39 q 403 94 338 39 q 486 226 469 149 m 535 226 q 431 60 514 128 q 250 -8 347 -8 q 98 60 151 -8 q 65 226 44 128 q 169 392 86 324 q 350 461 251 461 q 501 392 446 461 q 535 226 556 322 z "},"๐":{"ha":624,"x_min":17,"x_max":572,"o":"m 553 200 q 451 51 535 111 q 249 -10 367 -10 q 74 51 131 -10 q 35 200 17 111 q 137 349 54 289 q 338 410 219 410 q 514 349 456 410 q 553 200 572 289 m 497 200 q 467 319 513 271 q 328 367 421 367 q 168 319 235 367 q 86 200 101 271 q 117 82 71 129 q 257 35 164 35 q 416 82 350 35 q 497 200 482 129 z "},"๑":{"ha":624,"x_min":13,"x_max":571,"o":"m 550 172 q 439 -26 524 46 l 378 -26 q 497 163 471 39 q 470 308 517 251 q 315 365 424 365 q 165 315 233 365 q 79 185 96 265 q 95 76 65 118 q 186 33 125 33 q 314 106 265 33 q 264 94 286 94 q 203 120 224 94 q 190 185 182 146 q 233 251 199 225 q 306 278 268 278 q 372 246 353 278 q 382 168 392 214 q 317 49 368 100 q 164 -11 257 -11 q 46 50 83 -11 q 29 186 13 106 q 137 349 51 290 q 324 408 222 408 q 514 341 457 408 q 550 172 571 274 m 339 185 q 331 224 343 208 q 296 239 319 239 q 254 224 272 239 q 232 185 236 208 q 238 147 226 161 q 274 132 250 132 q 315 147 297 132 q 339 185 333 161 z "},"๒":{"ha":624,"x_min":-4,"x_max":581,"o":"m 560 203 q 264 -17 513 -17 q 39 193 -4 -17 l 114 549 q 88 590 124 589 l 97 639 q 163 549 181 632 l 86 186 q 275 29 53 29 q 508 196 474 29 q 517 326 526 281 q 485 364 508 364 q 432 340 456 364 q 399 283 408 317 l 367 283 q 314 365 372 365 q 224 299 247 365 q 260 304 235 304 q 315 278 294 304 q 328 218 335 253 q 289 158 321 183 q 224 132 257 132 q 163 164 183 132 q 156 251 143 196 q 213 363 169 318 q 321 408 257 408 q 396 342 383 408 q 490 408 432 408 q 560 360 539 408 q 560 203 581 306 m 288 218 q 281 251 292 238 q 251 264 271 264 q 217 251 233 264 q 196 218 200 238 q 203 186 192 200 q 232 172 214 172 q 267 186 251 172 q 288 218 283 200 z "},"๓":{"ha":624,"x_min":8,"x_max":586,"o":"m 517 0 l 468 0 l 522 261 q 518 338 533 308 q 467 367 503 367 q 402 332 435 367 q 361 256 369 297 l 307 0 l 256 0 l 310 257 q 291 333 318 299 q 224 367 264 367 q 131 317 172 367 q 79 199 94 272 q 74 151 74 175 q 144 181 100 181 q 203 153 182 181 q 215 88 224 125 q 175 24 207 50 q 99 -3 143 -3 q 27 49 46 -3 q 26 186 8 101 q 236 408 74 408 q 349 321 331 408 q 475 408 399 408 q 560 370 533 408 q 572 265 586 332 l 517 0 m 172 89 q 165 126 178 111 q 131 142 153 142 q 90 126 108 142 q 67 89 72 111 q 74 51 63 67 q 108 36 86 36 q 149 51 131 36 q 172 89 168 67 z "},"๔":{"ha":624,"x_min":0,"x_max":697,"o":"m 346 203 q 339 240 350 225 q 306 256 328 256 q 265 240 283 256 q 243 203 247 224 q 249 165 238 181 q 282 150 261 150 q 322 166 303 150 q 346 203 340 182 m 513 -15 q 396 18 444 18 q 294 4 364 18 q 168 -11 221 -10 q 40 41 79 -14 q 21 190 0 96 q 126 353 43 296 q 329 411 210 411 q 514 432 463 411 q 650 575 611 474 l 697 575 q 518 386 635 429 q 318 365 460 365 q 75 186 113 365 q 87 72 60 114 q 176 31 114 31 q 333 51 257 31 q 201 207 175 96 q 244 270 211 246 q 314 294 276 294 q 374 269 354 294 q 386 203 394 243 q 354 147 379 174 q 299 115 329 121 q 396 75 329 90 q 476 53 431 67 q 546 25 521 40 l 513 -15 z "},"๕":{"ha":624,"x_min":0,"x_max":697,"o":"m 433 493 q 426 527 438 513 q 394 542 414 542 q 358 527 375 542 q 338 493 342 513 q 345 460 333 475 q 375 446 357 446 q 412 460 394 446 q 433 493 429 474 m 346 203 q 339 240 350 225 q 306 256 328 256 q 265 240 283 256 q 243 203 247 224 q 249 165 238 181 q 282 150 261 150 q 322 166 303 150 q 346 203 340 182 m 513 -15 q 396 18 444 18 q 294 4 364 18 q 168 -11 221 -10 q 40 41 79 -14 q 21 190 0 96 q 126 353 43 296 q 332 411 210 411 q 296 493 283 435 q 336 557 304 531 q 404 583 368 583 q 463 557 442 583 q 475 493 483 531 q 406 413 463 436 q 514 432 479 418 q 650 575 611 474 l 697 575 q 518 386 635 429 q 318 365 460 365 q 75 186 113 365 q 87 72 60 114 q 176 31 114 31 q 333 51 257 31 q 201 207 175 96 q 244 270 211 246 q 314 294 276 294 q 374 269 354 294 q 386 203 394 243 q 354 147 379 174 q 299 115 329 121 q 396 75 329 90 q 476 53 431 67 q 546 25 521 40 l 513 -15 z "},"๖":{"ha":624,"x_min":51,"x_max":589,"o":"m 569 214 q 246 -11 524 -11 q 98 24 144 -11 q 64 118 51 60 q 105 185 72 158 q 176 211 138 211 q 238 185 217 211 q 250 118 258 158 q 189 39 238 65 q 268 33 231 33 q 436 76 374 35 q 518 211 499 118 q 485 323 532 281 q 346 365 439 365 q 100 261 197 365 q 86 575 138 472 l 146 575 q 153 350 179 478 q 344 408 239 408 q 529 360 471 408 q 569 214 589 307 m 211 118 q 203 157 215 142 q 168 172 192 172 q 126 157 144 172 q 104 118 108 142 q 110 80 99 94 q 144 65 121 65 q 187 80 168 65 q 211 118 206 94 z "},"๗":{"ha":624,"x_min":-6,"x_max":667,"o":"m 163 86 q 154 126 168 111 q 119 140 140 140 q 80 124 99 140 q 57 86 61 108 q 65 51 53 67 q 97 35 78 35 q 138 50 119 35 q 163 86 157 65 m 667 575 q 596 351 629 514 q 586 303 586 307 q 476 51 544 106 q 332 -3 408 -3 l 325 -3 q 429 236 408 138 q 385 367 457 367 q 329 332 357 367 q 293 256 301 297 l 279 190 l 226 190 l 240 257 q 231 332 249 297 q 185 367 214 367 q 114 321 147 367 q 64 201 81 275 q 57 150 58 171 q 128 181 85 181 q 188 153 167 181 q 201 86 210 125 q 160 22 193 49 q 89 -4 126 -4 q 14 45 33 -4 q 11 182 -6 94 q 83 347 33 286 q 193 408 133 408 q 281 321 269 408 q 396 408 319 408 q 478 236 514 408 q 404 56 457 143 q 536 282 492 75 q 615 575 586 522 l 667 575 z "},"๘":{"ha":624,"x_min":-7,"x_max":633,"o":"m 554 165 q 379 -7 517 -7 q 211 113 278 -7 q 140 57 190 104 q 79 -12 89 10 q 26 197 -7 36 q 322 408 71 408 q 376 406 343 408 q 425 403 408 403 q 518 429 485 403 q 581 551 561 464 l 585 575 l 633 575 l 628 547 q 422 354 588 354 q 360 357 397 354 q 301 360 322 360 q 151 317 208 360 q 81 203 94 274 q 85 69 58 103 q 236 174 158 147 q 290 93 247 136 q 385 39 340 39 q 472 76 438 39 q 442 72 447 72 q 381 99 403 72 q 368 165 360 126 q 409 231 376 204 q 481 258 442 258 q 541 231 519 258 q 554 165 563 204 m 513 165 q 505 201 517 186 q 472 217 493 217 q 433 201 451 217 q 410 165 414 186 q 417 129 406 144 q 450 114 429 114 q 490 129 471 114 q 513 165 508 144 z "},"๙":{"ha":624,"x_min":0,"x_max":636,"o":"m 524 22 l 489 -15 q 386 140 438 33 q 333 292 346 224 q 302 341 329 317 q 238 367 275 365 q 135 317 189 367 q 67 193 82 267 q 107 51 54 90 l 107 60 q 116 105 107 83 q 141 142 125 126 q 177 168 157 158 q 219 178 197 178 q 273 157 253 178 q 293 104 293 136 q 283 61 293 81 q 256 27 272 42 q 220 4 240 13 q 181 -4 200 -4 q 40 51 81 -6 q 18 200 0 107 q 103 351 38 292 q 244 410 168 410 q 360 340 324 410 q 428 408 379 408 q 471 387 440 408 q 517 365 501 365 q 579 444 561 365 q 594 575 594 519 l 636 575 q 621 449 633 504 q 519 321 594 321 q 466 343 504 321 q 424 365 428 365 q 386 314 403 365 q 415 181 383 258 q 524 22 460 86 m 251 86 q 244 122 256 107 q 211 138 232 138 q 172 122 190 138 q 149 86 153 107 q 156 50 143 65 q 189 35 168 35 q 228 50 210 35 q 251 86 246 65 z "},"๚":{"ha":725,"x_min":104,"x_max":703,"o":"m 597 47 q 531 -51 581 -18 l 492 -26 q 551 65 539 10 l 633 454 q 600 500 643 497 q 482 378 550 408 l 413 47 q 346 -51 396 -18 l 307 -26 q 367 65 354 10 l 449 454 q 415 500 458 497 q 225 364 338 364 q 132 392 160 364 q 114 467 104 421 q 153 529 121 503 q 222 556 186 556 q 278 529 258 556 q 292 467 299 503 q 261 413 285 436 q 385 544 343 439 l 435 544 q 500 458 518 544 l 494 438 q 569 544 540 474 l 619 544 q 685 458 703 544 l 597 47 m 243 468 q 238 498 247 486 q 211 510 229 510 q 179 498 193 510 q 161 468 165 486 q 166 439 157 450 q 193 428 175 428 q 225 439 211 428 q 243 468 239 450 z "},"๛":{"ha":968,"x_min":79,"x_max":922,"o":"m 304 449 q 300 444 304 444 l 296 444 l 297 453 l 301 453 q 304 449 306 453 m 307 449 q 301 454 308 454 l 294 454 l 290 435 l 293 435 l 294 443 l 299 443 q 307 449 306 443 m 344 449 q 340 444 344 444 l 336 444 l 338 453 l 342 453 q 344 449 346 453 m 288 435 l 288 438 l 278 438 l 282 454 l 279 454 l 275 435 l 288 435 m 254 442 l 251 442 q 244 436 250 436 q 242 444 239 436 q 249 453 243 453 q 253 447 253 453 l 256 447 q 249 454 254 454 q 239 444 240 454 q 244 435 236 435 q 254 442 253 435 m 329 440 q 319 449 326 444 q 325 453 321 453 q 326 449 326 450 l 329 449 q 325 454 331 454 q 317 449 318 454 q 326 440 321 444 q 321 436 325 436 q 318 442 317 436 l 315 442 q 321 435 314 435 q 329 440 328 435 m 271 435 l 275 454 l 272 454 l 271 446 l 261 446 l 263 454 l 260 454 l 256 435 l 258 435 l 261 444 l 271 444 l 268 435 l 271 435 m 363 435 l 358 446 l 367 454 l 363 454 l 354 444 l 356 454 l 353 454 l 349 435 l 351 435 l 353 442 l 357 444 l 358 435 l 363 435 m 347 449 q 342 454 349 454 l 335 454 l 331 435 l 333 435 l 335 443 l 339 443 q 347 449 346 443 m 915 249 l 922 249 q 861 233 890 233 q 789 268 815 233 q 733 192 765 201 q 715 238 721 192 q 700 306 708 296 q 636 178 674 178 q 622 228 628 178 q 608 299 618 283 q 526 163 571 163 q 515 217 518 163 q 503 299 510 286 q 240 33 447 33 q 117 93 154 33 q 100 254 79 153 q 178 415 122 358 q 311 472 233 472 q 401 434 374 472 q 415 329 429 396 q 371 229 403 269 q 275 179 331 179 q 227 202 244 179 q 217 256 210 225 q 249 310 222 288 q 307 332 275 332 q 361 304 343 332 l 361 307 q 372 340 368 321 q 306 429 390 429 q 208 381 249 429 q 149 247 167 332 q 162 125 133 171 q 250 79 190 79 q 388 139 332 79 q 468 308 444 199 q 478 374 476 351 q 550 226 551 358 q 579 304 571 267 q 582 371 585 331 q 658 250 638 354 q 676 301 672 285 q 679 353 679 314 q 744 236 736 336 q 768 285 761 254 q 772 322 772 301 q 824 283 779 321 q 915 249 864 249 m 331 256 q 324 283 333 271 q 300 294 315 294 q 270 283 285 294 q 253 256 256 271 q 258 228 249 240 q 283 217 268 217 q 313 228 299 217 q 331 256 326 240 z "},"‌":{"ha":0,"x_min":-19,"x_max":21,"o":"m 21 -214 l -19 -214 l -19 532 l 21 532 l 21 -214 z "},"‍":{"ha":0,"x_min":-71,"x_max":72,"o":"m 21 -214 l -19 -214 l -19 408 l -47 381 l -71 404 l -19 456 l -71 510 l -46 532 l 0 481 l 47 532 l 72 510 l 21 456 l 72 404 l 47 381 l 21 408 l 21 -214 z "},"‎":{"ha":0,"x_min":-19,"x_max":226,"o":"m 21 -214 l -19 -214 l -19 483 l 156 483 l 132 508 l 154 531 l 226 458 l 154 386 l 132 410 l 156 435 l 21 435 l 21 -214 z "},"‏":{"ha":0,"x_min":-225,"x_max":21,"o":"m 21 -214 l -19 -214 l -19 435 l -154 435 l -131 410 l -153 386 l -225 458 l -153 531 q -143 519 -150 526 q -131 508 -136 513 l -154 483 l 21 483 l 21 -214 z "},"–":{"ha":500,"x_min":18,"x_max":468,"o":"m 458 229 l 18 229 l 28 275 l 468 275 l 458 229 z "},"—":{"ha":1000,"x_min":19,"x_max":964,"o":"m 954 229 l 19 229 l 29 275 l 964 275 l 954 229 z "},"‘":{"ha":343,"x_min":146,"x_max":319,"o":"m 257 518 q 233 480 251 496 q 193 464 214 464 q 158 480 171 464 q 151 518 146 496 q 236 665 169 601 q 304 715 275 701 l 319 692 q 210 567 232 642 q 217 568 218 568 q 249 553 236 568 q 257 518 261 538 z "},"’":{"ha":343,"x_min":142,"x_max":315,"o":"m 310 644 q 226 497 292 561 q 157 447 186 461 l 142 471 q 251 596 229 521 q 243 594 242 594 q 212 610 224 594 q 204 644 200 625 q 228 683 210 667 q 267 699 246 699 q 303 683 290 699 q 310 644 315 668 z "},"‚":{"ha":343,"x_min":14,"x_max":188,"o":"m 182 43 q 99 -104 164 -40 q 29 -154 58 -140 l 14 -131 q 124 -6 101 -81 q 113 -7 117 -7 q 81 8 89 -7 q 76 43 72 24 q 99 81 81 65 q 139 97 118 97 q 175 82 163 97 q 182 43 188 67 z "},"“":{"ha":514,"x_min":153,"x_max":488,"o":"m 425 518 q 401 480 419 496 q 361 464 382 464 q 326 480 339 464 q 319 518 314 496 q 404 665 338 601 q 472 715 443 701 l 488 692 q 378 567 400 642 q 385 568 386 568 q 417 553 404 568 q 425 518 429 538 m 264 518 q 240 480 258 496 q 200 464 221 464 q 165 480 178 464 q 158 518 153 496 q 243 665 176 601 q 311 715 282 701 l 326 692 q 217 567 239 642 q 224 568 225 568 q 256 553 243 568 q 264 518 268 538 z "},"”":{"ha":514,"x_min":149,"x_max":483,"o":"m 317 644 q 233 497 299 561 q 164 447 193 461 l 149 471 q 258 596 236 521 q 250 594 249 594 q 219 610 231 594 q 211 644 207 625 q 235 683 217 667 q 274 699 253 699 q 310 683 297 699 q 317 644 322 668 m 478 644 q 394 497 460 561 q 325 447 354 461 l 310 471 q 419 596 397 521 q 411 594 410 594 q 380 610 392 594 q 372 644 368 625 q 396 683 378 667 q 435 699 414 699 q 471 683 458 699 q 478 644 483 668 z "},"„":{"ha":514,"x_min":21,"x_max":356,"o":"m 189 43 q 106 -104 171 -40 q 36 -154 65 -140 l 21 -131 q 131 -6 108 -81 q 119 -7 124 -7 q 88 8 96 -7 q 83 43 79 24 q 106 81 88 65 q 146 97 125 97 q 182 82 169 97 q 189 43 194 67 m 350 43 q 267 -104 332 -40 q 197 -154 226 -140 l 182 -131 q 292 -6 269 -81 q 281 -7 285 -7 q 249 8 257 -7 q 244 43 240 24 q 267 81 249 65 q 307 97 286 97 q 343 82 331 97 q 350 43 356 67 z "},"†":{"ha":519,"x_min":79,"x_max":500,"o":"m 500 447 l 490 401 l 311 407 l 214 -47 l 164 -47 l 261 407 l 79 401 l 89 447 l 268 442 l 314 658 l 364 658 l 318 442 l 500 447 z "},"‡":{"ha":519,"x_min":26,"x_max":500,"o":"m 500 447 l 490 401 l 311 407 l 265 196 l 447 201 l 438 156 l 258 161 l 214 -47 l 164 -47 l 208 161 l 26 156 l 36 201 l 215 196 l 261 407 l 79 401 l 89 447 l 268 442 l 314 658 l 364 658 l 318 442 l 500 447 z "},"•":{"ha":300,"x_min":33,"x_max":267,"o":"m 267 278 q 233 195 267 229 q 150 161 199 161 q 67 195 101 161 q 33 278 33 229 q 67 360 33 326 q 150 394 100 394 q 233 360 199 394 q 267 278 267 325 z "},"…":{"ha":665,"x_min":7,"x_max":554,"o":"m 107 39 q 85 6 103 19 q 49 -8 68 -8 q 18 6 29 -8 q 11 39 7 19 q 33 73 15 58 q 69 88 50 88 q 100 73 89 88 q 107 39 111 58 m 329 39 q 308 6 325 19 q 271 -8 290 -8 q 240 6 251 -8 q 233 39 229 19 q 255 73 238 58 q 292 88 272 88 q 322 73 311 88 q 329 39 333 58 m 550 39 q 528 6 546 19 q 492 -8 511 -8 q 461 6 472 -8 q 454 39 450 19 q 476 73 458 58 q 513 88 493 88 q 543 73 532 88 q 550 39 554 58 z "},"‰":{"ha":1151,"x_min":43,"x_max":1125,"o":"m 656 661 l 703 661 l 157 -12 l 110 -12 l 656 661 m 1083 193 q 893 -4 1042 -4 q 786 193 744 -4 q 976 390 828 390 q 1083 193 1125 390 m 382 464 q 192 267 340 267 q 85 464 43 267 q 276 661 128 661 q 382 464 425 661 m 332 464 q 267 617 365 617 q 135 464 168 617 q 201 311 103 311 q 332 464 300 311 m 1033 193 q 967 346 1065 346 q 836 193 868 346 q 903 40 804 40 q 1033 193 1001 40 m 739 193 q 549 -4 697 -4 q 442 193 400 -4 q 632 390 483 390 q 739 193 781 390 m 689 193 q 622 346 721 346 q 492 193 524 346 q 558 40 460 40 q 689 193 657 40 z "},"′":{"ha":174,"x_min":69,"x_max":231,"o":"m 107 515 l 69 515 l 154 661 l 231 661 l 107 515 z "},"″":{"ha":297,"x_min":69,"x_max":354,"o":"m 107 515 l 69 515 l 154 661 l 231 661 l 107 515 m 231 515 l 193 515 l 278 661 l 354 661 l 231 515 z "},"‹":{"ha":254,"x_min":7,"x_max":257,"o":"m 124 67 l 7 246 l 199 429 l 257 429 l 65 246 l 182 67 l 124 67 z "},"›":{"ha":254,"x_min":-18,"x_max":231,"o":"m 39 67 l -18 67 l 172 246 l 58 429 l 117 429 l 231 246 l 39 67 z "},"⁄":{"ha":225,"x_min":-110,"x_max":356,"o":"m -60 0 l -110 0 l 306 661 l 356 661 l -60 0 z "},"€":{"ha":564,"x_min":-15,"x_max":601,"o":"m 464 69 l 471 25 q 283 -10 390 -10 q 113 49 179 -10 q 35 208 46 108 l -15 208 l -6 253 l 32 253 q 42 332 35 294 q 60 393 49 364 l 24 393 l 32 438 l 78 438 q 225 607 131 543 q 428 671 319 671 q 601 636 535 671 l 575 592 q 421 624 507 624 q 260 574 338 624 q 135 438 182 524 l 483 438 l 475 393 l 115 393 q 97 331 104 364 q 89 253 89 289 l 444 253 l 435 208 l 92 208 q 162 83 106 129 q 296 38 218 38 q 464 69 382 38 z "},"ℓ":{"ha":290,"x_min":31,"x_max":310,"o":"m 194 31 q 138 6 164 15 q 97 -4 111 -4 q 58 93 38 -4 l 96 274 l 47 244 l 31 283 l 108 331 l 146 506 q 243 622 171 622 q 296 594 282 622 q 300 517 310 565 q 245 387 283 440 q 150 301 207 333 l 106 92 q 124 47 96 47 q 206 82 149 47 l 194 31 m 253 507 q 258 558 260 538 q 236 579 256 579 q 193 506 208 579 l 161 358 q 222 424 200 388 q 253 507 243 461 z "},"™":{"ha":782,"x_min":100,"x_max":758,"o":"m 383 644 l 263 644 l 263 336 l 221 336 l 221 644 l 100 644 l 100 683 l 383 683 l 383 644 m 758 336 l 715 336 l 699 611 l 590 336 l 560 336 l 451 611 l 435 336 l 392 336 l 415 683 l 461 683 l 575 390 l 689 683 l 735 683 l 758 336 z "},"Ω":{"ha":629,"x_min":-11,"x_max":606,"o":"m 519 0 l 308 0 l 342 160 q 526 369 496 226 q 503 517 546 460 q 375 574 460 574 q 224 517 290 574 q 138 369 157 460 q 233 160 107 226 l 200 0 l -11 0 l 0 46 l 160 46 l 176 128 q 95 216 125 150 q 82 365 65 282 q 191 554 108 488 q 386 621 274 621 q 552 554 499 621 q 579 365 606 488 q 503 216 563 282 q 385 128 444 150 l 368 46 l 529 46 l 519 0 z "},"℮":{"ha":435,"x_min":11,"x_max":413,"o":"m 347 310 q 338 442 358 397 q 264 488 317 488 q 169 442 208 488 q 106 310 131 397 l 347 310 m 353 143 q 158 -10 288 -10 q 41 62 71 -10 q 42 278 11 133 q 133 469 68 404 q 274 533 199 533 q 385 465 357 533 q 389 269 413 396 l 96 269 q 91 92 72 147 q 168 36 110 36 q 246 64 210 36 q 301 143 282 92 l 353 143 z "},"∂":{"ha":440,"x_min":-6,"x_max":474,"o":"m 422 392 q 324 139 392 246 q 94 -7 228 -7 q 21 29 44 -7 q 8 140 -6 69 q 138 332 33 261 q 339 393 228 393 q 365 392 357 393 q 329 576 403 576 q 215 481 268 576 l 175 507 q 339 629 251 629 q 422 392 474 629 m 354 343 q 328 344 344 344 q 151 279 225 344 q 68 140 85 221 q 122 50 49 50 q 274 165 199 50 q 354 343 331 254 z "},"∆":{"ha":658,"x_min":-60,"x_max":599,"o":"m 519 49 l 382 531 l 39 49 l 519 49 m 599 0 l -60 0 l 408 656 l 599 0 z "},"∏":{"ha":619,"x_min":0,"x_max":625,"o":"m 468 -76 l 414 -76 l 561 615 l 200 615 l 53 -76 l 0 -76 l 156 661 l 625 661 l 468 -76 z "},"∑":{"ha":571,"x_min":-40,"x_max":611,"o":"m 475 -76 l -40 -76 l -28 -14 l 315 303 l 103 601 l 115 661 l 611 661 l 601 615 l 163 615 l 371 319 l 364 283 l 25 -31 l 485 -31 l 475 -76 z "},"−":{"ha":571,"x_min":65,"x_max":493,"o":"m 483 229 l 65 229 l 75 275 l 493 275 l 483 229 z "},"√":{"ha":486,"x_min":39,"x_max":565,"o":"m 188 -14 l 144 -14 l 110 319 l 39 319 l 47 358 l 156 358 l 183 54 l 517 656 l 565 656 l 188 -14 z "},"∞":{"ha":858,"x_min":63,"x_max":801,"o":"m 403 307 q 261 413 331 413 q 167 381 203 413 q 121 306 131 349 q 133 222 110 254 q 214 189 157 189 q 315 226 261 189 q 403 307 369 263 m 786 292 q 725 190 774 232 q 597 149 676 149 q 422 275 499 149 q 204 149 311 149 q 97 192 132 149 q 79 308 63 235 q 140 410 92 368 q 268 451 189 451 q 442 326 358 451 q 661 451 556 451 q 767 408 733 451 q 786 292 801 365 m 744 294 q 731 378 754 346 q 650 411 707 411 q 549 374 603 411 q 461 293 496 338 q 604 188 535 188 q 699 219 663 188 q 744 294 735 251 z "},"∫":{"ha":336,"x_min":-142,"x_max":421,"o":"m 58 -15 q -86 -143 11 -143 q -142 -136 -119 -143 l -126 -92 q -78 -97 -111 -99 q 8 -22 -19 -93 l 218 546 q 374 669 263 669 q 421 665 403 669 l 403 622 q 381 624 396 624 q 311 606 339 624 q 267 543 283 589 l 58 -15 z "},"≈":{"ha":571,"x_min":24,"x_max":539,"o":"m 539 425 l 536 417 q 481 318 522 353 q 401 289 446 289 q 295 334 347 289 q 194 379 243 379 q 107 289 129 379 l 64 289 l 65 300 q 118 392 78 358 q 204 425 158 425 q 310 381 257 425 q 414 338 364 338 q 496 425 474 338 l 539 425 m 499 240 l 497 232 q 442 133 483 168 q 361 104 406 104 q 255 149 307 104 q 154 194 203 194 q 67 104 89 194 l 24 104 l 26 115 q 78 207 39 174 q 164 240 118 240 q 271 197 217 240 q 375 153 325 153 q 456 240 435 153 l 499 240 z "},"≠":{"ha":571,"x_min":46,"x_max":513,"o":"m 474 188 l 464 142 l 221 142 l 114 -12 l 61 -12 l 168 142 l 46 142 l 56 188 l 200 188 l 294 322 l 85 322 l 94 368 l 326 368 l 413 492 l 469 492 l 382 368 l 513 368 l 503 322 l 350 322 l 254 188 l 474 188 z "},"≤":{"ha":571,"x_min":24,"x_max":497,"o":"m 435 22 l 24 22 l 32 64 l 443 64 l 435 22 m 413 78 l 100 243 l 114 308 l 497 474 l 486 421 l 156 275 l 424 129 l 413 78 z "},"≥":{"ha":571,"x_min":24,"x_max":463,"o":"m 435 22 l 24 22 l 32 64 l 443 64 l 435 22 m 449 243 l 64 78 l 75 129 l 407 275 l 138 421 l 149 474 l 463 308 l 449 243 z "},"◊":{"ha":536,"x_min":44,"x_max":489,"o":"m 489 275 l 238 0 l 179 0 l 44 275 l 296 553 l 354 553 l 489 275 m 443 275 l 319 528 l 90 275 l 213 22 l 443 275 z "},"◌":{"ha":556,"x_min":-36,"x_max":471,"o":"m 243 511 q 235 492 243 500 q 217 485 228 485 q 198 492 206 485 q 190 511 190 500 q 198 530 190 522 q 217 538 206 538 q 235 530 228 538 q 243 511 243 522 m 243 57 q 235 38 243 46 q 217 31 228 31 q 198 38 206 31 q 190 57 190 46 q 198 76 190 68 q 217 83 206 83 q 235 76 228 83 q 243 57 243 68 m 15 285 q 8 267 15 274 q -11 260 0 260 q -29 267 -22 260 q -36 285 -36 274 q -29 303 -36 296 q -11 311 -22 311 q 8 303 0 311 q 15 285 15 296 m 471 285 q 463 267 471 274 q 444 260 456 260 q 426 267 433 260 q 419 285 419 274 q 426 303 419 296 q 444 311 433 311 q 463 303 456 311 q 471 285 471 296 m 33 369 q 26 351 33 358 q 7 344 18 344 q -11 351 -4 344 q -18 369 -18 358 q -11 388 -18 381 q 7 396 -4 396 q 26 388 18 396 q 33 369 33 381 m 82 446 q 74 428 82 435 q 56 421 67 421 q 38 428 44 421 q 31 446 31 435 q 38 465 31 457 q 56 472 44 472 q 74 465 67 472 q 82 446 82 457 m 156 494 q 148 476 156 483 q 129 469 140 469 q 111 476 118 469 q 104 494 104 483 q 111 513 104 506 q 129 521 118 521 q 148 513 140 521 q 156 494 156 506 m 451 369 q 444 351 451 358 q 426 344 438 344 q 408 351 415 344 q 400 369 400 358 q 408 388 400 381 q 426 396 415 396 q 444 388 438 396 q 451 369 451 381 m 403 446 q 396 428 403 435 q 378 421 389 421 q 359 428 367 421 q 351 446 351 435 q 359 465 351 457 q 378 472 367 472 q 396 465 389 472 q 403 446 403 457 m 329 494 q 322 476 329 483 q 304 469 315 469 q 285 476 293 469 q 278 494 278 483 q 285 513 278 506 q 304 521 293 521 q 322 513 315 521 q 329 494 329 506 m 33 199 q 26 180 33 188 q 7 172 18 172 q -11 180 -4 172 q -18 199 -18 188 q -11 217 -18 210 q 7 224 -4 224 q 26 217 18 224 q 33 199 33 210 m 82 122 q 74 103 82 111 q 56 96 67 96 q 38 103 44 96 q 31 122 31 111 q 38 140 31 133 q 56 147 44 147 q 74 140 67 147 q 82 122 82 133 m 156 74 q 148 55 156 63 q 129 47 140 47 q 111 55 118 47 q 104 74 104 63 q 111 92 104 85 q 129 99 118 99 q 148 92 140 99 q 156 74 156 85 m 453 199 q 446 180 453 188 q 428 172 439 172 q 409 180 417 172 q 401 199 401 188 q 409 217 401 210 q 428 224 417 224 q 446 217 439 224 q 453 199 453 210 m 404 122 q 397 103 404 111 q 379 96 390 96 q 360 103 368 96 q 353 122 353 111 q 360 140 353 133 q 379 147 368 147 q 397 140 390 147 q 404 122 404 133 m 331 74 q 324 55 331 63 q 306 47 317 47 q 287 55 294 47 q 279 74 279 63 q 287 92 279 85 q 306 99 294 99 q 324 92 317 99 q 331 74 331 85 z "},"":{"ha":467,"x_min":42,"x_max":496,"o":"m 356 110 q 219 -12 331 -12 q 135 110 110 -12 l 150 181 q 114 175 133 175 q 60 198 79 175 q 50 256 42 221 q 86 316 57 292 q 150 340 115 340 q 206 319 186 340 q 217 258 225 297 l 185 106 q 229 33 169 33 q 306 106 290 33 l 347 307 q 228 374 356 340 q 63 407 151 394 q 134 513 81 471 q 261 556 188 556 q 336 540 290 556 q 408 525 382 525 q 456 556 442 525 l 496 546 q 400 474 458 474 q 319 490 369 474 q 242 507 269 507 q 176 488 210 507 q 135 444 142 469 q 321 394 267 417 q 399 311 410 360 l 356 110 m 169 257 q 164 283 172 272 q 140 294 156 294 q 112 283 125 294 q 96 257 99 272 q 100 231 92 242 q 124 221 108 221 q 152 231 139 221 q 169 257 165 242 z "},"":{"ha":0,"x_min":-507,"x_max":-100,"o":"m -108 632 q -396 689 -256 689 q -507 681 -446 689 q -422 797 -490 753 q -287 838 -361 838 q -108 632 -100 838 m -151 685 q -294 797 -187 797 q -442 724 -392 797 q -375 728 -411 728 q -151 685 -242 728 z "},"":{"ha":0,"x_min":-507,"x_max":-60,"o":"m -108 632 q -396 689 -256 689 q -507 681 -446 689 q -422 797 -490 753 q -287 838 -361 838 q -135 764 -176 838 l -106 899 l -60 899 l -108 669 q -108 632 -107 651 m -151 685 q -294 797 -187 797 q -442 724 -392 797 q -375 728 -411 728 q -151 685 -242 728 z "},"":{"ha":0,"x_min":-507,"x_max":-24,"o":"m -108 632 q -396 689 -256 689 q -507 681 -446 689 q -422 797 -490 753 q -287 838 -361 838 q -167 801 -212 838 q -165 824 -168 813 q -135 872 -160 851 q -83 892 -111 892 q -40 872 -56 892 q -29 824 -24 851 q -60 776 -36 796 q -112 756 -85 756 q -129 758 -119 756 q -108 632 -106 710 m -151 685 q -294 797 -187 797 q -442 724 -392 797 q -375 728 -411 728 q -151 685 -242 728 m -61 824 q -67 849 -58 839 q -90 860 -75 860 q -118 849 -106 860 q -133 824 -131 839 q -129 798 -137 808 q -106 788 -121 788 q -78 798 -90 788 q -61 824 -65 808 z "},"":{"ha":0,"x_min":-507,"x_max":-61,"o":"m -151 685 q -294 797 -187 797 q -442 724 -392 797 q -375 728 -411 728 q -151 685 -242 728 m -110 632 q -396 689 -256 689 q -507 681 -446 689 q -422 797 -490 753 q -287 838 -361 838 q -231 832 -256 838 l -217 899 l -171 899 l -189 815 q -135 764 -153 797 l -107 899 l -61 899 l -110 669 q -110 632 -108 651 z "},"":{"ha":0,"x_min":-197,"x_max":-103,"o":"m -146 653 l -197 653 l -154 853 l -103 853 l -146 653 z "},"":{"ha":0,"x_min":-331,"x_max":65,"o":"m 65 876 q -87 690 15 744 q -303 646 -174 646 l -331 646 l -324 675 q -235 739 -265 697 q -297 818 -312 749 q -265 869 -292 849 q -207 889 -237 889 q -157 867 -172 889 q -149 811 -142 844 q -239 686 -165 733 q 8 876 -50 700 l 65 876 m -186 814 q -191 840 -183 829 q -214 850 -199 850 q -242 840 -229 850 q -258 814 -256 829 q -253 788 -261 799 q -229 778 -244 778 q -201 788 -214 778 q -186 814 -189 799 z "},"":{"ha":0,"x_min":-375,"x_max":46,"o":"m 46 876 q -208 660 -7 660 l -201 692 q -124 785 -137 719 q -158 847 -114 835 l -210 803 l -240 849 q -275 833 -253 847 q -304 804 -297 818 q -279 807 -285 807 q -219 732 -206 803 q -308 661 -242 661 q -360 688 -346 661 q -367 753 -375 714 q -312 847 -356 804 q -222 889 -268 889 l -199 844 l -156 889 q -94 859 -114 888 q -85 788 -75 831 q -133 701 -96 736 q -65 743 -101 704 q 0 876 -18 794 l 46 876 m -258 732 q -263 757 -256 747 q -285 767 -271 767 q -311 757 -299 767 q -326 732 -324 747 q -322 708 -331 717 q -300 699 -314 699 q -274 708 -286 699 q -258 732 -262 717 z "},"":{"ha":0,"x_min":-297,"x_max":-83,"o":"m -92 731 l -171 731 l -187 653 l -235 653 l -218 731 l -297 731 l -289 768 l -210 768 l -194 842 l -147 842 l -162 768 l -83 768 l -92 731 z "},"":{"ha":0,"x_min":-267,"x_max":21,"o":"m 21 914 q -37 846 7 867 q -108 824 -64 833 q -162 806 -151 817 q -117 781 -133 803 q -108 729 -101 760 q -141 676 -115 697 q -199 654 -167 654 q -249 676 -231 654 q -260 729 -267 697 q -135 853 -239 826 l -65 872 q -22 914 -28 885 l 21 914 m -144 728 q -150 754 -142 743 q -174 765 -158 765 q -203 754 -189 765 q -219 728 -217 743 q -214 701 -222 713 q -190 690 -206 690 q -161 701 -175 690 q -144 728 -147 713 z "},"":{"ha":0,"x_min":-46,"x_max":46,"o":"m 4 667 l -46 667 l -4 867 l 46 867 l 4 667 z "},"":{"ha":0,"x_min":-239,"x_max":156,"o":"m 156 893 q 3 707 107 761 q -211 663 -82 663 l -239 663 l -233 692 q -144 756 -174 714 q -207 835 -221 765 q -174 885 -200 865 q -117 906 -147 906 q -67 883 -82 906 q -58 828 -51 861 q -149 703 -75 750 q 99 893 39 717 l 156 893 m -94 831 q -100 856 -92 846 q -124 867 -108 867 q -151 856 -139 867 q -167 831 -164 846 q -162 805 -171 815 q -139 794 -154 794 q -111 805 -124 794 q -94 831 -99 815 z "},"":{"ha":0,"x_min":-308,"x_max":113,"o":"m 113 864 q -140 647 60 647 l -135 679 q -57 772 -71 707 q -92 835 -47 822 l -143 790 l -174 836 q -208 820 -186 835 q -237 792 -231 806 q -212 794 -218 794 q -153 719 -139 790 q -242 649 -168 649 q -294 675 -279 649 q -300 740 -308 701 q -245 834 -289 792 q -156 876 -201 876 l -132 832 l -89 876 q -28 847 -47 875 q -18 775 -8 818 q -67 689 -29 724 q 0 731 -35 692 q 65 864 47 782 l 113 864 m -192 719 q -197 744 -189 735 q -218 754 -204 754 q -244 744 -232 754 q -260 719 -257 735 q -255 695 -264 704 q -232 686 -246 686 q -207 695 -218 686 q -192 719 -196 704 z "},"":{"ha":0,"x_min":-108,"x_max":107,"o":"m 99 739 l 19 739 l 3 661 l -46 661 l -29 739 l -108 739 l -100 781 l -21 781 l -6 854 l 43 854 l 28 781 l 107 781 l 99 739 z "},"":{"ha":0,"x_min":-171,"x_max":117,"o":"m 117 914 q 57 846 103 867 q -12 824 31 833 q -67 806 -56 817 q -22 781 -37 803 q -12 729 -6 760 q -45 676 -19 697 q -103 654 -71 654 q -153 676 -135 654 q -164 729 -171 697 q -39 853 -143 826 l 29 872 q 72 914 67 885 l 117 914 m -49 728 q -54 754 -46 743 q -78 765 -62 765 q -107 754 -93 765 q -124 728 -121 743 q -118 701 -126 713 q -94 690 -110 690 q -65 701 -79 690 q -49 728 -51 713 z "},"":{"ha":711,"x_min":26,"x_max":721,"o":"m 175 79 q 168 113 179 99 q 138 126 157 126 q 102 113 118 126 q 82 79 86 99 q 88 47 78 60 q 118 33 99 33 q 154 47 138 33 q 175 79 171 60 m 607 114 q 444 -11 581 -11 q 336 115 310 -11 l 390 368 q 286 511 421 511 q 198 485 242 511 q 129 415 154 458 q 228 354 206 410 q 162 318 193 347 q 122 253 131 289 l 103 163 q 147 171 124 171 q 207 144 186 171 q 219 81 228 118 q 184 15 211 43 q 108 -12 157 -12 q 47 13 68 -12 q 36 82 26 39 l 72 251 q 168 361 88 326 q 61 376 119 382 q 156 505 90 454 q 299 556 222 556 q 422 508 385 556 q 442 374 460 461 l 386 111 q 456 33 369 33 q 557 111 540 33 l 642 510 q 682 593 653 563 l 721 568 q 688 492 701 551 l 607 114 z "},"":{"ha":0,"x_min":-383,"x_max":42,"o":"m 42 858 q -53 703 19 764 q -219 643 -126 643 q -342 676 -300 643 q -372 764 -383 710 q -332 826 -364 800 q -264 853 -300 853 q -207 827 -228 853 q -193 765 -186 801 q -251 690 -204 718 q -200 686 -232 686 q -76 740 -132 688 q -10 858 -28 789 l 42 858 m -237 767 q -244 799 -233 786 q -272 813 -254 813 q -307 799 -290 813 q -328 767 -324 786 q -321 735 -332 747 q -292 722 -310 722 q -258 735 -274 722 q -237 767 -242 747 z "},"":{"ha":0,"x_min":-331,"x_max":-99,"o":"m -108 747 q -155 672 -118 703 q -236 642 -192 642 q -306 672 -281 642 q -321 747 -331 703 q -274 823 -311 792 q -192 854 -236 854 q -123 823 -147 854 q -108 747 -99 792 m -154 747 q -163 790 -149 772 q -201 808 -178 808 q -248 790 -226 808 q -275 747 -269 772 q -266 705 -281 722 q -226 688 -251 688 q -181 705 -203 688 q -154 747 -160 722 z "},"":{"ha":0,"x_min":-431,"x_max":-42,"o":"m -93 710 q -126 660 -100 679 q -179 640 -151 640 q -299 700 -237 640 q -383 639 -339 688 q -415 747 -431 674 q -275 856 -393 856 l -183 856 q -89 956 -115 856 l -42 956 q -94 856 -54 896 q -193 815 -133 815 l -289 815 q -369 751 -356 815 q -365 697 -375 721 q -285 742 -322 736 q -228 692 -265 721 q -225 710 -226 703 q -197 756 -219 738 q -146 775 -174 775 q -103 756 -118 775 q -93 710 -87 736 m -129 710 q -133 731 -126 722 q -153 740 -140 740 q -176 731 -165 740 q -190 710 -187 722 q -186 688 -193 697 q -167 679 -179 679 q -143 688 -154 679 q -129 710 -132 697 z "},"":{"ha":0,"x_min":-96,"x_max":-17,"o":"m -50 944 l -96 944 l -62 1099 l -17 1099 l -50 944 z "},"":{"ha":0,"x_min":-260,"x_max":96,"o":"m 96 1147 q -42 979 51 1028 q -235 940 -117 940 l -260 940 l -254 967 q -176 1021 -204 986 q -217 1037 -201 1021 q -233 1076 -233 1053 q -205 1137 -233 1113 q -146 1161 -176 1161 q -106 1147 -122 1161 q -90 1104 -90 1132 q -178 976 -94 1026 q 44 1147 -10 990 l 96 1147 m -131 1090 q -135 1114 -128 1104 q -156 1124 -142 1124 q -181 1114 -169 1124 q -196 1090 -193 1104 q -191 1067 -199 1076 q -169 1058 -183 1058 q -144 1067 -156 1058 q -131 1090 -133 1076 z "},"":{"ha":0,"x_min":-336,"x_max":68,"o":"m -224 1007 q -228 1031 -221 1021 q -249 1040 -235 1040 q -274 1031 -262 1040 q -289 1007 -286 1021 q -285 984 -293 993 q -262 975 -276 975 q -238 984 -249 975 q -224 1007 -228 993 m 68 1144 q -175 938 19 938 l -168 968 q -94 1057 -107 996 q -126 1118 -85 1104 l -175 1075 l -204 1118 q -242 1103 -219 1117 q -268 1074 -258 1092 q -254 1078 -261 1076 q -240 1079 -247 1079 q -196 1058 -211 1079 q -186 1008 -181 1038 q -217 959 -193 979 q -271 939 -242 939 q -322 963 -307 939 q -326 1026 -336 986 q -275 1117 -317 1078 q -189 1157 -233 1157 l -165 1115 l -125 1157 q -66 1128 -85 1156 q -56 1060 -47 1101 q -104 978 -67 1010 q -37 1018 -71 981 q 24 1144 7 1065 l 68 1144 z "},"":{"ha":0,"x_min":-157,"x_max":40,"o":"m 32 999 l -40 999 l -51 944 l -94 944 l -83 999 l -157 999 l -149 1038 l -75 1038 l -62 1097 l -19 1097 l -32 1038 l 40 1038 l 32 999 z "},"":{"ha":0,"x_min":-186,"x_max":101,"o":"m 101 1140 q 42 1072 88 1093 q -29 1050 15 1060 q -83 1032 -71 1043 q -37 1008 -53 1029 q -28 956 -22 986 q -61 902 -35 924 q -119 881 -87 881 q -169 902 -151 881 q -179 956 -186 924 q -54 1079 -158 1053 l 14 1099 q 57 1140 51 1111 l 101 1140 m -64 954 q -70 981 -61 969 q -94 992 -79 992 q -123 981 -110 992 q -139 954 -136 969 q -134 928 -143 939 q -110 917 -125 917 q -81 928 -94 917 q -64 954 -68 939 z "},"":{"ha":0,"x_min":-379,"x_max":-218,"o":"m -262 -412 q -267 -387 -258 -397 q -290 -376 -275 -376 q -318 -387 -306 -376 q -335 -412 -331 -397 q -329 -438 -337 -428 q -306 -449 -321 -449 q -278 -438 -290 -449 q -262 -412 -265 -428 m -247 -521 q -287 -604 -258 -574 l -326 -579 q -293 -508 -304 -558 l -289 -483 q -314 -487 -300 -487 q -362 -466 -344 -487 q -372 -414 -379 -444 q -340 -362 -365 -383 q -283 -340 -314 -340 q -235 -362 -253 -340 q -225 -414 -218 -383 l -247 -521 z "},"":{"ha":0,"x_min":-525,"x_max":-197,"o":"m -408 -414 q -413 -388 -406 -399 q -436 -378 -421 -378 q -465 -388 -451 -378 q -481 -414 -478 -399 q -475 -440 -483 -429 q -451 -450 -467 -450 q -424 -440 -436 -450 q -408 -414 -411 -429 m -231 -437 l -246 -518 q -365 -604 -265 -604 q -442 -521 -460 -604 l -435 -485 q -460 -489 -446 -489 q -508 -467 -490 -489 q -518 -415 -525 -446 q -485 -363 -511 -385 q -429 -342 -460 -342 q -381 -363 -399 -342 q -371 -415 -364 -385 l -394 -529 q -353 -561 -401 -561 q -299 -529 -306 -561 l -276 -419 q -236 -336 -265 -367 l -197 -361 q -231 -437 -217 -378 z "},"":{"ha":0,"x_min":-283,"x_max":-203,"o":"m -206 -378 q -222 -404 -210 -393 q -250 -415 -235 -415 q -274 -404 -265 -415 q -279 -378 -283 -393 q -263 -352 -276 -362 q -235 -342 -250 -342 q -211 -352 -219 -342 q -206 -378 -203 -362 z "},"":{"ha":590,"x_min":-47,"x_max":549,"o":"m 104 -186 q 65 -174 94 -174 q 1 -221 11 -174 q 36 -262 -7 -262 q 104 -186 88 -262 m 389 -299 l 333 -299 l 276 -214 l 197 -297 l 139 -214 q 97 -281 128 -257 q 31 -306 65 -306 q -29 -281 -11 -306 q -39 -219 -47 -256 q 1 -155 -31 -179 q 71 -131 32 -131 q 114 -140 97 -131 q 188 -60 126 -92 l 221 -82 q 154 -160 167 -111 l 207 -232 l 290 -144 l 353 -235 l 479 361 q 460 470 493 429 q 360 511 426 511 q 263 484 313 511 q 188 415 213 457 q 288 354 260 408 q 190 253 207 329 q 179 142 179 199 q 172 83 179 117 q 131 16 164 43 q 61 -11 99 -11 q 3 15 24 -11 q -8 79 -17 42 q 31 144 -1 117 q 100 171 63 171 q 132 164 115 171 q 143 261 136 228 q 221 361 157 325 q 150 378 186 378 q 124 376 132 378 q 219 505 147 454 q 371 556 290 556 q 504 505 460 556 q 531 367 549 454 l 389 -299 m 128 79 q 121 113 132 99 q 90 126 110 126 q 55 113 71 126 q 35 79 39 99 q 41 47 31 60 q 71 33 51 33 q 107 47 90 33 q 128 79 124 60 z "},"":{"ha":631,"x_min":54,"x_max":697,"o":"m 200 464 q 194 497 204 483 q 164 511 183 511 q 127 497 144 511 q 106 464 110 483 q 113 431 103 444 q 143 417 124 417 q 180 431 163 417 q 200 464 197 444 m 546 464 q 540 497 550 483 q 510 511 529 511 q 473 497 490 511 q 451 464 456 483 q 459 431 449 444 q 489 417 469 417 q 526 431 508 417 q 546 464 543 444 m 493 0 l 432 0 l 350 271 l 154 0 l 97 0 l 178 382 q 133 372 157 372 q 75 399 96 372 q 61 464 54 426 q 103 528 69 501 q 174 556 136 556 q 232 528 211 556 q 244 464 253 501 l 175 136 q 157 68 171 114 q 193 128 171 92 l 338 322 l 385 322 l 446 128 q 460 68 449 118 q 471 136 467 113 l 524 382 q 479 372 503 372 q 421 399 442 372 q 407 464 400 426 q 449 528 415 501 q 519 556 482 556 q 561 539 549 556 q 672 593 596 576 l 697 558 q 589 510 619 543 q 590 464 596 485 l 493 0 z "},"ﬁ":{"ha":482,"x_min":-211,"x_max":478,"o":"m 350 0 l 296 0 l 386 429 l 168 429 l 79 6 q -137 -217 31 -217 q -211 -194 -190 -217 l -187 -156 q -124 -171 -161 -171 q 25 6 -12 -171 l 114 429 l 44 429 l 54 472 l 124 472 l 128 496 q 211 653 149 594 q 368 713 274 713 q 478 675 435 713 l 444 633 q 349 667 400 667 q 182 496 219 667 l 178 472 l 450 472 l 350 0 z "},"ﬂ":{"ha":561,"x_min":-211,"x_max":494,"o":"m 483 38 l 468 -10 q 346 238 294 -1 l 433 653 q 369 667 410 667 q 294 652 326 667 q 239 614 261 638 q 203 558 217 590 q 182 493 189 526 l 178 472 l 314 472 l 304 429 l 168 429 l 79 6 q -137 -217 31 -217 q -211 -194 -190 -217 l -187 -156 q -124 -171 -161 -171 q 25 6 -12 -171 l 114 429 l 44 429 l 54 472 l 124 472 l 126 486 q 224 656 150 599 q 390 713 297 713 q 494 685 444 713 l 404 258 q 392 111 383 157 q 483 38 403 39 z "},"Ạ":{"ha":556,"x_min":-60,"x_max":496,"o":"m 496 0 l 436 0 l 404 213 l 119 213 l 0 0 l -60 0 l 332 671 l 388 671 l 496 0 m 397 258 l 347 611 l 146 258 l 397 258 m 235 -107 q 218 -135 232 -124 q 186 -147 204 -147 q 160 -135 169 -147 q 154 -107 151 -124 q 172 -81 157 -93 q 203 -68 186 -68 q 229 -81 221 -68 q 235 -107 238 -93 z "},"ạ":{"ha":553,"x_min":22,"x_max":514,"o":"m 444 96 q 449 1 432 40 l 394 -10 q 388 86 379 40 q 192 -14 311 -14 q 67 33 111 -14 q 22 157 22 79 q 101 376 22 279 q 304 481 185 481 q 514 411 428 482 l 444 96 m 411 199 l 454 388 q 311 436 383 436 q 139 346 210 435 q 75 164 75 263 q 110 66 75 103 q 210 29 146 29 q 338 80 281 29 q 411 199 396 131 m 235 -107 q 218 -135 232 -124 q 186 -147 204 -147 q 160 -135 169 -147 q 154 -107 151 -124 q 172 -81 157 -93 q 203 -68 186 -68 q 229 -81 221 -68 q 235 -107 238 -93 z "},"Ả":{"ha":556,"x_min":-60,"x_max":500,"o":"m 496 0 l 436 0 l 404 213 l 119 213 l 0 0 l -60 0 l 332 671 l 388 671 l 496 0 m 397 258 l 347 611 l 146 258 l 397 258 m 493 843 q 438 769 483 800 q 389 722 393 739 l 346 722 q 399 786 356 758 q 450 843 443 814 q 443 873 454 863 q 410 883 432 883 q 339 844 374 883 l 317 865 q 425 921 360 921 q 481 901 463 921 q 493 843 500 881 z "},"ả":{"ha":553,"x_min":22,"x_max":514,"o":"m 444 96 q 449 1 432 40 l 394 -10 q 388 86 379 40 q 192 -14 311 -14 q 67 33 111 -14 q 22 157 22 79 q 101 376 22 279 q 304 481 185 481 q 514 411 428 482 l 444 96 m 411 199 l 454 388 q 311 436 383 436 q 139 346 210 435 q 75 164 75 263 q 110 66 75 103 q 210 29 146 29 q 338 80 281 29 q 411 199 396 131 m 488 642 q 439 575 480 603 q 395 533 398 548 l 356 533 q 404 590 365 565 q 450 642 443 615 q 443 668 453 659 q 413 678 433 678 q 350 643 381 678 l 330 662 q 427 712 368 712 q 478 693 461 712 q 488 642 495 675 z "},"Ấ":{"ha":556,"x_min":-60,"x_max":635,"o":"m 496 0 l 436 0 l 404 213 l 119 213 l 0 0 l -60 0 l 332 671 l 388 671 l 496 0 m 397 258 l 347 611 l 146 258 l 397 258 m 415 842 l 489 733 l 438 733 l 389 806 l 310 733 l 258 733 l 376 842 l 415 842 m 540 806 l 501 806 l 588 919 l 635 907 l 540 806 z "},"ấ":{"ha":553,"x_min":22,"x_max":596,"o":"m 444 96 q 449 1 432 40 l 394 -10 q 388 86 379 40 q 192 -14 311 -14 q 67 33 111 -14 q 22 157 22 79 q 101 376 22 279 q 304 481 185 481 q 514 411 428 482 l 444 96 m 411 199 l 454 388 q 311 436 383 436 q 139 346 210 435 q 75 164 75 263 q 110 66 75 103 q 210 29 146 29 q 338 80 281 29 q 411 199 396 131 m 392 653 l 465 544 l 414 544 l 365 617 l 286 544 l 235 544 l 353 653 l 392 653 m 501 619 l 462 619 l 550 733 l 596 721 l 501 619 z "},"Ầ":{"ha":556,"x_min":-60,"x_max":568,"o":"m 496 0 l 436 0 l 404 213 l 119 213 l 0 0 l -60 0 l 332 671 l 388 671 l 496 0 m 397 258 l 347 611 l 146 258 l 397 258 m 415 842 l 489 733 l 438 733 l 389 806 l 310 733 l 258 733 l 376 842 l 415 842 m 569 806 l 530 806 l 480 907 l 532 919 l 569 806 z "},"ầ":{"ha":553,"x_min":22,"x_max":538,"o":"m 444 96 q 449 1 432 40 l 394 -10 q 388 86 379 40 q 192 -14 311 -14 q 67 33 111 -14 q 22 157 22 79 q 101 376 22 279 q 304 481 185 481 q 514 411 428 482 l 444 96 m 411 199 l 454 388 q 311 436 383 436 q 139 346 210 435 q 75 164 75 263 q 110 66 75 103 q 210 29 146 29 q 338 80 281 29 q 411 199 396 131 m 393 653 l 467 544 l 415 544 l 367 617 l 288 544 l 236 544 l 354 653 l 393 653 m 539 619 l 500 619 l 450 721 l 501 733 l 539 619 z "},"Ẩ":{"ha":556,"x_min":-60,"x_max":642,"o":"m 496 0 l 436 0 l 404 213 l 119 213 l 0 0 l -60 0 l 332 671 l 388 671 l 496 0 m 397 258 l 347 611 l 146 258 l 397 258 m 415 842 l 489 733 l 438 733 l 389 806 l 310 733 l 258 733 l 376 842 l 415 842 m 636 911 q 586 845 627 872 q 542 802 546 817 l 503 802 q 551 860 512 835 q 597 911 591 885 q 591 938 601 928 q 561 947 581 947 q 497 912 528 947 l 477 931 q 574 981 516 981 q 625 963 608 981 q 636 911 642 945 z "},"ẩ":{"ha":553,"x_min":22,"x_max":619,"o":"m 444 96 q 449 1 432 40 l 394 -10 q 388 86 379 40 q 192 -14 311 -14 q 67 33 111 -14 q 22 157 22 79 q 101 376 22 279 q 304 481 185 481 q 514 411 428 482 l 444 96 m 411 199 l 454 388 q 311 436 383 436 q 139 346 210 435 q 75 164 75 263 q 110 66 75 103 q 210 29 146 29 q 338 80 281 29 q 411 199 396 131 m 394 653 l 468 544 l 417 544 l 368 617 l 289 544 l 238 544 l 356 653 l 394 653 m 613 742 q 564 675 605 703 q 520 633 523 648 l 481 633 q 529 690 490 665 q 575 742 568 715 q 568 768 578 759 q 538 778 558 778 q 475 743 506 778 l 455 762 q 552 812 493 812 q 603 793 586 812 q 613 742 620 775 z "},"Ẫ":{"ha":556,"x_min":-60,"x_max":542,"o":"m 496 0 l 436 0 l 404 213 l 119 213 l 0 0 l -60 0 l 332 671 l 388 671 l 496 0 m 397 258 l 347 611 l 146 258 l 397 258 m 415 842 l 489 733 l 438 733 l 389 806 l 310 733 l 258 733 l 376 842 l 415 842 m 503 967 l 542 967 q 457 881 521 881 q 405 900 439 881 q 358 919 371 919 q 322 875 335 919 l 286 875 q 367 964 308 964 q 417 943 385 964 q 469 922 449 922 q 503 967 493 922 z "},"ẫ":{"ha":553,"x_min":22,"x_max":522,"o":"m 444 96 q 449 1 432 40 l 394 -10 q 388 86 379 40 q 192 -14 311 -14 q 67 33 111 -14 q 22 157 22 79 q 101 376 22 279 q 304 481 185 481 q 514 411 428 482 l 444 96 m 411 199 l 454 388 q 311 436 383 436 q 139 346 210 435 q 75 164 75 263 q 110 66 75 103 q 210 29 146 29 q 338 80 281 29 q 411 199 396 131 m 394 653 l 468 544 l 417 544 l 368 617 l 289 544 l 238 544 l 356 653 l 394 653 m 483 776 l 522 776 q 438 690 501 690 q 385 710 419 690 q 339 729 351 729 q 303 685 315 729 l 267 685 q 347 774 289 774 q 397 753 365 774 q 450 732 429 732 q 483 776 474 732 z "},"Ậ":{"ha":556,"x_min":-60,"x_max":496,"o":"m 496 0 l 436 0 l 404 213 l 119 213 l 0 0 l -60 0 l 332 671 l 388 671 l 496 0 m 397 258 l 347 611 l 146 258 l 397 258 m 235 -107 q 218 -135 232 -124 q 186 -147 204 -147 q 160 -135 169 -147 q 154 -107 151 -124 q 172 -81 157 -93 q 203 -68 186 -68 q 229 -81 221 -68 q 235 -107 238 -93 m 415 842 l 489 733 l 438 733 l 389 806 l 310 733 l 258 733 l 376 842 l 415 842 z "},"ậ":{"ha":553,"x_min":22,"x_max":514,"o":"m 444 96 q 449 1 432 40 l 394 -10 q 388 86 379 40 q 192 -14 311 -14 q 67 33 111 -14 q 22 157 22 79 q 101 376 22 279 q 304 481 185 481 q 514 411 428 482 l 444 96 m 411 199 l 454 388 q 311 436 383 436 q 139 346 210 435 q 75 164 75 263 q 110 66 75 103 q 210 29 146 29 q 338 80 281 29 q 411 199 396 131 m 206 -107 q 189 -135 203 -124 q 157 -147 175 -147 q 131 -135 140 -147 q 125 -107 122 -124 q 142 -81 128 -93 q 174 -68 157 -68 q 200 -81 192 -68 q 206 -107 208 -93 m 396 653 l 469 544 l 418 544 l 369 617 l 290 544 l 239 544 l 357 653 l 396 653 z "},"Ắ":{"ha":556,"x_min":-60,"x_max":515,"o":"m 496 0 l 436 0 l 404 213 l 119 213 l 0 0 l -60 0 l 332 671 l 388 671 l 496 0 m 397 258 l 347 611 l 146 258 l 397 258 m 515 818 q 468 757 500 781 q 371 724 425 724 q 286 757 317 724 q 267 818 267 781 l 315 818 q 325 792 317 803 q 381 767 342 767 q 446 792 419 767 q 468 818 458 803 l 515 818 m 402 831 l 363 831 l 451 944 l 497 932 l 402 831 z "},"ắ":{"ha":553,"x_min":22,"x_max":514,"o":"m 444 96 q 449 1 432 40 l 394 -10 q 388 86 379 40 q 192 -14 311 -14 q 67 33 111 -14 q 22 157 22 79 q 101 376 22 279 q 304 481 185 481 q 514 411 428 482 l 444 96 m 411 199 l 454 388 q 311 436 383 436 q 139 346 210 435 q 75 164 75 263 q 110 66 75 103 q 210 29 146 29 q 338 80 281 29 q 411 199 396 131 m 508 629 q 461 568 493 592 q 364 535 418 535 q 279 568 310 535 q 260 629 260 592 l 308 629 q 318 603 310 614 q 374 578 335 578 q 439 603 413 578 q 461 629 451 614 l 508 629 m 399 646 l 361 646 l 448 760 l 494 747 l 399 646 z "},"Ằ":{"ha":556,"x_min":-60,"x_max":515,"o":"m 496 0 l 436 0 l 404 213 l 119 213 l 0 0 l -60 0 l 332 671 l 388 671 l 496 0 m 397 258 l 347 611 l 146 258 l 397 258 m 515 818 q 468 757 500 781 q 371 724 425 724 q 286 757 317 724 q 267 818 267 781 l 315 818 q 325 792 317 803 q 381 767 342 767 q 446 792 419 767 q 468 818 458 803 l 515 818 m 423 833 l 385 833 l 335 935 l 386 947 l 423 833 z "},"ằ":{"ha":553,"x_min":22,"x_max":521,"o":"m 444 96 q 449 1 432 40 l 394 -10 q 388 86 379 40 q 192 -14 311 -14 q 67 33 111 -14 q 22 157 22 79 q 101 376 22 279 q 304 481 185 481 q 514 411 428 482 l 444 96 m 411 199 l 454 388 q 311 436 383 436 q 139 346 210 435 q 75 164 75 263 q 110 66 75 103 q 210 29 146 29 q 338 80 281 29 q 411 199 396 131 m 521 629 q 474 568 506 592 q 376 535 431 535 q 292 568 322 535 q 272 629 272 592 l 321 629 q 331 603 322 614 q 386 578 347 578 q 451 603 425 578 q 474 629 464 614 l 521 629 m 429 644 l 390 644 l 340 746 l 391 758 l 429 644 z "},"Ẳ":{"ha":556,"x_min":-60,"x_max":515,"o":"m 496 0 l 436 0 l 404 213 l 119 213 l 0 0 l -60 0 l 332 671 l 388 671 l 496 0 m 397 258 l 347 611 l 146 258 l 397 258 m 515 818 q 468 757 500 781 q 371 724 425 724 q 286 757 317 724 q 267 818 267 781 l 315 818 q 325 792 317 803 q 381 767 342 767 q 446 792 419 767 q 468 818 458 803 l 515 818 m 500 943 q 450 877 491 904 q 406 834 410 849 l 367 834 q 415 892 376 867 q 461 943 455 917 q 455 970 465 960 q 425 979 445 979 q 361 944 392 979 l 341 963 q 438 1013 380 1013 q 489 995 472 1013 q 500 943 506 977 z "},"ẳ":{"ha":553,"x_min":22,"x_max":517,"o":"m 444 96 q 449 1 432 40 l 394 -10 q 388 86 379 40 q 192 -14 311 -14 q 67 33 111 -14 q 22 157 22 79 q 101 376 22 279 q 304 481 185 481 q 514 411 428 482 l 444 96 m 411 199 l 454 388 q 311 436 383 436 q 139 346 210 435 q 75 164 75 263 q 110 66 75 103 q 210 29 146 29 q 338 80 281 29 q 411 199 396 131 m 517 629 q 469 568 501 592 q 372 535 426 535 q 288 568 318 535 q 268 629 268 592 l 317 629 q 326 603 318 614 q 382 578 343 578 q 447 603 421 578 q 469 629 460 614 l 517 629 m 502 758 q 453 692 494 719 q 409 649 412 664 l 370 649 q 418 707 379 682 q 464 758 457 732 q 457 785 467 776 q 427 794 447 794 q 364 759 395 794 l 344 778 q 441 828 382 828 q 492 810 475 828 q 502 758 509 792 z "},"Ẵ":{"ha":556,"x_min":-60,"x_max":536,"o":"m 496 0 l 436 0 l 404 213 l 119 213 l 0 0 l -60 0 l 332 671 l 388 671 l 496 0 m 397 258 l 347 611 l 146 258 l 397 258 m 515 818 q 468 757 500 781 q 371 724 425 724 q 286 757 317 724 q 267 818 267 781 l 315 818 q 325 792 317 803 q 381 767 342 767 q 446 792 419 767 q 468 818 458 803 l 515 818 m 497 953 l 536 953 q 451 867 515 867 q 399 886 433 867 q 353 906 365 906 q 317 861 329 906 l 281 861 q 361 950 303 950 q 411 929 379 950 q 464 908 443 908 q 497 953 488 908 z "},"ẵ":{"ha":553,"x_min":22,"x_max":533,"o":"m 444 96 q 449 1 432 40 l 394 -10 q 388 86 379 40 q 192 -14 311 -14 q 67 33 111 -14 q 22 157 22 79 q 101 376 22 279 q 304 481 185 481 q 514 411 428 482 l 444 96 m 411 199 l 454 388 q 311 436 383 436 q 139 346 210 435 q 75 164 75 263 q 110 66 75 103 q 210 29 146 29 q 338 80 281 29 q 411 199 396 131 m 511 629 q 464 568 496 592 q 367 535 421 535 q 282 568 313 535 q 263 629 263 592 l 311 629 q 321 603 313 614 q 376 578 338 578 q 442 603 415 578 q 464 629 454 614 l 511 629 m 494 761 l 533 761 q 449 675 513 675 q 397 694 431 675 q 350 714 363 714 q 314 669 326 714 l 278 669 q 358 758 300 758 q 408 738 376 758 q 461 717 440 717 q 494 761 485 717 z "},"Ặ":{"ha":556,"x_min":-60,"x_max":515,"o":"m 496 0 l 436 0 l 404 213 l 119 213 l 0 0 l -60 0 l 332 671 l 388 671 l 496 0 m 397 258 l 347 611 l 146 258 l 397 258 m 235 -107 q 218 -135 232 -124 q 186 -147 204 -147 q 160 -135 169 -147 q 154 -107 151 -124 q 172 -81 157 -93 q 203 -68 186 -68 q 229 -81 221 -68 q 235 -107 238 -93 m 515 818 q 468 757 500 781 q 371 724 425 724 q 286 757 317 724 q 267 818 267 781 l 315 818 q 325 792 317 803 q 381 767 342 767 q 446 792 419 767 q 468 818 458 803 l 515 818 z "},"ặ":{"ha":553,"x_min":22,"x_max":514,"o":"m 444 96 q 449 1 432 40 l 394 -10 q 388 86 379 40 q 192 -14 311 -14 q 67 33 111 -14 q 22 157 22 79 q 101 376 22 279 q 304 481 185 481 q 514 411 428 482 l 444 96 m 411 199 l 454 388 q 311 436 383 436 q 139 346 210 435 q 75 164 75 263 q 110 66 75 103 q 210 29 146 29 q 338 80 281 29 q 411 199 396 131 m 207 -107 q 190 -135 204 -124 q 158 -147 176 -147 q 133 -135 142 -147 q 126 -107 124 -124 q 144 -81 129 -93 q 175 -68 158 -68 q 201 -81 193 -68 q 207 -107 210 -93 m 507 629 q 460 568 492 592 q 363 535 417 535 q 278 568 308 535 q 258 629 258 592 l 307 629 q 317 603 308 614 q 372 578 333 578 q 438 603 411 578 q 460 629 450 614 l 507 629 z "},"Ẹ":{"ha":488,"x_min":15,"x_max":515,"o":"m 375 0 l 15 0 l 156 661 l 515 661 l 506 615 l 200 615 l 147 372 l 419 372 l 410 326 l 138 326 l 79 46 l 385 46 l 375 0 m 200 -107 q 183 -135 197 -124 q 151 -147 169 -147 q 126 -135 135 -147 q 119 -107 117 -124 q 137 -81 122 -93 q 168 -68 151 -68 q 194 -81 186 -68 q 200 -107 203 -93 z "},"ẹ":{"ha":519,"x_min":18,"x_max":478,"o":"m 478 351 q 196 186 478 186 q 75 192 144 186 q 74 171 74 181 q 232 35 74 35 q 404 67 313 35 l 399 21 q 217 -12 311 -12 q 72 36 126 -12 q 18 167 18 85 q 111 393 18 299 q 315 482 200 482 q 478 351 478 482 m 429 353 q 315 439 429 439 q 175 382 244 439 q 78 236 101 321 q 179 232 135 232 q 429 353 429 232 m 217 -107 q 200 -135 214 -124 q 168 -147 186 -147 q 142 -135 151 -147 q 136 -107 133 -124 q 153 -81 139 -93 q 185 -68 168 -68 q 211 -81 203 -68 q 217 -107 219 -93 z "},"Ẻ":{"ha":488,"x_min":15,"x_max":515,"o":"m 375 0 l 15 0 l 156 661 l 515 661 l 506 615 l 200 615 l 147 372 l 419 372 l 410 326 l 138 326 l 79 46 l 385 46 l 375 0 m 464 843 q 409 769 454 800 q 360 722 364 739 l 317 722 q 370 786 326 758 q 421 843 414 814 q 414 873 425 863 q 381 883 403 883 q 310 844 344 883 l 288 865 q 396 921 331 921 q 452 901 433 921 q 464 843 471 881 z "},"ẻ":{"ha":519,"x_min":18,"x_max":478,"o":"m 478 351 q 196 186 478 186 q 75 192 144 186 q 74 171 74 181 q 232 35 74 35 q 404 67 313 35 l 399 21 q 217 -12 311 -12 q 72 36 126 -12 q 18 167 18 85 q 111 393 18 299 q 315 482 200 482 q 478 351 478 482 m 429 353 q 315 439 429 439 q 175 382 244 439 q 78 236 101 321 q 179 232 135 232 q 429 353 429 232 m 418 642 q 368 575 409 603 q 324 533 328 548 l 285 533 q 333 590 294 565 q 379 642 373 615 q 373 668 383 659 q 343 678 363 678 q 279 643 310 678 l 259 662 q 356 712 298 712 q 407 693 390 712 q 418 642 424 675 z "},"Ẽ":{"ha":488,"x_min":15,"x_max":515,"o":"m 375 0 l 15 0 l 156 661 l 515 661 l 506 615 l 200 615 l 147 372 l 419 372 l 410 326 l 138 326 l 79 46 l 385 46 l 375 0 m 436 819 l 475 819 q 390 733 454 733 q 338 753 372 733 q 292 772 304 772 q 256 728 268 772 l 219 728 q 300 817 242 817 q 350 796 318 817 q 403 775 382 775 q 436 819 426 775 z "},"ẽ":{"ha":519,"x_min":18,"x_max":478,"o":"m 478 351 q 196 186 478 186 q 75 192 144 186 q 74 171 74 181 q 232 35 74 35 q 404 67 313 35 l 399 21 q 217 -12 311 -12 q 72 36 126 -12 q 18 167 18 85 q 111 393 18 299 q 315 482 200 482 q 478 351 478 482 m 429 353 q 315 439 429 439 q 175 382 244 439 q 78 236 101 321 q 179 232 135 232 q 429 353 429 232 m 413 631 l 451 631 q 367 544 431 544 q 315 564 349 544 q 268 583 281 583 q 232 539 244 583 l 196 539 q 276 628 218 628 q 326 607 294 628 q 379 586 358 586 q 413 631 403 586 z "},"Ế":{"ha":488,"x_min":15,"x_max":586,"o":"m 375 0 l 15 0 l 156 661 l 515 661 l 506 615 l 200 615 l 147 372 l 419 372 l 410 326 l 138 326 l 79 46 l 385 46 l 375 0 m 381 842 l 454 733 l 403 733 l 354 806 l 275 733 l 224 733 l 342 842 l 381 842 m 491 806 l 452 806 l 540 919 l 586 907 l 491 806 z "},"ế":{"ha":519,"x_min":18,"x_max":576,"o":"m 478 351 q 196 186 478 186 q 75 192 144 186 q 74 171 74 181 q 232 35 74 35 q 404 67 313 35 l 399 21 q 217 -12 311 -12 q 72 36 126 -12 q 18 167 18 85 q 111 393 18 299 q 315 482 200 482 q 478 351 478 482 m 429 353 q 315 439 429 439 q 175 382 244 439 q 78 236 101 321 q 179 232 135 232 q 429 353 429 232 m 357 653 l 431 544 l 379 544 l 331 617 l 251 544 l 200 544 l 318 653 l 357 653 m 481 619 l 443 619 l 530 733 l 576 721 l 481 619 z "},"Ề":{"ha":488,"x_min":15,"x_max":522,"o":"m 375 0 l 15 0 l 156 661 l 515 661 l 506 615 l 200 615 l 147 372 l 419 372 l 410 326 l 138 326 l 79 46 l 385 46 l 375 0 m 381 842 l 454 733 l 403 733 l 354 806 l 275 733 l 224 733 l 342 842 l 381 842 m 523 806 l 485 806 l 435 907 l 486 919 l 523 806 z "},"ề":{"ha":519,"x_min":18,"x_max":513,"o":"m 478 351 q 196 186 478 186 q 75 192 144 186 q 74 171 74 181 q 232 35 74 35 q 404 67 313 35 l 399 21 q 217 -12 311 -12 q 72 36 126 -12 q 18 167 18 85 q 111 393 18 299 q 315 482 200 482 q 478 351 478 482 m 429 353 q 315 439 429 439 q 175 382 244 439 q 78 236 101 321 q 179 232 135 232 q 429 353 429 232 m 357 653 l 431 544 l 379 544 l 331 617 l 251 544 l 200 544 l 318 653 l 357 653 m 513 607 l 469 607 l 414 719 l 471 733 l 513 607 z "},"Ể":{"ha":488,"x_min":15,"x_max":615,"o":"m 375 0 l 15 0 l 156 661 l 515 661 l 506 615 l 200 615 l 147 372 l 419 372 l 410 326 l 138 326 l 79 46 l 385 46 l 375 0 m 381 842 l 454 733 l 403 733 l 354 806 l 275 733 l 224 733 l 342 842 l 381 842 m 609 911 q 560 845 601 872 q 516 802 519 817 l 477 802 q 525 860 486 835 q 571 911 564 885 q 564 938 574 928 q 534 947 554 947 q 471 912 502 947 l 451 931 q 548 981 489 981 q 599 963 582 981 q 609 911 616 945 z "},"ể":{"ha":519,"x_min":18,"x_max":583,"o":"m 478 351 q 196 186 478 186 q 75 192 144 186 q 74 171 74 181 q 232 35 74 35 q 404 67 313 35 l 399 21 q 217 -12 311 -12 q 72 36 126 -12 q 18 167 18 85 q 111 393 18 299 q 315 482 200 482 q 478 351 478 482 m 429 353 q 315 439 429 439 q 175 382 244 439 q 78 236 101 321 q 179 232 135 232 q 429 353 429 232 m 357 653 l 431 544 l 379 544 l 331 617 l 251 544 l 200 544 l 318 653 l 357 653 m 577 742 q 528 675 569 703 q 484 633 487 648 l 445 633 q 493 690 454 665 q 539 742 532 715 q 532 768 542 759 q 502 778 522 778 q 439 743 470 778 l 419 762 q 516 812 457 812 q 567 793 550 812 q 577 742 584 775 z "},"Ễ":{"ha":488,"x_min":15,"x_max":515,"o":"m 375 0 l 15 0 l 156 661 l 515 661 l 506 615 l 200 615 l 147 372 l 419 372 l 410 326 l 138 326 l 79 46 l 385 46 l 375 0 m 381 842 l 454 733 l 403 733 l 354 806 l 275 733 l 224 733 l 342 842 l 381 842 m 465 967 l 504 967 q 419 881 483 881 q 367 900 401 881 q 321 919 333 919 q 285 875 297 919 l 249 875 q 329 964 271 964 q 379 943 347 964 q 432 922 411 922 q 465 967 456 922 z "},"ễ":{"ha":519,"x_min":18,"x_max":482,"o":"m 478 351 q 196 186 478 186 q 75 192 144 186 q 74 171 74 181 q 232 35 74 35 q 404 67 313 35 l 399 21 q 217 -12 311 -12 q 72 36 126 -12 q 18 167 18 85 q 111 393 18 299 q 315 482 200 482 q 478 351 478 482 m 429 353 q 315 439 429 439 q 175 382 244 439 q 78 236 101 321 q 179 232 135 232 q 429 353 429 232 m 357 653 l 431 544 l 379 544 l 331 617 l 251 544 l 200 544 l 318 653 l 357 653 m 443 776 l 482 776 q 397 690 461 690 q 345 710 379 690 q 299 729 311 729 q 263 685 275 729 l 226 685 q 307 774 249 774 q 357 753 325 774 q 410 732 389 732 q 443 776 433 732 z "},"Ệ":{"ha":488,"x_min":15,"x_max":515,"o":"m 375 0 l 15 0 l 156 661 l 515 661 l 506 615 l 200 615 l 147 372 l 419 372 l 410 326 l 138 326 l 79 46 l 385 46 l 375 0 m 200 -107 q 183 -135 197 -124 q 151 -147 169 -147 q 126 -135 135 -147 q 119 -107 117 -124 q 137 -81 122 -93 q 168 -68 151 -68 q 194 -81 186 -68 q 200 -107 203 -93 m 381 842 l 454 733 l 403 733 l 354 806 l 275 733 l 224 733 l 342 842 l 381 842 z "},"ệ":{"ha":519,"x_min":18,"x_max":478,"o":"m 478 351 q 196 186 478 186 q 75 192 144 186 q 74 171 74 181 q 232 35 74 35 q 404 67 313 35 l 399 21 q 217 -12 311 -12 q 72 36 126 -12 q 18 167 18 85 q 111 393 18 299 q 315 482 200 482 q 478 351 478 482 m 429 353 q 315 439 429 439 q 175 382 244 439 q 78 236 101 321 q 179 232 135 232 q 429 353 429 232 m 218 -107 q 201 -135 215 -124 q 169 -147 188 -147 q 144 -135 153 -147 q 138 -107 135 -124 q 155 -81 140 -93 q 186 -68 169 -68 q 213 -81 204 -68 q 218 -107 221 -93 m 357 653 l 431 544 l 379 544 l 331 617 l 251 544 l 200 544 l 318 653 l 357 653 z "},"Ỉ":{"ha":204,"x_min":15,"x_max":329,"o":"m 69 0 l 15 0 l 156 661 l 210 661 l 69 0 m 322 843 q 267 769 313 800 q 218 722 222 739 l 175 722 q 228 786 185 758 q 279 843 272 814 q 272 873 283 863 q 239 883 261 883 q 168 844 203 883 l 146 865 q 254 921 189 921 q 310 901 292 921 q 322 843 329 881 z "},"ỉ":{"ha":199,"x_min":13,"x_max":286,"o":"m 279 654 q 224 581 269 611 q 175 533 179 550 l 132 533 q 185 597 142 569 q 236 654 229 625 q 229 684 240 674 q 196 694 218 694 q 125 656 160 694 l 103 676 q 211 732 146 732 q 267 712 249 732 q 279 654 286 692 m 65 0 l 13 0 l 113 472 l 165 472 l 65 0 z "},"Ị":{"ha":204,"x_min":-24,"x_max":210,"o":"m 69 0 l 15 0 l 156 661 l 210 661 l 69 0 m 60 -107 q 43 -135 57 -124 q 11 -147 29 -147 q -15 -135 -6 -147 q -21 -107 -24 -124 q -3 -81 -18 -93 q 28 -68 11 -68 q 54 -81 46 -68 q 60 -107 63 -93 z "},"ị":{"ha":199,"x_min":-25,"x_max":217,"o":"m 67 0 l 13 0 l 113 472 l 167 472 l 67 0 m 213 615 q 193 584 208 596 q 158 572 178 572 q 130 584 139 572 q 125 615 121 596 q 143 647 129 635 q 176 660 157 660 q 206 647 196 660 q 213 615 217 635 m 58 -107 q 42 -135 56 -124 q 10 -147 28 -147 q -16 -135 -7 -147 q -22 -107 -25 -124 q -5 -81 -19 -93 q 26 -68 10 -68 q 53 -81 44 -68 q 58 -107 61 -93 z "},"Ọ":{"ha":675,"x_min":8,"x_max":686,"o":"m 654 329 q 516 83 622 181 q 274 -14 410 -14 q 73 83 138 -14 q 40 329 8 181 q 178 575 72 478 q 419 672 283 672 q 621 575 556 672 q 654 329 686 478 m 600 329 q 574 538 626 451 q 410 625 521 625 q 210 538 299 625 q 94 329 121 451 q 121 120 68 207 q 285 33 174 33 q 485 120 396 33 q 600 329 574 207 m 294 -107 q 278 -135 292 -124 q 246 -147 264 -147 q 220 -135 229 -147 q 214 -107 211 -124 q 231 -81 217 -93 q 263 -68 246 -68 q 289 -81 281 -68 q 294 -107 297 -93 z "},"ọ":{"ha":553,"x_min":6,"x_max":525,"o":"m 503 235 q 400 58 481 131 q 213 -14 319 -14 q 56 58 106 -14 q 28 235 6 131 q 131 410 50 339 q 318 482 211 482 q 475 410 425 482 q 503 235 525 339 m 450 235 q 429 378 469 321 q 308 436 389 436 q 164 378 228 436 q 81 235 100 321 q 102 90 63 149 q 222 32 142 32 q 367 90 303 32 q 450 235 432 149 m 233 -107 q 217 -135 231 -124 q 185 -147 203 -147 q 159 -135 168 -147 q 153 -107 150 -124 q 170 -81 156 -93 q 201 -68 185 -68 q 228 -81 219 -68 q 233 -107 236 -93 z "},"Ỏ":{"ha":675,"x_min":8,"x_max":686,"o":"m 654 329 q 516 83 622 181 q 274 -14 410 -14 q 73 83 138 -14 q 40 329 8 181 q 178 575 72 478 q 419 672 283 672 q 621 575 556 672 q 654 329 686 478 m 600 329 q 574 538 626 451 q 410 625 521 625 q 210 538 299 625 q 94 329 121 451 q 121 120 68 207 q 285 33 174 33 q 485 120 396 33 q 600 329 574 207 m 557 843 q 502 769 547 800 q 453 722 457 739 l 410 722 q 463 786 419 758 q 514 843 507 814 q 507 873 518 863 q 474 883 496 883 q 403 844 438 883 l 381 865 q 489 921 424 921 q 545 901 526 921 q 557 843 564 881 z "},"ỏ":{"ha":553,"x_min":6,"x_max":525,"o":"m 503 235 q 400 58 481 131 q 213 -14 319 -14 q 56 58 106 -14 q 28 235 6 131 q 131 410 50 339 q 318 482 211 482 q 475 410 425 482 q 503 235 525 339 m 450 235 q 429 378 469 321 q 308 436 389 436 q 164 378 228 436 q 81 235 100 321 q 102 90 63 149 q 222 32 142 32 q 367 90 303 32 q 450 235 432 149 m 456 654 q 401 581 446 611 q 351 533 356 550 l 308 533 q 362 597 318 569 q 413 654 406 625 q 406 684 417 674 q 372 694 394 694 q 301 656 336 694 l 279 676 q 388 732 322 732 q 444 712 425 732 q 456 654 463 692 z "},"Ố":{"ha":675,"x_min":8,"x_max":710,"o":"m 654 329 q 516 83 622 181 q 274 -14 410 -14 q 73 83 138 -14 q 40 329 8 181 q 178 575 72 478 q 419 672 283 672 q 621 575 556 672 q 654 329 686 478 m 600 329 q 574 538 626 451 q 410 625 521 625 q 210 538 299 625 q 94 329 121 451 q 121 120 68 207 q 285 33 174 33 q 485 120 396 33 q 600 329 574 207 m 475 842 l 549 733 l 497 733 l 449 806 l 369 733 l 318 733 l 436 842 l 475 842 m 615 806 l 576 806 l 663 919 l 710 907 l 615 806 z "},"ố":{"ha":553,"x_min":6,"x_max":597,"o":"m 503 235 q 400 58 481 131 q 213 -14 319 -14 q 56 58 106 -14 q 28 235 6 131 q 131 410 50 339 q 318 482 211 482 q 475 410 425 482 q 503 235 525 339 m 450 235 q 429 378 469 321 q 308 436 389 436 q 164 378 228 436 q 81 235 100 321 q 102 90 63 149 q 222 32 142 32 q 367 90 303 32 q 450 235 432 149 m 374 653 l 447 544 l 396 544 l 347 617 l 268 544 l 217 544 l 335 653 l 374 653 m 502 619 l 463 619 l 551 733 l 597 721 l 502 619 z "},"Ồ":{"ha":675,"x_min":8,"x_max":686,"o":"m 654 329 q 516 83 622 181 q 274 -14 410 -14 q 73 83 138 -14 q 40 329 8 181 q 178 575 72 478 q 419 672 283 672 q 621 575 556 672 q 654 329 686 478 m 600 329 q 574 538 626 451 q 410 625 521 625 q 210 538 299 625 q 94 329 121 451 q 121 120 68 207 q 285 33 174 33 q 485 120 396 33 q 600 329 574 207 m 475 842 l 549 733 l 497 733 l 449 806 l 369 733 l 318 733 l 436 842 l 475 842 m 644 806 l 605 806 l 555 907 l 607 919 l 644 806 z "},"ồ":{"ha":553,"x_min":6,"x_max":535,"o":"m 503 235 q 400 58 481 131 q 213 -14 319 -14 q 56 58 106 -14 q 28 235 6 131 q 131 410 50 339 q 318 482 211 482 q 475 410 425 482 q 503 235 525 339 m 450 235 q 429 378 469 321 q 308 436 389 436 q 164 378 228 436 q 81 235 100 321 q 102 90 63 149 q 222 32 142 32 q 367 90 303 32 q 450 235 432 149 m 374 653 l 447 544 l 396 544 l 347 617 l 268 544 l 217 544 l 335 653 l 374 653 m 536 619 l 497 619 l 447 721 l 498 733 l 536 619 z "},"Ổ":{"ha":675,"x_min":8,"x_max":714,"o":"m 654 329 q 516 83 622 181 q 274 -14 410 -14 q 73 83 138 -14 q 40 329 8 181 q 178 575 72 478 q 419 672 283 672 q 621 575 556 672 q 654 329 686 478 m 600 329 q 574 538 626 451 q 410 625 521 625 q 210 538 299 625 q 94 329 121 451 q 121 120 68 207 q 285 33 174 33 q 485 120 396 33 q 600 329 574 207 m 475 842 l 549 733 l 497 733 l 449 806 l 369 733 l 318 733 l 436 842 l 475 842 m 708 911 q 659 845 699 872 q 614 802 618 817 l 575 802 q 624 860 584 835 q 669 911 663 885 q 663 938 673 928 q 633 947 653 947 q 569 912 600 947 l 549 931 q 647 981 588 981 q 697 963 680 981 q 708 911 714 945 z "},"ổ":{"ha":553,"x_min":6,"x_max":601,"o":"m 503 235 q 400 58 481 131 q 213 -14 319 -14 q 56 58 106 -14 q 28 235 6 131 q 131 410 50 339 q 318 482 211 482 q 475 410 425 482 q 503 235 525 339 m 450 235 q 429 378 469 321 q 308 436 389 436 q 164 378 228 436 q 81 235 100 321 q 102 90 63 149 q 222 32 142 32 q 367 90 303 32 q 450 235 432 149 m 374 653 l 447 544 l 396 544 l 347 617 l 268 544 l 217 544 l 335 653 l 374 653 m 595 742 q 546 675 587 703 q 502 633 505 648 l 463 633 q 511 690 472 665 q 557 742 550 715 q 550 768 560 759 q 520 778 540 778 q 457 743 488 778 l 437 762 q 534 812 475 812 q 585 793 568 812 q 595 742 602 775 z "},"Ỗ":{"ha":675,"x_min":8,"x_max":686,"o":"m 654 329 q 516 83 622 181 q 274 -14 410 -14 q 73 83 138 -14 q 40 329 8 181 q 178 575 72 478 q 419 672 283 672 q 621 575 556 672 q 654 329 686 478 m 600 329 q 574 538 626 451 q 410 625 521 625 q 210 538 299 625 q 94 329 121 451 q 121 120 68 207 q 285 33 174 33 q 485 120 396 33 q 600 329 574 207 m 475 842 l 549 733 l 497 733 l 449 806 l 369 733 l 318 733 l 436 842 l 475 842 m 558 967 l 597 967 q 513 881 576 881 q 460 900 494 881 q 414 919 426 919 q 378 875 390 919 l 342 875 q 422 964 364 964 q 472 943 440 964 q 525 922 504 922 q 558 967 549 922 z "},"ỗ":{"ha":553,"x_min":6,"x_max":525,"o":"m 503 235 q 400 58 481 131 q 213 -14 319 -14 q 56 58 106 -14 q 28 235 6 131 q 131 410 50 339 q 318 482 211 482 q 475 410 425 482 q 503 235 525 339 m 450 235 q 429 378 469 321 q 308 436 389 436 q 164 378 228 436 q 81 235 100 321 q 102 90 63 149 q 222 32 142 32 q 367 90 303 32 q 450 235 432 149 m 374 653 l 447 544 l 396 544 l 347 617 l 268 544 l 217 544 l 335 653 l 374 653 m 460 776 l 499 776 q 414 690 478 690 q 362 710 396 690 q 315 729 328 729 q 279 685 292 729 l 243 685 q 324 774 265 774 q 374 753 342 774 q 426 732 406 732 q 460 776 450 732 z "},"Ộ":{"ha":675,"x_min":8,"x_max":686,"o":"m 654 329 q 516 83 622 181 q 274 -14 410 -14 q 73 83 138 -14 q 40 329 8 181 q 178 575 72 478 q 419 672 283 672 q 621 575 556 672 q 654 329 686 478 m 600 329 q 574 538 626 451 q 410 625 521 625 q 210 538 299 625 q 94 329 121 451 q 121 120 68 207 q 285 33 174 33 q 485 120 396 33 q 600 329 574 207 m 296 -107 q 279 -135 293 -124 q 247 -147 265 -147 q 222 -135 231 -147 q 215 -107 213 -124 q 233 -81 218 -93 q 264 -68 247 -68 q 290 -81 282 -68 q 296 -107 299 -93 m 475 842 l 549 733 l 497 733 l 449 806 l 369 733 l 318 733 l 436 842 l 475 842 z "},"ộ":{"ha":553,"x_min":6,"x_max":525,"o":"m 503 235 q 400 58 481 131 q 213 -14 319 -14 q 56 58 106 -14 q 28 235 6 131 q 131 410 50 339 q 318 482 211 482 q 475 410 425 482 q 503 235 525 339 m 450 235 q 429 378 469 321 q 308 436 389 436 q 164 378 228 436 q 81 235 100 321 q 102 90 63 149 q 222 32 142 32 q 367 90 303 32 q 450 235 432 149 m 233 -107 q 217 -135 231 -124 q 185 -147 203 -147 q 159 -135 168 -147 q 153 -107 150 -124 q 170 -81 156 -93 q 201 -68 185 -68 q 228 -81 219 -68 q 233 -107 236 -93 m 374 653 l 447 544 l 396 544 l 347 617 l 268 544 l 217 544 l 335 653 l 374 653 z "},"Ớ":{"ha":675,"x_min":8,"x_max":738,"o":"m 654 329 q 516 83 622 181 q 274 -14 410 -14 q 73 83 138 -14 q 40 329 8 181 q 178 575 72 478 q 419 672 283 672 q 607 593 540 672 q 693 724 679 656 l 738 724 q 703 651 732 693 q 625 569 669 603 q 654 329 685 474 m 600 329 q 574 538 626 451 q 410 625 521 625 q 210 538 299 625 q 94 329 121 451 q 121 120 68 207 q 285 33 174 33 q 485 120 396 33 q 600 329 574 207 m 407 731 l 364 731 l 461 857 l 513 843 l 407 731 z "},"ớ":{"ha":553,"x_min":6,"x_max":593,"o":"m 503 235 q 400 58 481 131 q 213 -14 319 -14 q 56 58 106 -14 q 28 235 6 131 q 131 410 50 339 q 318 482 211 482 q 465 422 411 482 q 547 553 525 469 l 593 553 q 483 399 572 468 q 503 235 524 329 m 450 235 q 429 378 469 321 q 308 436 389 436 q 164 378 228 436 q 81 235 100 321 q 102 90 63 149 q 222 32 142 32 q 367 90 303 32 q 450 235 432 149 m 306 542 l 263 542 l 360 668 l 411 654 l 306 542 z "},"Ờ":{"ha":675,"x_min":8,"x_max":738,"o":"m 654 329 q 516 83 622 181 q 274 -14 410 -14 q 73 83 138 -14 q 40 329 8 181 q 178 575 72 478 q 419 672 283 672 q 607 593 540 672 q 693 724 679 656 l 738 724 q 703 651 732 693 q 625 569 669 603 q 654 329 685 474 m 600 329 q 574 538 626 451 q 410 625 521 625 q 210 538 299 625 q 94 329 121 451 q 121 120 68 207 q 285 33 174 33 q 485 120 396 33 q 600 329 574 207 m 501 731 l 458 731 l 403 843 l 460 857 l 501 731 z "},"ờ":{"ha":553,"x_min":6,"x_max":593,"o":"m 503 235 q 400 58 481 131 q 213 -14 319 -14 q 56 58 106 -14 q 28 235 6 131 q 131 410 50 339 q 318 482 211 482 q 465 422 411 482 q 547 553 525 469 l 593 553 q 483 399 572 468 q 503 235 524 329 m 450 235 q 429 378 469 321 q 308 436 389 436 q 164 378 228 436 q 81 235 100 321 q 102 90 63 149 q 222 32 142 32 q 367 90 303 32 q 450 235 432 149 m 400 542 l 357 542 l 301 654 l 358 668 l 400 542 z "},"Ở":{"ha":675,"x_min":8,"x_max":738,"o":"m 654 329 q 516 83 622 181 q 274 -14 410 -14 q 73 83 138 -14 q 40 329 8 181 q 178 575 72 478 q 419 672 283 672 q 607 593 540 672 q 693 724 679 656 l 738 724 q 703 651 732 693 q 625 569 669 603 q 654 329 685 474 m 600 329 q 574 538 626 451 q 410 625 521 625 q 210 538 299 625 q 94 329 121 451 q 121 120 68 207 q 285 33 174 33 q 485 120 396 33 q 600 329 574 207 m 557 843 q 502 769 547 800 q 453 722 457 739 l 410 722 q 463 786 419 758 q 514 843 507 814 q 507 873 518 863 q 474 883 496 883 q 403 844 438 883 l 381 865 q 489 921 424 921 q 545 901 526 921 q 557 843 564 881 z "},"ở":{"ha":553,"x_min":6,"x_max":593,"o":"m 503 235 q 400 58 481 131 q 213 -14 319 -14 q 56 58 106 -14 q 28 235 6 131 q 131 410 50 339 q 318 482 211 482 q 465 422 411 482 q 547 553 525 469 l 593 553 q 483 399 572 468 q 503 235 524 329 m 450 235 q 429 378 469 321 q 308 436 389 436 q 164 378 228 436 q 81 235 100 321 q 102 90 63 149 q 222 32 142 32 q 367 90 303 32 q 450 235 432 149 m 434 642 q 385 575 426 603 q 341 533 344 548 l 302 533 q 350 590 311 565 q 396 642 389 615 q 389 668 399 659 q 359 678 379 678 q 296 643 327 678 l 276 662 q 373 712 314 712 q 424 693 407 712 q 434 642 441 675 z "},"Ỡ":{"ha":675,"x_min":8,"x_max":738,"o":"m 654 329 q 516 83 622 181 q 274 -14 410 -14 q 73 83 138 -14 q 40 329 8 181 q 178 575 72 478 q 419 672 283 672 q 607 593 540 672 q 693 724 679 656 l 738 724 q 703 651 732 693 q 625 569 669 603 q 654 329 685 474 m 600 329 q 574 538 626 451 q 410 625 521 625 q 210 538 299 625 q 94 329 121 451 q 121 120 68 207 q 285 33 174 33 q 485 120 396 33 q 600 329 574 207 m 529 819 l 568 819 q 483 733 547 733 q 431 753 465 733 q 385 772 397 772 q 349 728 361 772 l 313 728 q 393 817 335 817 q 443 796 411 817 q 496 775 475 775 q 529 819 519 775 z "},"ỡ":{"ha":553,"x_min":6,"x_max":593,"o":"m 503 235 q 400 58 481 131 q 213 -14 319 -14 q 56 58 106 -14 q 28 235 6 131 q 131 410 50 339 q 318 482 211 482 q 465 422 411 482 q 547 553 525 469 l 593 553 q 483 399 572 468 q 503 235 524 329 m 450 235 q 429 378 469 321 q 308 436 389 436 q 164 378 228 436 q 81 235 100 321 q 102 90 63 149 q 222 32 142 32 q 367 90 303 32 q 450 235 432 149 m 429 631 l 468 631 q 383 544 447 544 q 331 564 365 544 q 285 583 297 583 q 249 539 261 583 l 213 539 q 293 628 235 628 q 343 607 311 628 q 396 586 375 586 q 429 631 419 586 z "},"Ợ":{"ha":675,"x_min":8,"x_max":738,"o":"m 654 329 q 516 83 622 181 q 274 -14 410 -14 q 73 83 138 -14 q 40 329 8 181 q 178 575 72 478 q 419 672 283 672 q 607 593 540 672 q 693 724 679 656 l 738 724 q 703 651 732 693 q 625 569 669 603 q 654 329 685 474 m 600 329 q 574 538 626 451 q 410 625 521 625 q 210 538 299 625 q 94 329 121 451 q 121 120 68 207 q 285 33 174 33 q 485 120 396 33 q 600 329 574 207 m 294 -107 q 278 -135 292 -124 q 246 -147 264 -147 q 220 -135 229 -147 q 214 -107 211 -124 q 231 -81 217 -93 q 263 -68 246 -68 q 289 -81 281 -68 q 294 -107 297 -93 z "},"ợ":{"ha":553,"x_min":6,"x_max":593,"o":"m 503 235 q 400 58 481 131 q 213 -14 319 -14 q 56 58 106 -14 q 28 235 6 131 q 131 410 50 339 q 318 482 211 482 q 465 422 411 482 q 547 553 525 469 l 593 553 q 483 399 572 468 q 503 235 524 329 m 450 235 q 429 378 469 321 q 308 436 389 436 q 164 378 228 436 q 81 235 100 321 q 102 90 63 149 q 222 32 142 32 q 367 90 303 32 q 450 235 432 149 m 233 -107 q 217 -135 231 -124 q 185 -147 203 -147 q 159 -135 168 -147 q 153 -107 150 -124 q 170 -81 156 -93 q 201 -68 185 -68 q 228 -81 219 -68 q 233 -107 236 -93 z "},"Ụ":{"ha":647,"x_min":13,"x_max":653,"o":"m 571 279 q 261 -12 510 -12 q 74 279 13 -12 l 156 661 l 210 661 l 128 281 q 142 92 100 150 q 271 33 183 33 q 425 92 360 33 q 517 281 490 150 l 599 661 l 653 661 l 571 279 m 281 -107 q 264 -135 278 -124 q 232 -147 250 -147 q 206 -135 215 -147 q 200 -107 197 -124 q 217 -81 203 -93 q 249 -68 232 -68 q 275 -81 267 -68 q 281 -107 283 -93 z "},"ụ":{"ha":542,"x_min":10,"x_max":510,"o":"m 433 1 l 379 -10 q 376 82 372 38 q 179 -12 296 -12 q 56 207 10 -12 l 92 375 q 88 469 103 433 l 142 481 q 149 388 157 433 l 113 217 q 201 35 74 35 q 318 74 261 35 q 394 186 381 118 l 456 472 l 510 472 l 433 115 q 433 1 422 64 m 228 -107 q 211 -135 225 -124 q 179 -147 197 -147 q 153 -135 163 -147 q 147 -107 144 -124 q 165 -81 150 -93 q 196 -68 179 -68 q 222 -81 214 -68 q 228 -107 231 -93 z "},"Ủ":{"ha":647,"x_min":13,"x_max":653,"o":"m 571 279 q 261 -12 510 -12 q 74 279 13 -12 l 156 661 l 210 661 l 128 281 q 142 92 100 150 q 271 33 183 33 q 425 92 360 33 q 517 281 490 150 l 599 661 l 653 661 l 571 279 m 543 843 q 488 769 533 800 q 439 722 443 739 l 396 722 q 449 786 406 758 q 500 843 493 814 q 493 873 504 863 q 460 883 482 883 q 389 844 424 883 l 367 865 q 475 921 410 921 q 531 901 513 921 q 543 843 550 881 z "},"ủ":{"ha":542,"x_min":10,"x_max":510,"o":"m 433 1 l 379 -10 q 376 82 372 38 q 179 -12 296 -12 q 56 207 10 -12 l 92 375 q 88 469 103 433 l 142 481 q 149 388 157 433 l 113 217 q 201 35 74 35 q 318 74 261 35 q 394 186 381 118 l 456 472 l 510 472 l 433 115 q 433 1 422 64 m 429 642 q 379 575 420 603 q 335 533 339 548 l 296 533 q 344 590 305 565 q 390 642 384 615 q 384 668 394 659 q 354 678 374 678 q 290 643 321 678 l 270 662 q 367 712 309 712 q 418 693 401 712 q 429 642 435 675 z "},"Ứ":{"ha":647,"x_min":13,"x_max":776,"o":"m 571 279 q 261 -12 510 -12 q 74 279 13 -12 l 156 661 l 210 661 l 128 281 q 142 92 100 150 q 271 33 183 33 q 425 92 360 33 q 517 281 490 150 l 599 661 l 653 661 l 639 600 q 732 724 714 654 l 776 724 q 631 558 743 625 l 571 279 m 425 731 l 382 731 l 479 857 l 531 843 l 425 731 z "},"ứ":{"ha":518,"x_min":10,"x_max":632,"o":"m 433 115 q 433 1 422 64 l 379 -10 q 376 82 372 38 q 179 -12 296 -12 q 56 207 10 -12 l 92 375 q 88 469 103 433 l 142 481 q 149 388 157 433 l 113 217 q 201 35 74 35 q 318 74 261 35 q 394 186 381 118 l 456 472 l 510 472 l 497 415 q 588 553 564 468 l 632 553 q 489 376 599 439 l 433 115 m 318 542 l 275 542 l 372 668 l 424 654 l 318 542 z "},"Ừ":{"ha":647,"x_min":13,"x_max":776,"o":"m 571 279 q 261 -12 510 -12 q 74 279 13 -12 l 156 661 l 210 661 l 128 281 q 142 92 100 150 q 271 33 183 33 q 425 92 360 33 q 517 281 490 150 l 599 661 l 653 661 l 639 600 q 732 724 714 654 l 776 724 q 631 558 743 625 l 571 279 m 468 731 l 425 731 l 369 843 l 426 857 l 468 731 z "},"ừ":{"ha":518,"x_min":10,"x_max":632,"o":"m 433 115 q 433 1 422 64 l 379 -10 q 376 82 372 38 q 179 -12 296 -12 q 56 207 10 -12 l 92 375 q 88 469 103 433 l 142 481 q 149 388 157 433 l 113 217 q 201 35 74 35 q 318 74 261 35 q 394 186 381 118 l 456 472 l 510 472 l 497 415 q 588 553 564 468 l 632 553 q 489 376 599 439 l 433 115 m 356 542 l 313 542 l 257 654 l 314 668 l 356 542 z "},"Ử":{"ha":647,"x_min":13,"x_max":776,"o":"m 571 279 q 261 -12 510 -12 q 74 279 13 -12 l 156 661 l 210 661 l 128 281 q 142 92 100 150 q 271 33 183 33 q 425 92 360 33 q 517 281 490 150 l 599 661 l 653 661 l 639 600 q 732 724 714 654 l 776 724 q 631 558 743 625 l 571 279 m 535 843 q 480 769 525 800 q 431 722 435 739 l 388 722 q 441 786 397 758 q 492 843 485 814 q 485 873 496 863 q 451 883 474 883 q 381 844 415 883 l 358 865 q 467 921 401 921 q 523 901 504 921 q 535 843 542 881 z "},"ử":{"ha":518,"x_min":10,"x_max":632,"o":"m 433 115 q 433 1 422 64 l 379 -10 q 376 82 372 38 q 179 -12 296 -12 q 56 207 10 -12 l 92 375 q 88 469 103 433 l 142 481 q 149 388 157 433 l 113 217 q 201 35 74 35 q 318 74 261 35 q 394 186 381 118 l 456 472 l 510 472 l 497 415 q 588 553 564 468 l 632 553 q 489 376 599 439 l 433 115 m 430 642 q 381 575 421 603 q 336 533 340 548 l 298 533 q 346 590 306 565 q 391 642 385 615 q 385 668 395 659 q 355 678 375 678 q 291 643 323 678 l 271 662 q 369 712 310 712 q 420 693 403 712 q 430 642 436 675 z "},"Ữ":{"ha":647,"x_min":13,"x_max":776,"o":"m 571 279 q 261 -12 510 -12 q 74 279 13 -12 l 156 661 l 210 661 l 128 281 q 142 92 100 150 q 271 33 183 33 q 425 92 360 33 q 517 281 490 150 l 599 661 l 653 661 l 639 600 q 732 724 714 654 l 776 724 q 631 558 743 625 l 571 279 m 522 819 l 561 819 q 476 733 540 733 q 424 753 458 733 q 378 772 390 772 q 342 728 354 772 l 306 728 q 386 817 328 817 q 436 796 404 817 q 489 775 468 775 q 522 819 513 775 z "},"ữ":{"ha":518,"x_min":10,"x_max":632,"o":"m 433 115 q 433 1 422 64 l 379 -10 q 376 82 372 38 q 179 -12 296 -12 q 56 207 10 -12 l 92 375 q 88 469 103 433 l 142 481 q 149 388 157 433 l 113 217 q 201 35 74 35 q 318 74 261 35 q 394 186 381 118 l 456 472 l 510 472 l 497 415 q 588 553 564 468 l 632 553 q 489 376 599 439 l 433 115 m 432 631 l 471 631 q 386 544 450 544 q 334 564 368 544 q 288 583 300 583 q 251 539 264 583 l 215 539 q 296 628 238 628 q 346 607 314 628 q 399 586 378 586 q 432 631 422 586 z "},"Ự":{"ha":647,"x_min":13,"x_max":776,"o":"m 571 279 q 261 -12 510 -12 q 74 279 13 -12 l 156 661 l 210 661 l 128 281 q 142 92 100 150 q 271 33 183 33 q 425 92 360 33 q 517 281 490 150 l 599 661 l 653 661 l 639 600 q 732 724 714 654 l 776 724 q 631 558 743 625 l 571 279 m 281 -107 q 264 -135 278 -124 q 232 -147 250 -147 q 206 -135 215 -147 q 200 -107 197 -124 q 217 -81 203 -93 q 249 -68 232 -68 q 275 -81 267 -68 q 281 -107 283 -93 z "},"ự":{"ha":518,"x_min":10,"x_max":632,"o":"m 433 115 q 433 1 422 64 l 379 -10 q 376 82 372 38 q 179 -12 296 -12 q 56 207 10 -12 l 92 375 q 88 469 103 433 l 142 481 q 149 388 157 433 l 113 217 q 201 35 74 35 q 318 74 261 35 q 394 186 381 118 l 456 472 l 510 472 l 497 415 q 588 553 564 468 l 632 553 q 489 376 599 439 l 433 115 m 215 -107 q 199 -135 213 -124 q 167 -147 185 -147 q 141 -135 150 -147 q 135 -107 132 -124 q 152 -81 138 -93 q 183 -68 167 -68 q 210 -81 201 -68 q 215 -107 218 -93 z "},"Ỳ":{"ha":508,"x_min":81,"x_max":589,"o":"m 589 661 l 282 292 l 221 0 l 168 0 l 229 290 l 81 661 l 143 661 l 265 338 l 526 661 l 589 661 m 393 731 l 350 731 l 294 843 l 351 857 l 393 731 z "},"ỳ":{"ha":468,"x_min":-71,"x_max":504,"o":"m 196 0 q -68 -217 74 -185 l -71 -174 q 147 15 51 -147 q 146 32 147 19 l 44 472 l 103 472 l 194 72 l 444 472 l 504 472 l 196 0 m 324 542 l 281 542 l 225 654 l 282 668 l 324 542 z "},"Ỵ":{"ha":508,"x_min":81,"x_max":589,"o":"m 589 661 l 282 292 l 221 0 l 168 0 l 229 290 l 81 661 l 143 661 l 265 338 l 526 661 l 589 661 m 211 -107 q 194 -135 208 -124 q 163 -147 181 -147 q 137 -135 146 -147 q 131 -107 128 -124 q 148 -81 133 -93 q 179 -68 163 -68 q 206 -81 197 -68 q 211 -107 214 -93 z "},"ỵ":{"ha":468,"x_min":-71,"x_max":504,"o":"m 196 0 q -68 -217 74 -185 l -71 -174 q 147 15 51 -147 q 146 32 147 19 l 44 472 l 103 472 l 194 72 l 444 472 l 504 472 l 196 0 m 286 -107 q 269 -135 283 -124 q 238 -147 256 -147 q 212 -135 221 -147 q 206 -107 203 -124 q 223 -81 208 -93 q 254 -68 238 -68 q 281 -81 272 -68 q 286 -107 289 -93 z "},"Ỷ":{"ha":508,"x_min":81,"x_max":589,"o":"m 589 661 l 282 292 l 221 0 l 168 0 l 229 290 l 81 661 l 143 661 l 265 338 l 526 661 l 589 661 m 474 843 q 419 769 464 800 q 369 722 374 739 l 326 722 q 380 786 336 758 q 431 843 424 814 q 424 873 435 863 q 390 883 413 883 q 319 844 354 883 l 297 865 q 406 921 340 921 q 462 901 443 921 q 474 843 481 881 z "},"ỷ":{"ha":468,"x_min":-71,"x_max":504,"o":"m 196 0 q -68 -217 74 -185 l -71 -174 q 147 15 51 -147 q 146 32 147 19 l 44 472 l 103 472 l 194 72 l 444 472 l 504 472 l 196 0 m 391 642 q 342 575 383 603 q 297 533 301 548 l 259 533 q 307 590 267 565 q 352 642 346 615 q 346 668 356 659 q 316 678 336 678 q 252 643 284 678 l 232 662 q 330 712 271 712 q 381 693 364 712 q 391 642 398 675 z "},"Ỹ":{"ha":508,"x_min":81,"x_max":589,"o":"m 589 661 l 282 292 l 221 0 l 168 0 l 229 290 l 81 661 l 143 661 l 265 338 l 526 661 l 589 661 m 446 819 l 485 819 q 400 733 464 733 q 348 753 382 733 q 301 772 314 772 q 265 728 278 772 l 229 728 q 310 817 251 817 q 360 796 328 817 q 413 775 392 775 q 446 819 436 775 z "},"ỹ":{"ha":468,"x_min":-71,"x_max":504,"o":"m 196 0 q -68 -217 74 -185 l -71 -174 q 147 15 51 -147 q 146 32 147 19 l 44 472 l 103 472 l 194 72 l 444 472 l 504 472 l 196 0 m 388 631 l 426 631 q 342 544 406 544 q 290 564 324 544 q 243 583 256 583 q 207 539 219 583 l 171 539 q 251 628 193 628 q 301 607 269 628 q 354 586 333 586 q 388 631 378 586 z "},"₣":{"ha":500,"x_min":-50,"x_max":538,"o":"m 290 131 l 104 131 l 78 0 l 24 0 l 50 131 l -50 131 l -40 174 l 60 174 l 164 661 l 538 661 l 528 615 l 208 615 l 154 364 l 453 364 l 443 318 l 144 318 l 114 174 l 300 174 l 290 131 z "},"₫":{"ha":557,"x_min":-54,"x_max":626,"o":"m 449 115 q 449 1 438 64 l 394 -10 q 393 83 388 38 q 197 -12 310 -12 q 51 58 96 -12 q 29 242 6 128 q 123 414 51 346 q 293 482 194 482 q 451 382 413 482 l 496 592 l 315 592 l 325 638 l 506 638 l 519 701 l 574 701 l 560 638 l 626 638 l 617 592 l 550 592 l 449 115 m 410 189 l 428 268 q 402 392 443 344 q 294 439 361 439 q 158 383 214 439 q 82 240 101 328 q 214 33 39 33 q 340 78 283 33 q 410 189 396 122 m 433 -150 l -54 -150 l -46 -107 l 442 -107 l 433 -150 z "},"Ă":{"ha":556,"x_min":-60,"x_max":515,"o":"m 496 0 l 436 0 l 404 213 l 119 213 l 0 0 l -60 0 l 332 671 l 388 671 l 496 0 m 397 258 l 347 611 l 146 258 l 397 258 m 515 818 q 468 757 500 781 q 371 724 425 724 q 286 757 317 724 q 267 818 267 781 l 315 818 q 325 792 317 803 q 381 767 342 767 q 446 792 419 767 q 468 818 458 803 l 515 818 z "},"ă":{"ha":557,"x_min":22,"x_max":514,"o":"m 444 96 q 449 1 432 40 l 394 -10 q 388 86 379 40 q 192 -14 311 -14 q 67 33 111 -14 q 22 157 22 79 q 101 376 22 279 q 304 481 185 481 q 514 411 428 482 l 444 96 m 411 199 l 454 388 q 311 436 383 436 q 139 346 210 435 q 75 164 75 263 q 110 66 75 103 q 210 29 146 29 q 338 80 281 29 q 411 199 396 131 m 494 629 q 447 568 479 592 q 350 535 404 535 q 265 568 296 535 q 246 629 246 592 l 294 629 q 304 603 296 614 q 360 578 321 578 q 425 603 399 578 q 447 629 438 614 l 494 629 z "},"Ć":{"ha":564,"x_min":11,"x_max":601,"o":"m 464 69 l 471 25 q 283 -10 390 -10 q 80 87 149 -10 q 42 332 11 183 q 183 576 74 481 q 428 671 293 671 q 601 636 535 671 l 575 592 q 421 624 507 624 q 222 544 314 624 q 97 331 125 461 q 131 117 69 200 q 296 38 189 38 q 464 69 382 38 m 357 731 l 314 731 l 411 857 l 463 843 l 357 731 z "},"ć":{"ha":460,"x_min":3,"x_max":468,"o":"m 367 65 l 378 21 q 225 -12 311 -12 q 56 55 108 -12 q 26 235 3 122 q 132 415 51 347 q 329 482 213 482 q 468 449 415 482 l 439 404 q 317 438 394 438 q 166 383 232 438 q 79 235 100 329 q 103 86 60 140 q 231 32 146 32 q 367 65 308 32 m 265 542 l 222 542 l 319 668 l 371 654 l 265 542 z "},"Č":{"ha":564,"x_min":11,"x_max":601,"o":"m 464 69 l 471 25 q 283 -10 390 -10 q 80 87 149 -10 q 42 332 11 183 q 183 576 74 481 q 428 671 293 671 q 601 636 535 671 l 575 592 q 421 624 507 624 q 222 544 314 624 q 97 331 125 461 q 131 117 69 200 q 296 38 189 38 q 464 69 382 38 m 439 722 l 400 722 l 328 831 l 379 831 l 428 758 l 507 831 l 558 831 l 439 722 z "},"č":{"ha":460,"x_min":3,"x_max":468,"o":"m 367 65 l 378 21 q 225 -12 311 -12 q 56 55 108 -12 q 26 235 3 122 q 132 415 51 347 q 329 482 213 482 q 468 449 415 482 l 439 404 q 317 438 394 438 q 166 383 232 438 q 79 235 100 329 q 103 86 60 140 q 231 32 146 32 q 367 65 308 32 m 349 533 l 310 533 l 238 642 l 289 642 l 338 569 l 417 642 l 468 642 l 349 533 z "},"Đ":{"ha":599,"x_min":14,"x_max":604,"o":"m 571 344 q 460 94 536 178 q 204 -6 369 -6 q 17 7 142 -6 l 81 313 l 14 313 l 24 358 l 90 358 l 153 651 q 375 668 285 668 q 552 583 500 668 q 571 344 604 497 m 517 344 q 503 551 546 478 q 361 621 461 621 q 199 610 297 621 l 144 358 l 354 358 l 344 313 l 135 313 l 79 50 q 231 42 147 42 q 517 344 453 42 z "},"đ":{"ha":557,"x_min":6,"x_max":626,"o":"m 449 115 q 449 1 438 64 l 394 -10 q 392 82 388 38 q 197 -12 310 -12 q 51 58 96 -12 q 29 242 6 128 q 123 414 51 346 q 293 482 194 482 q 451 382 413 482 l 496 592 l 315 592 l 325 638 l 506 638 l 519 701 l 574 701 l 560 638 l 626 638 l 617 592 l 550 592 l 449 115 m 410 189 l 428 268 q 402 392 443 344 q 294 439 361 439 q 158 383 214 439 q 82 240 101 328 q 214 33 39 33 q 340 78 283 33 q 410 189 396 122 z "},"Ğ":{"ha":590,"x_min":10,"x_max":588,"o":"m 542 331 l 475 14 q 447 22 465 22 q 362 8 447 22 q 249 -7 276 -7 q 66 85 122 -7 q 42 332 10 178 q 172 571 74 479 q 417 668 275 668 q 588 635 518 668 l 561 590 q 404 622 485 622 q 213 540 300 622 q 97 331 125 458 q 112 116 68 194 q 267 38 156 38 q 435 72 354 38 l 479 286 l 311 286 l 321 331 l 542 331 m 532 818 q 485 757 517 781 q 388 724 442 724 q 303 757 333 724 q 283 818 283 781 l 332 818 q 342 792 333 803 q 397 767 358 767 q 463 792 436 767 q 485 818 475 803 l 532 818 z "},"ğ":{"ha":432,"x_min":-22,"x_max":453,"o":"m 389 317 q 315 193 372 239 q 186 147 257 147 q 115 163 143 147 q 99 122 103 142 q 197 54 92 86 q 301 -82 322 17 q 238 -180 289 -142 q 103 -218 186 -218 q -22 -181 29 -218 l 6 -136 q 117 -171 57 -171 q 207 -147 168 -171 q 253 -86 246 -124 q 165 17 268 -19 q 82 54 103 38 q 53 122 44 81 q 81 189 58 147 q 54 307 42 244 q 128 428 71 382 q 249 474 185 474 l 433 474 l 424 429 l 357 436 q 389 317 403 381 m 340 310 q 328 390 350 356 q 247 432 304 432 q 153 395 192 432 q 104 308 114 358 q 122 219 92 253 q 194 189 150 189 q 286 221 244 189 q 340 310 328 253 m 453 629 q 406 568 438 592 q 308 535 363 535 q 224 568 254 535 q 204 629 204 592 l 253 629 q 263 603 254 614 q 318 578 279 578 q 383 603 357 578 q 406 629 396 614 l 453 629 z "},"Ĩ":{"ha":204,"x_min":15,"x_max":333,"o":"m 69 0 l 15 0 l 156 661 l 210 661 l 69 0 m 294 819 l 333 819 q 249 733 313 733 q 197 753 231 733 q 150 772 163 772 q 114 728 126 772 l 78 728 q 158 817 100 817 q 208 796 176 817 q 261 775 240 775 q 294 819 285 775 z "},"ĩ":{"ha":199,"x_min":13,"x_max":290,"o":"m 65 0 l 13 0 l 113 472 l 165 472 l 65 0 m 251 631 l 290 631 q 206 544 269 544 q 153 564 188 544 q 107 583 119 583 q 71 539 83 583 l 35 539 q 115 628 57 628 q 165 607 133 628 q 218 586 197 586 q 251 631 242 586 z "},"İ":{"ha":204,"x_min":15,"x_max":260,"o":"m 69 0 l 15 0 l 156 661 l 210 661 l 69 0 m 256 750 q 235 717 251 731 q 197 704 218 704 q 167 717 178 704 q 161 750 157 731 q 182 784 165 769 q 218 799 199 799 q 249 784 239 799 q 256 750 260 769 z "},"Ş":{"ha":496,"x_min":-11,"x_max":494,"o":"m 424 172 q 343 47 407 97 q 160 -12 269 -12 q -11 38 51 -12 l 19 85 q 175 33 78 33 q 305 70 253 33 q 369 168 357 107 q 355 258 382 224 q 254 317 328 292 q 108 503 82 376 q 192 625 125 576 q 351 674 260 674 q 494 639 444 674 q 463 596 478 615 q 340 628 410 628 q 211 588 263 628 q 163 510 171 554 q 279 368 142 418 q 401 296 368 335 q 424 172 440 250 m 246 -112 q 132 -193 229 -193 q 71 -175 100 -193 l 90 -144 q 140 -158 117 -158 q 201 -119 193 -158 q 124 -78 210 -85 l 194 6 l 239 6 l 190 -47 q 246 -112 257 -64 z "},"ş":{"ha":400,"x_min":-10,"x_max":369,"o":"m 315 125 q 249 26 301 65 q 115 -12 196 -12 q -10 25 46 -12 l 19 69 q 129 33 79 33 q 264 121 246 33 q 176 222 278 189 q 76 350 57 261 q 137 443 88 404 q 260 482 186 482 q 369 450 333 482 l 339 406 q 242 439 304 439 q 167 415 197 439 q 129 357 136 392 q 218 264 118 301 q 315 125 335 221 m 198 -101 q 96 -174 183 -174 q 41 -158 67 -174 l 58 -130 q 103 -143 82 -143 q 158 -108 151 -143 q 88 -70 166 -76 l 152 5 l 192 5 l 148 -43 q 198 -101 208 -58 z "},"Ũ":{"ha":661,"x_min":19,"x_max":660,"o":"m 578 279 q 268 -12 517 -12 q 81 279 19 -12 l 163 661 l 217 661 l 135 281 q 149 92 107 150 q 278 33 190 33 q 432 92 367 33 q 524 281 497 150 l 606 661 l 660 661 l 578 279 m 522 819 l 561 819 q 476 733 540 733 q 424 753 458 733 q 378 772 390 772 q 342 728 354 772 l 306 728 q 386 817 328 817 q 436 796 404 817 q 489 775 468 775 q 522 819 513 775 z "},"ũ":{"ha":563,"x_min":10,"x_max":510,"o":"m 433 1 l 379 -10 q 376 82 372 38 q 179 -12 296 -12 q 56 207 10 -12 l 92 375 q 88 469 103 433 l 142 481 q 149 388 157 433 l 113 217 q 201 35 74 35 q 318 74 261 35 q 394 186 381 118 l 456 472 l 510 472 l 433 115 q 433 1 422 64 m 432 631 l 471 631 q 386 544 450 544 q 334 564 368 544 q 288 583 300 583 q 251 539 264 583 l 215 539 q 296 628 238 628 q 346 607 314 628 q 399 586 378 586 q 432 631 422 586 z "},"Ơ":{"ha":675,"x_min":8,"x_max":738,"o":"m 654 329 q 516 83 622 181 q 274 -14 410 -14 q 73 83 138 -14 q 40 329 8 181 q 178 575 72 478 q 419 672 283 672 q 607 593 540 672 q 693 724 679 656 l 738 724 q 703 651 732 693 q 625 569 669 603 q 654 329 685 474 m 600 329 q 574 538 626 451 q 410 625 521 625 q 210 538 299 625 q 94 329 121 451 q 121 120 68 207 q 285 33 174 33 q 485 120 396 33 q 600 329 574 207 z "},"ơ":{"ha":553,"x_min":6,"x_max":593,"o":"m 503 235 q 400 58 481 131 q 213 -14 319 -14 q 56 58 106 -14 q 28 235 6 131 q 131 410 50 339 q 318 482 211 482 q 465 422 411 482 q 547 553 525 469 l 593 553 q 483 399 572 468 q 503 235 524 329 m 450 235 q 429 378 469 321 q 308 436 389 436 q 164 378 228 436 q 81 235 100 321 q 102 90 63 149 q 222 32 142 32 q 367 90 303 32 q 450 235 432 149 z "},"Ư":{"ha":647,"x_min":13,"x_max":776,"o":"m 571 279 q 261 -12 510 -12 q 74 279 13 -12 l 156 661 l 210 661 l 128 281 q 142 92 100 150 q 271 33 183 33 q 425 92 360 33 q 517 281 490 150 l 599 661 l 653 661 l 639 600 q 732 724 714 654 l 776 724 q 631 558 743 625 l 571 279 z "},"ư":{"ha":518,"x_min":10,"x_max":632,"o":"m 433 115 q 433 1 422 64 l 379 -10 q 376 82 372 38 q 179 -12 296 -12 q 56 207 10 -12 l 92 375 q 88 469 103 433 l 142 481 q 149 388 157 433 l 113 217 q 201 35 74 35 q 318 74 261 35 q 394 186 381 118 l 456 472 l 510 472 l 497 415 q 588 553 564 468 l 632 553 q 489 376 599 439 l 433 115 z "},"̉":{"ha":0,"x_min":-158,"x_max":25,"o":"m 18 654 q -37 581 8 611 q -86 533 -82 550 l -129 533 q -76 597 -119 569 q -25 654 -32 625 q -32 684 -21 674 q -65 694 -43 694 q -136 656 -101 694 l -158 676 q -50 732 -115 732 q 6 712 -12 732 q 18 654 25 692 z "},"̃":{"ha":0,"x_min":-169,"x_max":86,"o":"m 47 631 l 86 631 q 1 544 65 544 q -51 564 -17 544 q -97 583 -85 583 q -133 539 -121 583 l -169 539 q -89 628 -147 628 q -39 607 -71 628 q 14 586 -7 586 q 47 631 38 586 z "},"́":{"ha":0,"x_min":-121,"x_max":28,"o":"m -78 542 l -121 542 l -24 668 l 28 654 l -78 542 z "},"̣":{"ha":0,"x_min":-233,"x_max":-147,"o":"m -150 -107 q -167 -135 -153 -124 q -199 -147 -181 -147 q -224 -135 -215 -147 q -231 -107 -233 -124 q -213 -81 -228 -93 q -182 -68 -199 -68 q -156 -81 -164 -68 q -150 -107 -147 -93 z "},"̀":{"ha":0,"x_min":-82,"x_max":17,"o":"m 17 542 l -26 542 l -82 654 l -25 668 l 17 542 z "},"⅛":{"ha":744,"x_min":54,"x_max":704,"o":"m 125 -12 l 79 -12 l 614 649 l 660 649 l 125 -12 m 224 258 l 54 258 l 61 292 l 122 292 l 182 571 l 119 525 l 100 558 l 217 646 q 238 607 246 643 l 171 292 l 231 292 l 224 258 m 621 104 q 613 158 628 133 q 561 185 599 182 q 497 158 521 182 q 465 104 472 135 q 477 55 460 74 q 529 36 494 36 q 589 55 563 36 q 621 104 615 74 m 649 290 q 639 328 653 311 q 594 346 625 346 q 543 328 564 346 q 518 290 522 311 q 528 255 514 271 q 571 231 542 239 q 624 255 603 238 q 649 290 644 272 m 668 107 q 617 22 657 53 q 519 -8 578 -8 q 436 22 463 -8 q 421 107 410 53 q 450 167 428 140 q 501 210 472 193 q 473 244 479 224 q 471 288 467 264 q 518 362 482 333 q 604 390 554 390 q 679 362 654 390 q 693 288 704 333 q 674 244 689 264 q 633 210 660 224 q 668 107 683 178 z "},"⅜":{"ha":744,"x_min":49,"x_max":704,"o":"m 125 -12 l 79 -12 l 614 649 l 660 649 l 125 -12 m 322 397 q 260 295 310 333 q 142 256 210 257 q 49 283 79 254 l 79 328 q 147 301 106 301 q 233 328 199 301 q 276 396 268 354 q 231 457 289 457 q 165 438 192 457 l 154 472 q 243 528 233 521 q 286 579 281 554 q 246 607 292 607 q 153 546 183 607 l 117 567 q 260 653 172 653 q 332 581 347 653 q 302 529 328 556 q 251 493 276 503 q 322 397 340 479 m 621 104 q 613 158 628 133 q 561 185 599 182 q 497 158 521 182 q 465 104 472 135 q 477 55 460 74 q 529 36 494 36 q 589 55 563 36 q 621 104 615 74 m 649 290 q 639 328 653 311 q 594 346 625 346 q 543 328 564 346 q 518 290 522 311 q 528 255 514 271 q 571 231 542 239 q 624 255 603 238 q 649 290 644 272 m 668 107 q 617 22 657 53 q 519 -8 578 -8 q 436 22 463 -8 q 421 107 410 53 q 450 167 428 140 q 501 210 472 193 q 473 244 479 224 q 471 288 467 264 q 518 362 482 333 q 604 390 554 390 q 679 362 654 390 q 693 288 704 333 q 674 244 689 264 q 633 210 660 224 q 668 107 683 178 z "},"⅝":{"ha":744,"x_min":39,"x_max":704,"o":"m 125 -12 l 79 -12 l 614 649 l 660 649 l 125 -12 m 318 397 q 253 292 304 332 q 131 251 201 251 q 39 290 68 251 l 65 325 q 103 304 85 311 q 146 297 122 297 q 224 324 186 297 q 271 396 261 350 q 256 450 278 431 q 200 469 233 469 q 143 442 169 469 l 114 440 l 171 647 l 361 647 l 346 604 l 207 604 l 181 514 q 201 517 192 517 q 221 517 210 517 q 303 481 276 517 q 318 397 329 446 m 621 104 q 613 158 628 133 q 561 185 599 182 q 497 158 521 182 q 465 104 472 135 q 477 55 460 74 q 529 36 494 36 q 589 55 563 36 q 621 104 615 74 m 649 290 q 639 328 653 311 q 594 346 625 346 q 543 328 564 346 q 518 290 522 311 q 528 255 514 271 q 571 231 542 239 q 624 255 603 238 q 649 290 644 272 m 668 107 q 617 22 657 53 q 519 -8 578 -8 q 436 22 463 -8 q 421 107 410 53 q 450 167 428 140 q 501 210 472 193 q 473 244 479 224 q 471 288 467 264 q 518 362 482 333 q 604 390 554 390 q 679 362 654 390 q 693 288 704 333 q 674 244 689 264 q 633 210 660 224 q 668 107 683 178 z "}}}
